<?xml version="1.0" standalone="no"?>
<!DOCTYPE svg PUBLIC "-//W3C//DTD SVG 1.1//EN" "http://www.w3.org/Graphics/SVG/1.1/DTD/svg11.dtd" >
<svg xmlns="http://www.w3.org/2000/svg">
<metadata></metadata>
<defs>
<font id="oranda_btitalic" horiz-adv-x="901" >
<font-face units-per-em="2048" ascent="1556" descent="-492" />
<missing-glyph horiz-adv-x="451" />
<glyph horiz-adv-x="2048" />
<glyph horiz-adv-x="2048" />
<glyph unicode="&#xd;" horiz-adv-x="451" />
<glyph unicode=" "  horiz-adv-x="451" />
<glyph unicode="&#x09;" horiz-adv-x="451" />
<glyph unicode="&#xa0;" horiz-adv-x="451" />
<glyph unicode="!" horiz-adv-x="516" d="M86 74q0 61 31.5 92t93.5 31q50 0 72 -23.5t22 -77.5q0 -58 -32 -89.5t-91 -31.5q-49 0 -72.5 24t-23.5 75zM172 285l72 845q6 74 31.5 105t78.5 31q38 0 60 -22t22 -58q0 -14 -1.5 -28.5t-4.5 -29.5l-162 -843h-96z" />
<glyph unicode="&#x22;" horiz-adv-x="678" d="M90 1362q0 48 22 74t62 26q41 0 63.5 -26t22.5 -74q0 -9 -3 -34q-1 -5 -1 -7l-66 -457h-32l-64 457q-2 17 -3 26t-1 15zM418 1360q0 49 22.5 75.5t63.5 26.5q40 0 62 -26t22 -74q0 -14 -0.5 -23t-1.5 -18l-68 -457h-31l-65 457q0 2 -1 6q-3 22 -3 33z" />
<glyph unicode="#" horiz-adv-x="1575" d="M104 467l43 115h322l100 286h-348l43 117h348l166 471h133l-168 -471h287l168 471h131l-166 -471h307l-40 -117h-310l-100 -286h332l-43 -115h-330l-166 -469h-133l166 469h-287l-166 -469h-131l166 469h-324zM600 582h289l102 286h-291z" />
<glyph unicode="$" d="M29 80l28 209h121l35 -162q27 -5 51.5 -7.5t46.5 -2.5q7 0 21.5 1t21.5 1l66 454q-140 89 -193 158.5t-53 157.5q0 136 90.5 230t247.5 120l16 111h54l-15 -109q77 0 147.5 -16.5t141.5 -50.5l-31 -211h-118l-35 165q-33 3 -49.5 4t-28.5 1q-9 0 -20.5 -1t-22.5 -2 l-57 -409q143 -83 210.5 -170.5t67.5 -188.5q0 -140 -104 -238.5t-273 -115.5l-16 -110h-55l16 104q-97 6 -177.5 26t-133.5 52zM332 930q0 -53 27 -96.5t83 -79.5l54 372q-74 -16 -119 -70.5t-45 -125.5zM412 119q95 18 147.5 74t52.5 139q0 62 -32.5 110t-110.5 99z" />
<glyph unicode="%" horiz-adv-x="1577" d="M92 760q0 233 93.5 369.5t254.5 136.5q121 0 182.5 -66.5t61.5 -198.5q0 -239 -93 -372t-259 -133q-117 0 -178.5 67.5t-61.5 196.5zM238 750q0 -83 30.5 -126.5t87.5 -43.5q85 0 134 112t49 305q0 97 -27.5 142t-85.5 45q-85 0 -136.5 -119.5t-51.5 -314.5zM240 25 l1030 1255l69 -51l-1024 -1262zM897 242q0 234 93 370t253 136q122 0 184 -67t62 -198q0 -239 -94 -373.5t-260 -134.5q-116 0 -177 68.5t-61 198.5zM1040 231q0 -83 30.5 -126.5t88.5 -43.5q84 0 133 112.5t49 305.5q0 97 -27 142t-85 45q-85 0 -137 -119.5t-52 -315.5z " />
<glyph unicode="&#x26;" horiz-adv-x="1339" d="M70 348q0 140 91 235t238 107q-92 32 -137 91t-45 147q0 154 104.5 247t280.5 93q75 0 153 -17.5t160 -52.5l-36 -227h-101l-37 157q-31 6 -56.5 8.5t-45.5 2.5q-125 0 -189.5 -55t-64.5 -160q0 -96 60 -144.5t178 -48.5q4 0 16 1t18 1l-18 -115q-9 0 -26 1.5t-25 1.5 q-167 0 -252.5 -65.5t-85.5 -193.5q0 -121 88 -190.5t242 -69.5q199 0 300.5 127t112.5 389h-170l19 115h491l-18 -115h-164q-14 -322 -165 -482.5t-441 -160.5q-217 0 -346 102t-129 271z" />
<glyph unicode="'" horiz-adv-x="348" d="M90 1360q0 50 21.5 76t62.5 26t63.5 -26t22.5 -74q0 -9 -3 -34q-1 -5 -1 -7l-66 -457h-32l-66 457q-1 8 -1.5 16t-0.5 23z" />
<glyph unicode="(" horiz-adv-x="494" d="M55 162q0 357 115 684t311 534h125q-192 -242 -293.5 -580.5t-101.5 -736.5q0 -146 24 -270.5t70 -214.5h-115q-69 115 -102 257.5t-33 326.5z" />
<glyph unicode=")" horiz-adv-x="494" d="M-152 -422q193 243 294.5 580.5t101.5 734.5q0 144 -24 268t-70 217h114q69 -114 102 -257t33 -326q0 -357 -114.5 -683t-311.5 -534h-125z" />
<glyph unicode="*" horiz-adv-x="639" d="M90 1051l12 79l265 -24l-195 182l61 51l154 -217l12 258h76l-59 -252l186 197l51 -61l-219 -156l262 22l-10 -79l-262 30l194 -184l-61 -53l-154 219l-14 -262h-76l64 258l-184 -197l-52 62l217 155z" />
<glyph unicode="+" horiz-adv-x="1706" d="M254 553v117h541v551h118v-551h539v-117h-539v-553h-118v553h-541z" />
<glyph unicode="," horiz-adv-x="455" d="M12 -223q50 57 77.5 111t35.5 112q-37 0 -59.5 23t-22.5 61q0 51 30.5 82t82.5 31q57 0 84.5 -33t27.5 -101q0 -84 -51 -180.5t-137 -171.5z" />
<glyph unicode="-" horiz-adv-x="455" d="M-6 442l20 133h398l-21 -133h-397z" />
<glyph unicode="." horiz-adv-x="455" d="M43 80q0 71 30 105t93 34q52 0 74 -26t22 -87q0 -62 -32.5 -96.5t-92.5 -34.5q-49 0 -71.5 25t-22.5 80z" />
<glyph unicode="/" horiz-adv-x="487" d="M-137 -422l569 1802h100l-567 -1802h-102z" />
<glyph unicode="0" d="M41 416q0 392 131 620t356 228q163 0 246.5 -112.5t83.5 -330.5q0 -393 -130 -620.5t-353 -227.5q-165 0 -249.5 112t-84.5 331zM213 387q0 -143 46.5 -216t137.5 -73q131 0 209 198.5t78 534.5q0 158 -44 236t-132 78q-66 0 -117.5 -47t-85.5 -137q-42 -113 -67 -267.5 t-25 -306.5z" />
<glyph unicode="1" d="M154 0l14 90l162 37l131 940q-55 -24 -132.5 -38t-172.5 -17l14 90q121 23 215.5 63.5t163.5 100.5h98l-160 -1139l164 -37l-12 -90h-485z" />
<glyph unicode="2" d="M-51 0q8 103 57.5 187.5t159.5 181.5q46 40 129 111q364 311 364 456q0 102 -58 154.5t-171 52.5q-32 0 -62.5 -2.5t-62.5 -8.5l-80 -165h-96l31 227q85 36 161 54t148 18q168 0 266.5 -83.5t98.5 -224.5q0 -202 -310 -454l-30 -25l-287 -231q-28 -22 -45.5 -45.5 t-28.5 -50.5h418l76 151h96l-43 -303h-731z" />
<glyph unicode="3" d="M-23 55l15 101q79 -24 147.5 -34.5t132.5 -10.5q158 0 241 65t83 189q0 112 -68.5 168.5t-203.5 56.5q-21 0 -30.5 -0.5t-18.5 -1.5l16 110h31q151 0 236 66t85 182q0 93 -53 148t-141 55q-33 0 -65.5 -4t-70.5 -12l-84 -166h-94l31 225q83 37 158.5 55.5t144.5 18.5 q167 0 252.5 -77.5t85.5 -227.5q0 -119 -72 -205.5t-194 -114.5q102 -20 161.5 -97t59.5 -190q0 -166 -124 -272.5t-323 -106.5q-86 0 -168.5 20t-169.5 60z" />
<glyph unicode="4" d="M12 369l19 131l643 766h114l-108 -777h141l-20 -120h-139l-33 -242l162 -37l-13 -90h-479l14 90l170 37l33 242h-504zM168 489h367l73 527z" />
<glyph unicode="5" d="M-12 55l16 103q59 -24 126 -35.5t138 -11.5q166 0 256 79t90 224q0 121 -73.5 186.5t-210.5 65.5q-43 0 -86.5 -6.5t-89.5 -18.5l84 600h639l-21 -151h-516l-45 -328q40 10 73 15t62 5q159 0 255.5 -98t96.5 -260q0 -196 -130 -322.5t-330 -126.5q-94 0 -177.5 20 t-156.5 60z" />
<glyph unicode="6" d="M68 416q0 373 179.5 611.5t461.5 238.5q48 0 102 -8.5t119 -26.5l-17 -109q-46 13 -89 19t-85 6q-175 0 -292 -112t-173 -333q65 29 117.5 42.5t102.5 13.5q148 0 237.5 -96.5t89.5 -255.5q0 -195 -113.5 -313t-301.5 -118q-165 0 -251.5 113.5t-86.5 327.5zM229 354 q0 -128 48.5 -192t146.5 -64q108 0 168.5 81.5t60.5 226.5q0 108 -58 163.5t-171 55.5q-36 0 -76.5 -7t-91.5 -22q-14 -78 -20.5 -137.5t-6.5 -104.5z" />
<glyph unicode="7" d="M135 967l37 274h754v-4q0 -131 -246 -490q-61 -89 -94 -139q-10 -15 -30 -43q-214 -319 -214 -559v-6h-176q16 270 258 608l6 8q67 94 175 238q147 196 153 235l-473 1l-56 -123h-94z" />
<glyph unicode="8" d="M12 281q0 131 86.5 227.5t261.5 161.5q-104 59 -153 128t-49 156q0 138 103.5 225t270.5 87q152 0 248.5 -76.5t96.5 -194.5q0 -109 -73.5 -186.5t-217.5 -122.5q113 -70 167 -152.5t54 -187.5q0 -163 -117.5 -267t-306.5 -104q-166 0 -268.5 85t-102.5 221zM172 297 q0 -88 63.5 -143.5t165.5 -55.5q109 0 175.5 64.5t66.5 169.5q0 68 -44 130t-157 146q-136 -69 -203 -146.5t-67 -164.5zM319 967q0 -55 33 -99t150 -125q114 54 162.5 109t48.5 129q0 76 -51.5 122t-135.5 46q-94 0 -150.5 -50t-56.5 -132z" />
<glyph unicode="9" d="M16 23l15 98q41 -11 80.5 -17t74.5 -6q185 0 299.5 110t157.5 329q-65 -30 -118 -44t-103 -14q-149 0 -239.5 96.5t-90.5 255.5q0 197 111.5 316t296.5 119q167 0 254.5 -112t87.5 -327q0 -390 -164 -621t-440 -231q-66 0 -121 12t-101 36zM258 829q0 -110 58.5 -166.5 t172.5 -56.5q36 0 77 8t91 25q14 81 19.5 134.5t5.5 96.5q0 136 -49.5 205.5t-145.5 69.5q-106 0 -167.5 -84.5t-61.5 -231.5z" />
<glyph unicode=":" horiz-adv-x="455" d="M43 80q0 71 30 105t93 34q52 0 74 -26t22 -87q0 -62 -32.5 -96.5t-92.5 -34.5q-49 0 -71.5 25t-22.5 80zM147 735q0 71 31 105t94 34q51 0 73 -25.5t22 -86.5q0 -64 -32.5 -98.5t-92.5 -34.5q-49 0 -72 25.5t-23 80.5z" />
<glyph unicode=";" horiz-adv-x="455" d="M12 -223q50 57 77.5 111t35.5 112q-37 0 -59.5 23t-22.5 61q0 51 30.5 82t82.5 31q57 0 84.5 -33t27.5 -101q0 -84 -51 -180.5t-137 -171.5zM147 735q0 71 31 105t94 34q51 0 73 -25.5t22 -86.5q0 -64 -32.5 -98.5t-92.5 -34.5q-49 0 -72 25.5t-23 80.5z" />
<glyph unicode="&#x3c;" horiz-adv-x="1706" d="M264 559v103l1178 483v-127l-1000 -408l1000 -405v-129z" />
<glyph unicode="=" horiz-adv-x="1706" d="M254 360v117h1198v-117h-1198zM254 743v117h1198v-117h-1198z" />
<glyph unicode="&#x3e;" horiz-adv-x="1706" d="M264 76v129l1000 405l-1000 408v127l1178 -483v-103z" />
<glyph unicode="?" horiz-adv-x="848" d="M145 967l33 227q82 36 159 54t150 18q154 0 245 -77.5t91 -205.5q0 -89 -52 -177.5t-232 -270.5q-9 -9 -25 -24q-107 -103 -111 -226h-126q1 80 22 138.5t76 123.5q33 40 94 111q178 204 178 305q0 82 -56 131t-153 49q-19 0 -47 -3t-65 -10l-80 -163h-101zM199 74 q0 61 30.5 92t92.5 31q51 0 73.5 -23.5t22.5 -77.5q0 -58 -32 -89.5t-91 -31.5q-49 0 -72.5 24t-23.5 75z" />
<glyph unicode="@" horiz-adv-x="2019" d="M145 537q0 204 86 381t250 313q131 110 291 165.5t344 55.5q347 0 553.5 -187t206.5 -499q0 -157 -58 -297t-163 -236q-57 -52 -123.5 -80t-134.5 -28q-97 0 -149 52.5t-58 158.5q-62 -106 -139 -158.5t-170 -52.5q-125 0 -201 92t-76 244q0 108 49 216t138 193 q65 64 144 100t155 36q87 0 143 -49.5t78 -145.5l53 180h143l-170 -610q0 -2 -1 -5q-17 -59 -17 -104q0 -47 25.5 -74.5t68.5 -27.5q34 0 79 17.5t85 48.5q122 90 187 231t65 315q0 140 -50 252t-153 203q-90 79 -216 122.5t-267 43.5q-187 0 -341.5 -58.5t-275.5 -175.5 q-130 -126 -197 -293.5t-67 -369.5q0 -175 57 -304.5t181 -234.5q114 -97 261 -146.5t320 -49.5q163 0 317.5 52t295.5 154l30 -36q-148 -110 -313 -166t-342 -56q-187 0 -342 46.5t-274 138.5q-151 113 -229.5 274.5t-78.5 358.5zM750 375q0 -93 40.5 -147t108.5 -54 q66 0 126 44.5t116 133.5q57 94 91 202.5t34 197.5q0 93 -47.5 153t-120.5 60q-54 0 -99 -31t-92 -100q-72 -108 -114.5 -234t-42.5 -225z" />
<glyph unicode="A" horiz-adv-x="1118" d="M-92 0l12 90l111 37l565 1114h180l150 -1114l104 -37l-12 -90h-375l12 90l113 37l-41 342h-379l-158 -342l105 -37l-12 -90h-375zM397 575h314l-64 521z" />
<glyph unicode="B" horiz-adv-x="1036" d="M-29 0l13 90l143 37l139 987l-133 37l12 90h371q206 0 305 -71t99 -220q0 -127 -75 -215t-204 -110q111 -23 171 -96t60 -185q0 -168 -123 -256t-360 -88h-418zM285 115h110q153 0 228 57.5t75 173.5q0 104 -55 163.5t-151 59.5h-82h-62zM362 680h70q151 0 233.5 67 t82.5 189q0 95 -62.5 142.5t-185.5 47.5h-74z" />
<glyph unicode="C" horiz-adv-x="1008" d="M76 494q0 325 194 548.5t473 223.5q79 0 151 -17t142 -51l-30 -231h-103l-37 163q-32 6 -55.5 8.5t-40.5 2.5q-221 0 -371.5 -181t-150.5 -450q0 -178 92 -281.5t250 -103.5q62 0 140 13.5t163 39.5l-16 -110q-84 -45 -174.5 -69t-178.5 -24q-200 0 -324 142.5 t-124 376.5z" />
<glyph unicode="D" horiz-adv-x="1194" d="M-29 0l13 90l143 37l139 987l-133 37l12 90h338q166 0 255.5 -17.5t158.5 -58.5q106 -62 162.5 -175t56.5 -263q0 -171 -58.5 -319t-164.5 -246q-91 -85 -207.5 -123.5t-290.5 -38.5h-424zM283 115h114q255 0 401 164t146 450q0 201 -105.5 300t-318.5 99h-96z" />
<glyph unicode="E" horiz-adv-x="963" d="M-29 0l13 90l143 37l139 987l-133 37l12 90h799l-39 -274h-100l-45 161h-334l-64 -448h254l72 147h96l-55 -397h-96l-33 135h-254l-63 -450h356l84 161h102l-39 -276h-815z" />
<glyph unicode="F" horiz-adv-x="887" d="M-29 0l13 90l143 37l139 987l-133 37l12 90h799l-39 -274h-100l-45 161h-334l-64 -448h254l72 147h96l-55 -397h-96l-33 135h-254l-63 -450l166 -25l-13 -90h-465z" />
<glyph unicode="G" horiz-adv-x="1204" d="M74 494q0 329 195 550.5t489 221.5q102 0 182.5 -16.5t159.5 -51.5l-31 -231h-102l-37 159q-6 1 -17 2q-88 11 -129 11q-235 0 -386.5 -182t-151.5 -461q0 -183 96 -282t274 -99q40 0 79.5 4t78.5 12l39 285l-133 39l12 90h436l-14 -90l-141 -39l-51 -357 q-79 -41 -171 -62.5t-188 -21.5q-232 0 -360.5 136.5t-128.5 382.5z" />
<glyph unicode="H" horiz-adv-x="1247" d="M-29 0l13 90l143 37l139 987l-133 37l12 90h437l-15 -90l-143 -37l-59 -420h540l60 420l-136 37l15 90h436l-14 -90l-144 -37l-139 -987l135 -37l-14 -90h-436l14 90l143 37l64 457h-539l-65 -457l135 -37l-14 -90h-435z" />
<glyph unicode="I" horiz-adv-x="551" d="M-29 0l13 90l143 37l139 987l-133 37l12 90h437l-15 -90l-143 -37l-139 -987l135 -37l-14 -90h-435z" />
<glyph unicode="J" horiz-adv-x="528" d="M-291 -393l35 241h96l33 -161q116 2 172.5 78t87.5 296l148 1053l-136 37l13 90h436l-12 -90l-144 -37l-155 -1104q-33 -228 -127 -331t-269 -103q-50 0 -95 8t-83 23z" />
<glyph unicode="K" horiz-adv-x="1081" d="M-29 0l13 90l143 37l139 987l-133 37l12 90h437l-15 -90l-143 -37l-139 -987l135 -37l-14 -90h-435zM377 674l448 440l-106 37l12 90h440l-12 -90l-155 -37l-455 -426l325 -561l136 -37l-15 -90h-233z" />
<glyph unicode="L" horiz-adv-x="858" d="M-29 0l13 90l143 37l139 987l-133 37l12 90h437l-15 -90l-143 -37l-141 -999h331l86 161h101l-39 -276h-791z" />
<glyph unicode="M" horiz-adv-x="1487" d="M-29 0l13 90l139 37l139 987l-129 37l12 90h359l182 -1057l469 1057h365l-15 -90l-139 -37l-137 -987l129 -37l-15 -90h-425l12 90l149 37l138 971l-496 -1098h-137l-193 1108l-135 -981l131 -37l-10 -90h-406z" />
<glyph unicode="N" horiz-adv-x="1237" d="M-29 0l13 90l143 37l139 987l-133 37l12 90h306l421 -975l119 848l-133 37l12 90h408l-14 -90l-144 -37l-155 -1114h-134l-444 1036l-129 -909l129 -37l-14 -90h-402z" />
<glyph unicode="O" horiz-adv-x="1157" d="M76 489q0 340 164.5 558.5t416.5 218.5q192 0 307 -142.5t115 -382.5q0 -326 -162.5 -548t-400.5 -222q-205 0 -322.5 138.5t-117.5 379.5zM250 492q0 -188 71 -290t201 -102q162 0 272.5 185.5t110.5 459.5q0 196 -68 295t-202 99q-163 0 -274 -186.5t-111 -460.5z" />
<glyph unicode="P" horiz-adv-x="930" d="M-29 0l13 90l143 37l139 987l-133 37l12 90h361q109 0 161.5 -5t86.5 -17q92 -33 141 -105.5t49 -175.5q0 -179 -112.5 -287t-301.5 -108q-21 0 -46 2t-62 8l12 106q19 -3 34.5 -4.5t27.5 -1.5q128 0 201 71t73 196q0 107 -57 157.5t-178 50.5h-107l-143 -1001l161 -37 l-12 -90h-463z" />
<glyph unicode="Q" horiz-adv-x="1157" d="M76 489q0 340 164.5 558.5t416.5 218.5q194 0 307 -142.5t113 -388.5q0 -298 -141.5 -508.5t-357.5 -238.5q21 -22 61 -63q213 -218 352 -218q38 0 150 18l6 1l-14 -99q-66 -26 -120.5 -38.5t-103.5 -12.5q-124 0 -222 76.5t-265 333.5q-162 23 -254 157t-92 346z M250 492q0 -188 71 -290t201 -102q162 0 272.5 185.5t110.5 459.5q0 196 -68 295t-202 99q-163 0 -274 -186.5t-111 -460.5z" />
<glyph unicode="R" horiz-adv-x="1034" d="M-29 0l13 90l143 37l139 987l-133 37l12 90h347q228 0 325.5 -69t97.5 -224q0 -149 -100.5 -248.5t-261.5 -105.5q38 -6 63.5 -27.5t57.5 -81.5l149 -280q2 -3 5 -9q46 -86 161 -108l-12 -88h-135q-99 0 -154 113l-6 12l-174 358q-28 59 -52.5 74.5t-68.5 15.5h-39 l-63 -446l135 -37l-14 -90h-435zM362 678h70q158 0 233.5 64t75.5 196q0 100 -55 145t-180 45h-80z" />
<glyph unicode="S" horiz-adv-x="848" d="M6 59l33 240h100l47 -182q31 -5 61 -8t58 -3q114 0 181 61t67 165q0 56 -35 108.5t-166 163.5l-17 15q-202 170 -202 307q0 153 105 246.5t278 93.5q71 0 141.5 -17.5t149.5 -54.5l-31 -227h-100l-39 157q-38 9 -59 12t-39 3q-117 0 -180.5 -51t-63.5 -144q0 -42 23 -78 t111 -111l6 -5q282 -234 282 -406q0 -158 -113 -263.5t-287 -105.5q-74 0 -153.5 21.5t-157.5 62.5z" />
<glyph unicode="T" horiz-adv-x="934" d="M63 967l37 274h910l-37 -274h-103l-41 161h-213l-141 -1001l164 -37l-12 -90h-486l13 90l163 37l142 1001h-211l-84 -161h-101z" />
<glyph unicode="U" horiz-adv-x="1186" d="M98 1151l15 90h434l-12 -90l-144 -37l-100 -708q-4 -25 -6 -48.5t-2 -46.5q0 -99 69 -156t191 -57q146 0 218.5 80t102.5 289l90 647l-137 37l12 90h416l-12 -90l-143 -37l-84 -596l-1 -4q-43 -298 -118 -395q-56 -70 -150 -107t-219 -37q-176 0 -285.5 83.5 t-109.5 215.5q0 27 3.5 67.5t10.5 92.5l96 680z" />
<glyph unicode="V" horiz-adv-x="1120" d="M76 1151l12 90h379l-12 -90l-115 -37l129 -952l446 952l-104 37l12 90h381l-12 -90l-115 -37l-559 -1114h-182l-156 1114z" />
<glyph unicode="W" horiz-adv-x="1790" d="M106 1151l15 90h379l-15 -90l-114 -37l100 -942l424 1069h201l75 -1069l433 942l-107 37l12 90h375l-14 -90l-105 -37l-548 -1114h-175l-79 1065l-426 -1065h-197l-127 1114z" />
<glyph unicode="X" horiz-adv-x="1139" d="M-51 0l12 90l107 37l430 535l-222 456l-104 39l12 84h389l-12 -84l-112 -39l149 -325l250 325l-105 39l13 84h379l-13 -84l-114 -39l-353 -446l258 -545l105 -37l-12 -90h-385l14 90l110 37l-192 418l-315 -418l106 -37l-14 -90h-381z" />
<glyph unicode="Y" horiz-adv-x="1051" d="M90 1151l14 90h392l-13 -90l-114 -37l161 -459l297 459l-104 37l12 90h379l-14 -90l-115 -37l-403 -592l-58 -395l160 -37l-14 -90h-484l13 90l168 37l55 385l-225 602z" />
<glyph unicode="Z" horiz-adv-x="1006" d="M-23 0l17 115l801 1013h-459l-90 -161h-101l39 274h822l-17 -113l-796 -1013h495l96 188h101l-41 -303h-867z" />
<glyph unicode="[" horiz-adv-x="494" d="M12 -422l269 1802h286l-16 -110h-141l-238 -1583h141l-14 -109h-287z" />
<glyph unicode="\" horiz-adv-x="487" d="M199 1380h102l12 -1802h-102z" />
<glyph unicode="]" horiz-adv-x="494" d="M-113 -422l17 109h141l238 1583h-144l17 110h286l-268 -1802h-287z" />
<glyph unicode="^" horiz-adv-x="2048" d="M412 897l522 565h178l520 -565h-92l-518 436l-520 -436h-90z" />
<glyph unicode="_" horiz-adv-x="1024" d="M0 -365h1024v-118h-1024v118z" />
<glyph unicode="`" horiz-adv-x="1024" d="M387 1341l148 64l141 -291l-80 -31z" />
<glyph unicode="a" horiz-adv-x="981" d="M57 289q0 284 134.5 482t326.5 198q47 0 85.5 -13t78.5 -43l164 56l-133 -836h155l-14 -86l-131 -41q-4 -1 -14 -4q-60 -18 -82 -18q-38 0 -59 18t-21 49q0 5 5 37q3 19 5 31l6 55q-74 -95 -151.5 -146t-149.5 -51q-98 0 -151.5 81t-53.5 231zM215 295q0 -86 27 -130 t80 -44q42 0 109.5 42.5t152.5 123.5l82 522q-33 20 -63.5 29.5t-63.5 9.5q-143 0 -233.5 -154.5t-90.5 -398.5z" />
<glyph unicode="b" horiz-adv-x="963" d="M49 -20l199 1251l-152 26l13 80l315 43l-98 -620q88 106 167 158.5t152 52.5q99 0 151 -82t52 -238q0 -279 -135 -475t-326 -196q-52 0 -93.5 15.5t-80.5 49.5zM227 139q40 -20 75 -30.5t67 -10.5q139 0 229 154.5t90 392.5q0 86 -27 130t-79 44q-36 0 -93 -33.5 t-180 -132.5z" />
<glyph unicode="c" horiz-adv-x="758" d="M49 344q0 275 136.5 451t349.5 176q56 0 107.5 -13t102.5 -40l-28 -179h-103l-39 119h-34q-145 0 -235.5 -142.5t-90.5 -369.5q0 -114 37 -171.5t110 -57.5q46 0 103.5 25t124.5 73l53 -74q-79 -78 -163 -118.5t-169 -40.5q-125 0 -193.5 94t-68.5 268z" />
<glyph unicode="d" horiz-adv-x="985" d="M53 291q0 281 135 478.5t326 197.5q52 0 92.5 -15.5t81.5 -50.5l51 330l-151 26l12 80l315 43l-196 -1247h155l-12 -86l-133 -41q-40 -12 -61 -16t-37 -4q-39 0 -57.5 18t-18.5 55q0 8 2 23.5t6 36.5l12 65q-85 -105 -164.5 -158t-152.5 -53q-96 0 -150.5 84t-54.5 234z M211 295q0 -86 27 -130t79 -44q37 0 98.5 37t176.5 131l82 520q-42 20 -76 29.5t-66 9.5q-139 0 -230 -156t-91 -397z" />
<glyph unicode="e" horiz-adv-x="793" d="M55 311q0 291 131 475.5t334 184.5q107 0 164 -55t57 -158q0 -142 -118 -222.5t-328 -80.5q-29 0 -44.5 0.5t-29.5 0.5q-4 -37 -6 -67.5t-2 -50.5q0 -111 41.5 -168t122.5 -57q49 0 104.5 24t118.5 74l53 -74q-69 -77 -154 -118.5t-173 -41.5q-132 0 -201.5 85.5 t-69.5 248.5zM238 563q11 -1 22.5 -1.5t34.5 -0.5q150 0 223.5 47.5t73.5 145.5q0 49 -29.5 77.5t-81.5 28.5q-89 0 -152.5 -77t-90.5 -220z" />
<glyph unicode="f" horiz-adv-x="582" d="M-301 -414l29 181h100l37 -107q111 9 163.5 81.5t86.5 315.5l110 789h-153l16 102h152l12 94q23 167 124 252.5t275 85.5q57 0 117.5 -12.5t130.5 -40.5l-29 -182h-100l-41 125q-15 2 -29.5 3t-27.5 1q-129 0 -191 -54t-82 -184l-12 -88h238l-17 -102h-235l-113 -785 q-40 -283 -136.5 -395t-283.5 -112q-38 0 -73 8t-68 24z" />
<glyph unicode="g" horiz-adv-x="977" d="M-35 -193q0 77 57 139.5t185 125.5q-29 19 -41 39.5t-12 50.5q0 56 36.5 103t118.5 95q-94 30 -146 100.5t-52 168.5q0 150 98.5 245t255.5 95q63 0 117 -19t110 -61q61 39 120.5 57.5t123.5 18.5q23 0 66 -7q6 -1 10 -2l-21 -135h-254q21 -32 31 -71t10 -84 q0 -142 -95 -232t-247 -90q-15 0 -23 0.5t-15 1.5q-33 -36 -49.5 -67t-16.5 -54q0 -51 139 -75q37 -7 57 -11q207 -38 268.5 -84.5t61.5 -132.5q0 -152 -144 -260t-358 -108q-171 0 -281 72.5t-110 180.5zM123 -172q0 -76 66 -121t180 -45q139 0 233 61.5t94 147.5 q0 90 -165 124l-15 3l-233 49q-88 -69 -124 -119t-36 -100zM276 610q0 -80 39.5 -122t114.5 -42q84 0 132 67t48 185q0 80 -38 122t-109 42q-87 0 -137 -66.5t-50 -185.5z" />
<glyph unicode="h" horiz-adv-x="1008" d="M55 2l193 1229l-152 29l13 77l317 43l-90 -569q97 78 181 115t165 37q78 0 120 -40.5t42 -115.5q0 -15 -2.5 -38.5t-7.5 -59.5l-93 -574h158l-14 -86l-131 -41q-31 -9 -60 -14.5t-47 -5.5q-33 0 -50 17.5t-17 51.5q0 11 1.5 26.5t4.5 37.5l92 582q2 11 3 24t1 33 q0 34 -14.5 49.5t-46.5 15.5q-42 0 -107.5 -24t-191.5 -88l-113 -711h-154z" />
<glyph unicode="i" horiz-adv-x="524" d="M72 846l12 80l309 41l-135 -832h156l-15 -86l-131 -41q-32 -10 -57 -15t-43 -5q-37 0 -54.5 17t-17.5 52q0 10 2 27t4 36l113 697zM254 1190q0 59 28 95t74 36q38 0 60 -19.5t22 -54.5q0 -61 -27.5 -99t-72.5 -38q-39 0 -61.5 21t-22.5 59z" />
<glyph unicode="j" horiz-adv-x="516" d="M-272 -414l28 181h101l37 -109q103 4 151.5 76t81.5 323l102 760l-143 29l12 80l305 41l-122 -906q-43 -307 -130.5 -407t-265.5 -100q-46 0 -85 8t-72 24zM276 1190q0 58 29.5 94.5t75.5 36.5q37 0 58.5 -19.5t21.5 -54.5q0 -61 -28 -99t-73 -38q-39 0 -61.5 21 t-22.5 59z" />
<glyph unicode="k" horiz-adv-x="924" d="M55 0l193 1231l-152 26l13 80l317 43l-217 -1380h-154zM297 530l326 304l-127 10l12 86l407 41l-12 -88l-123 -62l-319 -284l213 -404h160l-15 -86l-86 -31l-6 -2q-69 -26 -94 -26q-32 0 -50.5 13t-43.5 65z" />
<glyph unicode="l" horiz-adv-x="473" d="M66 57q0 11 1.5 26.5t4.5 37.5l176 1110l-152 26l13 80l315 43l-195 -1245h156l-14 -86l-131 -41q-34 -10 -60.5 -15t-42.5 -5q-36 0 -53.5 17.5t-17.5 51.5z" />
<glyph unicode="m" horiz-adv-x="1542" d="M72 846l12 80l313 41l-22 -150q92 75 173.5 110.5t160.5 35.5q78 0 121.5 -38.5t43.5 -107.5q95 74 179 110t164 36q79 0 120 -39.5t41 -116.5q0 -17 -2.5 -41.5t-7.5 -58.5l-90 -572h156l-13 -86l-133 -41q-33 -10 -61 -16t-43 -6q-34 0 -51 18t-17 53q0 10 1.5 25.5 t4.5 37.5l92 582q3 13 4 25.5t1 32.5q0 34 -15 49.5t-47 15.5q-50 0 -128 -30t-165 -84l-114 -711h-156l113 703q2 15 4 30.5t2 26.5q0 33 -15.5 49t-48.5 16q-48 0 -122.5 -28t-168.5 -82l-114 -715h-154l129 817z" />
<glyph unicode="n" horiz-adv-x="1038" d="M72 842l12 84l309 41l-26 -156q96 78 180.5 115t165.5 37q78 0 119.5 -40.5t41.5 -115.5q0 -16 -2 -38.5t-8 -60.5l-92 -573h156l-13 -86l-133 -41q-33 -10 -60 -15t-42 -5q-35 0 -52.5 17t-17.5 52q0 10 1.5 25.5t4.5 37.5l93 583q2 12 3 24.5t1 32.5q0 33 -15.5 49 t-48.5 16q-40 0 -103.5 -23.5t-193.5 -88.5l-112 -713h-154l129 817z" />
<glyph unicode="o" horiz-adv-x="934" d="M47 348q0 116 39.5 236t106.5 209q67 87 151 132.5t180 45.5q137 0 222 -100t85 -261q0 -269 -133 -451t-327 -182q-149 0 -236.5 100.5t-87.5 270.5zM219 352q0 -122 45.5 -188t128.5 -66q113 0 194 146t81 354q0 117 -45.5 183.5t-124.5 66.5q-121 0 -200 -140 t-79 -356z" />
<glyph unicode="p" horiz-adv-x="985" d="M-119 -422l15 90l141 43l176 1106l-143 25l12 84l307 41l-33 -207q92 109 169 160t151 51q99 0 152 -82t53 -238q0 -279 -135 -475t-326 -196q-50 0 -92 15.5t-84 49.5l-54 -334l160 -43l-14 -90h-455zM260 139q40 -20 75 -30.5t66 -10.5q140 0 230 154.5t90 392.5 q0 86 -27 130t-80 44q-37 0 -100 -38t-174 -128z" />
<glyph unicode="q" horiz-adv-x="944" d="M55 297q0 275 134.5 473.5t316.5 198.5q52 0 95 -13.5t89 -44.5l166 58l-201 -1258l129 -43l-14 -90h-422l14 90l140 43l76 477q-89 -107 -167 -159t-151 -52q-99 0 -152 82.5t-53 237.5zM215 303q0 -86 27 -130t80 -44q37 0 100 38t174 128l80 514q-42 20 -76 29.5 t-65 9.5q-140 0 -230 -153.5t-90 -391.5z" />
<glyph unicode="r" horiz-adv-x="698" d="M72 842l12 84l309 41l-35 -199q109 118 171 156.5t128 38.5q24 -1 77 -11l7 -2l-34 -211h-105l-45 72q-39 -5 -79 -31t-134 -121l-104 -659h-154l129 817z" />
<glyph unicode="s" horiz-adv-x="737" d="M18 39l29 188h100l43 -133q11 -1 28.5 -3.5t25.5 -2.5q85 0 136.5 46t51.5 120q0 73 -145 184q-113 87 -141.5 136t-28.5 116q0 124 86 202.5t223 78.5q68 0 124.5 -11.5t111.5 -35.5l-31 -185h-101l-43 125q-7 0 -20 1t-21 1q-78 0 -128 -41t-50 -104q0 -66 128 -159 q31 -23 48 -36q74 -54 108 -113.5t34 -131.5q0 -137 -90.5 -219t-239.5 -82q-55 0 -114 14.5t-124 44.5z" />
<glyph unicode="t" horiz-adv-x="616" d="M70 846l14 88q92 29 137 73t92 169h93l-37 -228h270l-16 -102h-271l-96 -613q0 -2 -1 -8q-3 -27 -3 -43q0 -31 13.5 -45t43.5 -14q28 0 73 18.5t101 53.5l49 -76q-74 -66 -145.5 -99.5t-136.5 -33.5q-79 0 -118.5 40.5t-39.5 120.5q0 8 1.5 21.5t4.5 33.5l101 644h-129z " />
<glyph unicode="u" horiz-adv-x="1038" d="M68 842l12 84l307 43l-115 -732q-3 -26 -4.5 -37.5t-1.5 -15.5q0 -36 16 -51.5t54 -15.5q37 0 97 21.5t198 88.5l112 721l158 21l-133 -836h156l-13 -86l-133 -41q-8 -2 -24 -7q-52 -15 -70 -15q-41 0 -59.5 20t-18.5 64q0 9 0.5 15t1.5 11l6 35q-96 -78 -180.5 -115 t-165.5 -37q-78 0 -120 41t-42 117q1 18 3 40.5t8 58.5l94 583z" />
<glyph unicode="v" horiz-adv-x="891" d="M4 842l12 84l260 43l115 -795l303 643l-129 25l15 84l309 43l-12 -86l-451 -883h-156l-120 817z" />
<glyph unicode="w" horiz-adv-x="1356" d="M4 842l12 84l260 43l91 -789l254 768h198l43 -794l297 663l-129 25l14 84l310 43l-13 -86l-442 -883h-154l-47 838l-278 -838h-164l-106 817z" />
<glyph unicode="x" horiz-adv-x="920" d="M-23 -20l15 86l381 436l-156 315l-139 25l12 84l223 43l162 -357l195 219l-115 11l12 84l312 43l-15 -90l-336 -375l179 -371h145l-12 -86l-69 -28q-9 -4 -24 -10q-60 -25 -81 -25q-28 0 -50.5 19t-40.5 56l-149 332l-236 -274l111 -11l-12 -83z" />
<glyph unicode="y" horiz-adv-x="891" d="M-61 -422l30 189h101l37 -111q17 1 33.5 19t39.5 67l129 264l-162 811l-143 25l12 84l260 43l134 -764l284 612l-129 25l15 84l309 43l-12 -86l-570 -1139q-56 -111 -106.5 -150.5t-122.5 -39.5q-35 0 -69.5 6t-69.5 18z" />
<glyph unicode="z" horiz-adv-x="883" d="M-4 0l14 100l625 748h-307l-103 -137h-100l37 237h676l-17 -100l-620 -748h350l90 113h100l-32 -213h-713z" />
<glyph unicode="{" horiz-adv-x="1024" d="M176 606v60q165 15 223 74t58 216v213q0 200 81 273.5t298 73.5h10v-51q-142 -2 -194 -55.5t-52 -209.5v-143q0 -226 -61 -308.5t-226 -113.5q165 -31 226 -113.5t61 -308.5v-143q0 -156 51.5 -208.5t194.5 -54.5v-51h-10q-217 0 -298 73.5t-81 272.5v213q0 158 -59 218 t-222 73z" />
<glyph unicode="|" horiz-adv-x="1024" d="M449 -483v2048h126v-2048h-126z" />
<glyph unicode="}" horiz-adv-x="1024" d="M178 -193q143 2 194.5 54.5t51.5 208.5v143q0 226 61 308.5t226 113.5q-165 31 -226 113.5t-61 308.5v143q0 156 -52 209.5t-194 55.5v51h10q216 0 297.5 -74t81.5 -273v-213q0 -157 58 -216t223 -74v-60q-163 -13 -222 -73t-59 -218v-213q0 -198 -81.5 -272t-297.5 -74 h-10v51z" />
<glyph unicode="~" horiz-adv-x="1706" d="M178 461v133q105 73 202 109t185 36q56 0 116.5 -12.5t174.5 -52.5q12 -4 35 -13q164 -59 254 -59q85 0 176 36.5t209 119.5v-131q-101 -72 -197.5 -108t-189.5 -36q-43 0 -90.5 9t-100.5 26q-30 10 -87 31q-202 72 -302 72q-83 0 -173.5 -37.5t-211.5 -122.5z" />
<glyph unicode="&#xa0;" />
<glyph unicode="&#xa1;" horiz-adv-x="516" d="M90 55q0 10 2 25.5t6 34.5l162 843h94l-69 -845q-7 -75 -32.5 -106.5t-78.5 -31.5q-38 0 -61 22t-23 58zM221 1143q0 60 32 91.5t93 31.5q51 0 73.5 -24.5t22.5 -78.5q0 -57 -32.5 -88t-92.5 -31q-50 0 -73 24t-23 75z" />
<glyph unicode="&#xa2;" d="M115 344q0 229 119 395.5t305 200.5l14 113h55l-14 -105h27q68 0 130 -15t115 -44l-22 -160h-139l-27 123q-29 0 -53.5 -1.5t-44.5 -4.5l-99 -711q18 -2 34 -3t34 -1q42 0 94 6.5t121 20.5l-14 -88q-68 -32 -139.5 -49.5t-149.5 -20.5l-15 -109h-55l16 111 q-137 9 -214.5 99.5t-77.5 242.5zM268 410q0 -105 43.5 -176t116.5 -87l94 689q-111 -38 -182.5 -157.5t-71.5 -268.5z" />
<glyph unicode="&#xa3;" d="M-6 0l18 129q115 58 137 223q2 12 3 17l32 231h-125l17 107h125l28 200q29 201 117 280t268 79q73 0 144.5 -17t146.5 -51l-33 -225h-102l-37 166q-4 0 -13 1q-64 7 -89 7q-123 0 -178 -49.5t-74 -188.5l-27 -202h293l-16 -107h-293l-25 -182q-16 -125 -49.5 -179.5 t-101.5 -93.5h495l70 158h96l-43 -303h-784z" />
<glyph unicode="&#xa4;" d="M-18 467l34 82h109q3 38 8.5 77t13.5 79h-133l35 79h119q67 215 210 347.5t310 132.5q77 0 132 -13t106 -41l-27 -231h-100l-41 153q-9 2 -21 5q-17 4 -32 4q-117 0 -215.5 -96.5t-149.5 -260.5h428l-35 -79l-414 -1q-8 -42 -13.5 -81t-6.5 -74h385l-35 -82h-352 q6 -179 65.5 -264.5t176.5 -85.5q62 0 128 14.5t115 38.5l-16 -111q-37 -33 -121 -61.5t-156 -28.5q-165 0 -264 134.5t-103 363.5h-140z" />
<glyph unicode="&#xa5;" horiz-adv-x="1051" d="M61 485l15 82h323l-55 156h-248l15 80h200l-114 311l-107 37l14 90h392l-13 -90l-123 -41l164 -489l310 489l-111 41l12 90h379l-14 -90l-115 -37l-211 -311h230l-11 -80h-276l-107 -156h359l-13 -82h-381l-51 -358l160 -37l-14 -90h-484l13 90l168 37l53 358h-359z" />
<glyph unicode="&#xa6;" horiz-adv-x="1024" d="M449 -350v758h126v-758h-126zM449 674v758h126v-758h-126z" />
<glyph unicode="&#xa7;" horiz-adv-x="848" d="M2 -287l31 224h102l45 -175q16 -1 30.5 -1.5t27.5 -0.5q94 0 147 47t53 130q0 51 -26.5 89.5t-120.5 104.5l-15 11q-213 149 -213 292q0 113 70 187.5t209 107.5q-63 48 -95 108t-32 132q0 129 94.5 214t241.5 85q64 0 126.5 -14t131.5 -44l-35 -243h-100l-47 184 q-5 1 -13 2q-48 6 -67 6q-76 0 -126 -51t-50 -127q0 -55 28 -95.5t109 -92.5q143 -91 189 -156.5t46 -155.5q0 -114 -71 -189t-207 -104q60 -39 91.5 -97.5t31.5 -133.5q0 -132 -92.5 -217.5t-235.5 -85.5q-68 0 -131 14.5t-127 44.5zM203 467q0 -60 42.5 -114t129.5 -103 q108 28 166.5 80t58.5 119q0 63 -40.5 114.5t-137.5 108.5q-112 -39 -165.5 -89.5t-53.5 -115.5z" />
<glyph unicode="&#xa8;" horiz-adv-x="1024" d="M352 1198q0 50 29.5 82.5t73.5 32.5q37 0 55 -19t18 -57q0 -54 -26 -84.5t-72 -30.5q-40 0 -59 18.5t-19 57.5zM659 1198q0 50 29.5 82.5t73.5 32.5q37 0 55.5 -19t18.5 -57q0 -53 -27 -84t-74 -31q-40 0 -58 18t-18 58z" />
<glyph unicode="&#xa9;" horiz-adv-x="1683" d="M139 678q0 140 53 268.5t152 229.5q98 99 228 152.5t272 53.5q137 0 266.5 -53.5t226.5 -150.5q98 -97 152.5 -228.5t54.5 -271.5t-53 -268t-154 -230q-98 -100 -225 -152.5t-270 -52.5t-269 52.5t-227 152.5t-154 227t-53 271zM225 678q0 -125 47 -238.5t136 -201.5 q88 -89 198.5 -135t235.5 -46q126 0 236.5 46t197.5 135q88 90 135 203t47 237t-47.5 240.5t-132.5 201.5q-86 87 -200.5 135t-233.5 48q-123 0 -237.5 -48.5t-200.5 -136.5q-88 -89 -134.5 -202.5t-46.5 -237.5zM426 664q0 186 116 312t285 126q74 0 148 -34t82 -34 q27 0 42 14.5t21 47.5h35l2 -314h-41q-34 137 -104 206t-176 69q-123 0 -185.5 -94.5t-62.5 -278.5q0 -189 67 -285t199 -96q86 0 156 43t127 131l34 -24q-58 -105 -143 -157t-199 -52q-167 0 -285 123t-118 297z" />
<glyph unicode="&#xaa;" horiz-adv-x="735" d="M43 766q0 199 101 337t245 138q36 0 64.5 -9t58.5 -30l123 39l-100 -584h116l-10 -61l-98 -29q-8 -2 -22 -6q-36 -10 -50 -10q-28 0 -44.5 13.5t-16.5 35.5q0 1 3 16.5t5 30.5l4 39q-56 -67 -114 -103t-111 -36q-74 0 -114 57t-40 162zM162 770q0 -61 20 -92t60 -31 q30 0 80 30t116 87l62 366q-25 15 -48 21t-49 6q-106 0 -173.5 -108.5t-67.5 -278.5z" />
<glyph unicode="&#xab;" horiz-adv-x="807" d="M51 483l252 357h100l-206 -357l102 -356h-100zM379 483l252 357h100l-207 -357l101 -356h-101z" />
<glyph unicode="&#xac;" horiz-adv-x="1706" d="M254 741v117h1198v-502h-115v385h-1083z" />
<glyph unicode="&#xad;" horiz-adv-x="455" d="M-6 442l20 133h398l-21 -133h-397z" />
<glyph unicode="&#xae;" horiz-adv-x="1683" d="M139 678q0 140 53 268.5t152 229.5q98 99 228 152.5t272 53.5q138 0 268.5 -54t228.5 -152q97 -97 150 -228t53 -272q0 -137 -55.5 -267.5t-157.5 -232.5q-99 -99 -224.5 -150t-270.5 -51q-137 0 -263 52.5t-227 152.5t-154 227t-53 271zM225 678q0 -127 46.5 -239 t136.5 -201q88 -89 198.5 -135t235.5 -46q126 0 236.5 46t197.5 135q88 90 135 203t47 237t-47.5 241.5t-132.5 200.5q-86 87 -200.5 135t-233.5 48q-122 0 -236 -48t-202 -137t-134.5 -202.5t-46.5 -237.5zM469 291v40q72 3 99.5 24.5t27.5 76.5v516q0 55 -26 76t-101 25 v43h393q147 0 232.5 -54.5t85.5 -146.5q0 -76 -69.5 -124t-217.5 -75q93 -29 142 -77.5t71 -133.5q6 -22 11 -63q13 -88 59 -88q32 0 49.5 34t17.5 99h43v-12q0 -88 -40.5 -133.5t-119.5 -45.5q-46 0 -78.5 17t-48.5 49q-18 40 -21 113.5t-9 95.5q-20 68 -70.5 100.5 t-136.5 32.5h-33v-248q0 -54 26.5 -75.5t98.5 -25.5v-40h-385zM729 719q16 -1 32 -1.5t34 -0.5q112 0 173.5 45.5t61.5 128.5q0 73 -53 117.5t-143 44.5q-52 0 -78.5 -18.5t-26.5 -53.5v-262z" />
<glyph unicode="&#xaf;" horiz-adv-x="1024" d="M332 1182l16 118h496l-19 -118h-493z" />
<glyph unicode="&#xb0;" horiz-adv-x="674" d="M55 1171q0 119 82.5 201t200.5 82q117 0 200 -83t83 -200q0 -116 -83.5 -199t-201.5 -83t-199.5 82t-81.5 200zM135 1171q0 -84 59.5 -143t143.5 -59t142.5 59t58.5 143t-58.5 142.5t-142.5 58.5t-143.5 -58.5t-59.5 -142.5z" />
<glyph unicode="&#xb1;" horiz-adv-x="1706" d="M254 41v117h1198v-117h-1198zM254 719v117h541v344h118v-344h539v-117h-539v-344h-118v344h-541z" />
<glyph unicode="&#xb2;" horiz-adv-x="594" d="M-35 494q6 60 38 111t106 110q31 24 87 68q240 185 240 272q0 61 -38.5 93t-112.5 32q-18 0 -38 -1.5t-47 -5.5l-50 -100h-64l18 137q57 22 107 32.5t98 10.5q112 0 177 -50t65 -134q0 -120 -198 -268l-27 -21l-189 -137q-18 -13 -29.5 -27t-19.5 -32h277l49 92h63 l-28 -182h-484z" />
<glyph unicode="&#xb3;" horiz-adv-x="594" d="M-14 526l8 62q52 -15 97.5 -22t88.5 -7q104 0 158.5 39.5t54.5 114.5q0 67 -45 101t-135 34q-13 0 -19.5 -0.5t-12.5 -1.5l12 67h20q99 0 155 39.5t56 108.5q0 56 -34.5 89.5t-92.5 33.5q-20 0 -41 -2.5t-49 -7.5l-55 -101h-62l19 135q54 23 103.5 34t96.5 11 q110 0 166.5 -46.5t56.5 -137.5q0 -70 -47.5 -121.5t-128.5 -68.5q68 -13 108 -59t40 -113q0 -100 -82.5 -164t-212.5 -64q-56 0 -111 11.5t-112 35.5z" />
<glyph unicode="&#xb4;" horiz-adv-x="1024" d="M463 1114l285 291l141 -55l-338 -267z" />
<glyph unicode="&#xb5;" horiz-adv-x="1120" d="M-80 -330q0 40 64.5 273.5t105.5 427.5l109 514h147l-104 -492q-6 -30 -9.5 -58.5t-3.5 -53.5q0 -83 42 -129t118 -46q98 0 163.5 68.5t94.5 200.5l111 510h149l-114 -531q-13 -59 -17 -87.5t-4 -49.5q0 -48 26 -78t66 -30q35 0 65.5 18t51.5 51t41 93.5t39 60.5 q12 0 19 -10t7 -27q0 -25 -11 -66.5t-29 -83.5q-38 -82 -95 -122.5t-135 -40.5q-68 0 -108.5 51t-40.5 139v23q-46 -110 -116 -164t-165 -54q-96 0 -152.5 54.5t-70.5 161.5q-27 -136 -52 -339q-34 -272 -112 -272q-37 0 -58.5 23.5t-21.5 64.5z" />
<glyph unicode="&#xb6;" horiz-adv-x="1024" d="M76 1130q0 157 107.5 253t285.5 96h479v-78h-125v-1401h-94v1401h-182v-1401h-96v782q-173 8 -274 102.5t-101 245.5z" />
<glyph unicode="&#xb7;" horiz-adv-x="455" d="M117 600q0 72 30 106.5t93 34.5q51 0 73.5 -26t22.5 -86q0 -64 -32.5 -98.5t-92.5 -34.5q-50 0 -72 24.5t-22 79.5z" />
<glyph unicode="&#xb8;" horiz-adv-x="1024" d="M242 -346q73 42 108 82.5t35 83.5q0 20 -12 36t-33 23l20 121h91l-13 -74q43 -12 64.5 -39.5t21.5 -70.5q0 -74 -57 -134t-170 -104z" />
<glyph unicode="&#xb9;" horiz-adv-x="594" d="M102 494l11 53l106 22l86 566q-36 -15 -86.5 -23.5t-113.5 -11.5l8 55q80 14 142 38.5t107 59.5h66l-106 -684l108 -22l-8 -53h-320z" />
<glyph unicode="&#xba;" horiz-adv-x="700" d="M35 807q0 81 30 165.5t80 145.5q51 62 113.5 93.5t134.5 31.5q103 0 167.5 -70t64.5 -182q0 -189 -100.5 -316.5t-245.5 -127.5q-112 0 -178 70.5t-66 189.5zM164 809q0 -85 34 -130.5t97 -45.5q85 0 146 102t61 246q0 83 -34.5 129.5t-94.5 46.5q-90 0 -149.5 -98.5 t-59.5 -249.5z" />
<glyph unicode="&#xbb;" horiz-adv-x="807" d="M33 127l209 356l-103 357h101l145 -357l-250 -356h-102zM360 127l209 356l-102 357h100l146 -357l-252 -356h-101z" />
<glyph unicode="&#xbc;" horiz-adv-x="1477" d="M96 545l10 51l103 20l82 527q-32 -14 -80.5 -21.5t-111.5 -9.5l7 49q77 14 136.5 36.5t103.5 55.5h62l-101 -637l105 -20l-9 -51h-307zM242 252l950 792l43 -51l-948 -796zM918 207l10 74l405 428h74l-70 -435h90l-14 -67h-88l-20 -135l102 -21l-8 -51h-301l8 51l108 21 l21 135h-317zM1016 274h229l47 295z" />
<glyph unicode="&#xbd;" horiz-adv-x="1477" d="M96 545l10 51l103 20l82 527q-32 -14 -80.5 -21.5t-111.5 -9.5l7 49q77 14 136.5 36.5t103.5 55.5h62l-101 -637l105 -20l-9 -51h-307zM242 252l950 792l43 -51l-948 -796zM877 0q5 57 36 105t101 102q31 24 87 66q224 170 224 251q0 57 -36.5 86t-108.5 29q-28 0 -45 -1 t-33 -3l-51 -94h-60l19 127q54 20 102 30.5t92 10.5q106 0 168 -47t62 -125q0 -114 -198 -258l-15 -11l-181 -129q-22 -18 -31 -29t-16 -26h262l50 86h59l-27 -170h-460z" />
<glyph unicode="&#xbe;" horiz-adv-x="1477" d="M-14 575l8 58q55 -14 97 -20.5t81 -6.5q99 0 151 37t52 107q0 62 -42.5 93t-127.5 31h-33l10 62h21q96 0 149.5 36.5t53.5 102.5q0 52 -33.5 82.5t-89.5 30.5q-29 0 -81 -8h-5l-52 -95h-59l18 127q54 21 101.5 31t89.5 10q106 0 159.5 -42.5t53.5 -127.5 q0 -67 -45.5 -115.5t-122.5 -64.5q65 -10 102 -53t37 -107q0 -93 -77.5 -153t-202.5 -60q-52 0 -103.5 11t-109.5 34zM242 252l950 792l43 -51l-948 -796zM918 207l10 74l405 428h74l-70 -435h90l-14 -67h-88l-20 -135l102 -21l-8 -51h-301l8 51l108 21l21 135h-317z M1016 274h229l47 295z" />
<glyph unicode="&#xbf;" horiz-adv-x="848" d="M47 260q0 89 52 177.5t233 271.5q7 7 24 23q107 103 111 226h127q-2 -81 -23 -139t-75 -123q-32 -38 -90 -104q-183 -209 -183 -311q0 -83 56.5 -132t152.5 -49q23 0 51 3t62 10l80 161h100l-33 -227q-82 -36 -158 -54t-151 -18q-153 0 -244.5 78t-91.5 207zM453 1143 q0 60 31 91.5t91 31.5q51 0 74 -24.5t23 -78.5q0 -57 -32 -88t-91 -31q-50 0 -73 24t-23 75z" />
<glyph unicode="&#xc0;" horiz-adv-x="1118" d="M-92 0l12 90l111 37l565 1114h180l150 -1114l104 -37l-12 -90h-375l12 90l113 37l-41 342h-379l-158 -342l105 -37l-12 -90h-375zM397 575h314l-64 521zM477 1636l148 64l141 -291l-80 -31z" />
<glyph unicode="&#xc1;" horiz-adv-x="1118" d="M-92 0l12 90l111 37l565 1114h180l150 -1114l104 -37l-12 -90h-375l12 90l113 37l-41 342h-379l-158 -342l105 -37l-12 -90h-375zM397 575h314l-64 521zM553 1409l285 291l141 -55l-338 -267z" />
<glyph unicode="&#xc2;" horiz-adv-x="1118" d="M-92 0l12 90l111 37l565 1114h180l150 -1114l104 -37l-12 -90h-375l12 90l113 37l-41 342h-379l-158 -342l105 -37l-12 -90h-375zM379 1409l321 291l256 -291l-71 -31l-201 158l-227 -158zM397 575h314l-64 521z" />
<glyph unicode="&#xc3;" horiz-adv-x="1118" d="M-92 0l12 90l111 37l565 1114h180l150 -1114l104 -37l-12 -90h-375l12 90l113 37l-41 342h-379l-158 -342l105 -37l-12 -90h-375zM397 575h314l-64 521zM422 1497q43 68 90 102.5t94 34.5q46 0 100 -41t78 -41q22 0 48.5 20t60.5 62l57 -59q-48 -72 -92 -105.5t-90 -33.5 t-101 41t-77 41t-48 -19.5t-61 -60.5z" />
<glyph unicode="&#xc4;" horiz-adv-x="1118" d="M-92 0l12 90l111 37l565 1114h180l150 -1114l104 -37l-12 -90h-375l12 90l113 37l-41 342h-379l-158 -342l105 -37l-12 -90h-375zM397 575h314l-64 521zM442 1493q0 50 29.5 82.5t73.5 32.5q37 0 55 -19t18 -57q0 -54 -26 -84.5t-72 -30.5q-40 0 -59 18.5t-19 57.5z M749 1493q0 50 29.5 82.5t73.5 32.5q37 0 55.5 -19t18.5 -57q0 -53 -27 -84t-74 -31q-40 0 -58 18t-18 58z" />
<glyph unicode="&#xc5;" horiz-adv-x="1118" d="M-92 0l12 90l111 37l565 1114h180l150 -1114l104 -37l-12 -90h-375l12 90l113 37l-41 342h-379l-158 -342l105 -37l-12 -90h-375zM397 575h314l-64 521zM467 1556q0 104 72 176t176 72q103 0 175.5 -72.5t72.5 -175.5q0 -104 -72 -175.5t-176 -71.5q-105 0 -176.5 71.5 t-71.5 175.5zM569 1556q0 -61 43 -105t103 -44t103.5 44t43.5 105t-43.5 104.5t-103.5 43.5t-103 -43t-43 -105z" />
<glyph unicode="&#xc6;" horiz-adv-x="1464" d="M-98 0l12 90l106 37l666 1114h760l-37 -274h-100l-45 161h-336l-68 -473h254l72 148h96l-55 -397h-97l-32 135h-254l-58 -426h355l86 161h100l-39 -276h-815l12 90l146 37l59 414h-266l-229 -414l96 -37l-12 -90h-377zM485 655h220l77 523z" />
<glyph unicode="&#xc7;" horiz-adv-x="1008" d="M76 494q0 325 194 548.5t473 223.5q79 0 151 -17t142 -51l-30 -231h-103l-37 163q-32 6 -55.5 8.5t-40.5 2.5q-221 0 -371.5 -181t-150.5 -450q0 -178 92 -281.5t250 -103.5q62 0 140 13.5t163 39.5l-16 -110q-84 -45 -174.5 -69t-178.5 -24q-200 0 -324 142.5 t-124 376.5zM365 -346q73 42 108 82.5t35 83.5q0 20 -12 36t-33 23l20 121h91l-13 -74q43 -12 64.5 -39.5t21.5 -70.5q0 -74 -57 -134t-170 -104z" />
<glyph unicode="&#xc8;" horiz-adv-x="963" d="M-29 0l13 90l143 37l139 987l-133 37l12 90h799l-39 -274h-100l-45 161h-334l-64 -448h254l72 147h96l-55 -397h-96l-33 135h-254l-63 -450h356l84 161h102l-39 -276h-815zM399 1636l148 64l141 -291l-80 -31z" />
<glyph unicode="&#xc9;" horiz-adv-x="963" d="M-29 0l13 90l143 37l139 987l-133 37l12 90h799l-39 -274h-100l-45 161h-334l-64 -448h254l72 147h96l-55 -397h-96l-33 135h-254l-63 -450h356l84 161h102l-39 -276h-815zM475 1409l285 291l141 -55l-338 -267z" />
<glyph unicode="&#xca;" horiz-adv-x="963" d="M-29 0l13 90l143 37l139 987l-133 37l12 90h799l-39 -274h-100l-45 161h-334l-64 -448h254l72 147h96l-55 -397h-96l-33 135h-254l-63 -450h356l84 161h102l-39 -276h-815zM301 1409l321 291l256 -291l-71 -31l-201 158l-227 -158z" />
<glyph unicode="&#xcb;" horiz-adv-x="963" d="M-29 0l13 90l143 37l139 987l-133 37l12 90h799l-39 -274h-100l-45 161h-334l-64 -448h254l72 147h96l-55 -397h-96l-33 135h-254l-63 -450h356l84 161h102l-39 -276h-815zM364 1493q0 50 29.5 82.5t73.5 32.5q37 0 55 -19t18 -57q0 -54 -26 -84.5t-72 -30.5 q-40 0 -59 18.5t-19 57.5zM671 1493q0 50 29.5 82.5t73.5 32.5q37 0 55.5 -19t18.5 -57q0 -53 -27 -84t-74 -31q-40 0 -58 18t-18 58z" />
<glyph unicode="&#xcc;" horiz-adv-x="551" d="M-29 0l13 90l143 37l139 987l-133 37l12 90h437l-15 -90l-143 -37l-139 -987l135 -37l-14 -90h-435zM192 1636l148 64l141 -291l-80 -31z" />
<glyph unicode="&#xcd;" horiz-adv-x="551" d="M-29 0l13 90l143 37l139 987l-133 37l12 90h437l-15 -90l-143 -37l-139 -987l135 -37l-14 -90h-435zM268 1409l285 291l141 -55l-338 -267z" />
<glyph unicode="&#xce;" horiz-adv-x="551" d="M-29 0l13 90l143 37l139 987l-133 37l12 90h437l-15 -90l-143 -37l-139 -987l135 -37l-14 -90h-435zM94 1409l321 291l256 -291l-71 -31l-201 158l-227 -158z" />
<glyph unicode="&#xcf;" horiz-adv-x="551" d="M-29 0l13 90l143 37l139 987l-133 37l12 90h437l-15 -90l-143 -37l-139 -987l135 -37l-14 -90h-435zM157 1493q0 50 29.5 82.5t73.5 32.5q37 0 55 -19t18 -57q0 -54 -26 -84.5t-72 -30.5q-40 0 -59 18.5t-19 57.5zM464 1493q0 50 29.5 82.5t73.5 32.5q37 0 55.5 -19 t18.5 -57q0 -53 -27 -84t-74 -31q-40 0 -58 18t-18 58z" />
<glyph unicode="&#xd0;" horiz-adv-x="1241" d="M18 0l13 90l143 37l66 455h-140l13 110h143l57 422l-133 37l13 90h337q166 0 255.5 -17.5t158.5 -58.5q106 -62 162.5 -175t56.5 -263q0 -171 -58.5 -319t-164.5 -246q-91 -85 -207.5 -123.5t-290.5 -38.5h-424zM330 115h116q255 0 400 164t145 450q0 201 -105.5 300 t-318.5 99h-94l-63 -436h301l-17 -110h-299z" />
<glyph unicode="&#xd1;" horiz-adv-x="1237" d="M-29 0l13 90l143 37l139 987l-133 37l12 90h306l421 -975l119 848l-133 37l12 90h408l-14 -90l-144 -37l-155 -1114h-134l-444 1036l-129 -909l129 -37l-14 -90h-402zM482 1497q43 68 90 102.5t94 34.5q46 0 100 -41t78 -41q22 0 48.5 20t60.5 62l57 -59 q-48 -72 -92 -105.5t-90 -33.5t-101 41t-77 41t-48 -19.5t-61 -60.5z" />
<glyph unicode="&#xd2;" horiz-adv-x="1157" d="M76 489q0 340 164.5 558.5t416.5 218.5q192 0 307 -142.5t115 -382.5q0 -326 -162.5 -548t-400.5 -222q-205 0 -322.5 138.5t-117.5 379.5zM250 492q0 -188 71 -290t201 -102q162 0 272.5 185.5t110.5 459.5q0 196 -68 295t-202 99q-163 0 -274 -186.5t-111 -460.5z M496 1636l148 64l141 -291l-80 -31z" />
<glyph unicode="&#xd3;" horiz-adv-x="1157" d="M76 489q0 340 164.5 558.5t416.5 218.5q192 0 307 -142.5t115 -382.5q0 -326 -162.5 -548t-400.5 -222q-205 0 -322.5 138.5t-117.5 379.5zM250 492q0 -188 71 -290t201 -102q162 0 272.5 185.5t110.5 459.5q0 196 -68 295t-202 99q-163 0 -274 -186.5t-111 -460.5z M572 1409l285 291l141 -55l-338 -267z" />
<glyph unicode="&#xd4;" horiz-adv-x="1157" d="M76 489q0 340 164.5 558.5t416.5 218.5q192 0 307 -142.5t115 -382.5q0 -326 -162.5 -548t-400.5 -222q-205 0 -322.5 138.5t-117.5 379.5zM250 492q0 -188 71 -290t201 -102q162 0 272.5 185.5t110.5 459.5q0 196 -68 295t-202 99q-163 0 -274 -186.5t-111 -460.5z M398 1409l321 291l256 -291l-71 -31l-201 158l-227 -158z" />
<glyph unicode="&#xd5;" horiz-adv-x="1157" d="M76 489q0 340 164.5 558.5t416.5 218.5q192 0 307 -142.5t115 -382.5q0 -326 -162.5 -548t-400.5 -222q-205 0 -322.5 138.5t-117.5 379.5zM250 492q0 -188 71 -290t201 -102q162 0 272.5 185.5t110.5 459.5q0 196 -68 295t-202 99q-163 0 -274 -186.5t-111 -460.5z M441 1497q43 68 90 102.5t94 34.5q46 0 100 -41t78 -41q22 0 48.5 20t60.5 62l57 -59q-48 -72 -92 -105.5t-90 -33.5t-101 41t-77 41t-48 -19.5t-61 -60.5z" />
<glyph unicode="&#xd6;" horiz-adv-x="1157" d="M76 489q0 340 164.5 558.5t416.5 218.5q192 0 307 -142.5t115 -382.5q0 -326 -162.5 -548t-400.5 -222q-205 0 -322.5 138.5t-117.5 379.5zM250 492q0 -188 71 -290t201 -102q162 0 272.5 185.5t110.5 459.5q0 196 -68 295t-202 99q-163 0 -274 -186.5t-111 -460.5z M461 1493q0 50 29.5 82.5t73.5 32.5q37 0 55 -19t18 -57q0 -54 -26 -84.5t-72 -30.5q-40 0 -59 18.5t-19 57.5zM768 1493q0 50 29.5 82.5t73.5 32.5q37 0 55.5 -19t18.5 -57q0 -53 -27 -84t-74 -31q-40 0 -58 18t-18 58z" />
<glyph unicode="&#xd7;" horiz-adv-x="1706" d="M301 135l475 475l-475 477l80 82l477 -477l475 477l82 -82l-475 -477l475 -475l-82 -82l-475 475l-477 -475z" />
<glyph unicode="&#xd8;" horiz-adv-x="1157" d="M39 -49l133 184q-46 61 -69 152.5t-23 210.5q0 337 162.5 552.5t414.5 215.5q69 0 131 -21t121 -65l123 174l88 -60l-135 -192q48 -77 71 -168.5t23 -200.5q0 -151 -47.5 -298.5t-132.5 -262.5q-72 -96 -170.5 -147.5t-212.5 -51.5q-80 0 -149 22t-123 64l-127 -176z M250 489q0 -59 7 -110.5t22 -99.5l544 784q-33 38 -80 57t-106 19q-165 0 -276 -186.5t-111 -463.5zM336 180q35 -40 81 -60t103 -20q163 0 274 186t111 459q0 61 -6.5 114.5t-20.5 100.5z" />
<glyph unicode="&#xd9;" horiz-adv-x="1186" d="M98 1151l15 90h434l-12 -90l-144 -37l-100 -708q-4 -25 -6 -48.5t-2 -46.5q0 -99 69 -156t191 -57q146 0 218.5 80t102.5 289l90 647l-137 37l12 90h416l-12 -90l-143 -37l-84 -596l-1 -4q-43 -298 -118 -395q-56 -70 -150 -107t-219 -37q-176 0 -285.5 83.5 t-109.5 215.5q0 27 3.5 67.5t10.5 92.5l96 680zM510 1636l148 64l141 -291l-80 -31z" />
<glyph unicode="&#xda;" horiz-adv-x="1186" d="M98 1151l15 90h434l-12 -90l-144 -37l-100 -708q-4 -25 -6 -48.5t-2 -46.5q0 -99 69 -156t191 -57q146 0 218.5 80t102.5 289l90 647l-137 37l12 90h416l-12 -90l-143 -37l-84 -596l-1 -4q-43 -298 -118 -395q-56 -70 -150 -107t-219 -37q-176 0 -285.5 83.5 t-109.5 215.5q0 27 3.5 67.5t10.5 92.5l96 680zM586 1409l285 291l141 -55l-338 -267z" />
<glyph unicode="&#xdb;" horiz-adv-x="1186" d="M98 1151l15 90h434l-12 -90l-144 -37l-100 -708q-4 -25 -6 -48.5t-2 -46.5q0 -99 69 -156t191 -57q146 0 218.5 80t102.5 289l90 647l-137 37l12 90h416l-12 -90l-143 -37l-84 -596l-1 -4q-43 -298 -118 -395q-56 -70 -150 -107t-219 -37q-176 0 -285.5 83.5 t-109.5 215.5q0 27 3.5 67.5t10.5 92.5l96 680zM412 1409l321 291l256 -291l-71 -31l-201 158l-227 -158z" />
<glyph unicode="&#xdc;" horiz-adv-x="1186" d="M98 1151l15 90h434l-12 -90l-144 -37l-100 -708q-4 -25 -6 -48.5t-2 -46.5q0 -99 69 -156t191 -57q146 0 218.5 80t102.5 289l90 647l-137 37l12 90h416l-12 -90l-143 -37l-84 -596l-1 -4q-43 -298 -118 -395q-56 -70 -150 -107t-219 -37q-176 0 -285.5 83.5 t-109.5 215.5q0 27 3.5 67.5t10.5 92.5l96 680zM475 1493q0 50 29.5 82.5t73.5 32.5q37 0 55 -19t18 -57q0 -54 -26 -84.5t-72 -30.5q-40 0 -59 18.5t-19 57.5zM782 1493q0 50 29.5 82.5t73.5 32.5q37 0 55.5 -19t18.5 -57q0 -53 -27 -84t-74 -31q-40 0 -58 18t-18 58z" />
<glyph unicode="&#xdd;" horiz-adv-x="1051" d="M90 1151l14 90h392l-13 -90l-114 -37l161 -459l297 459l-104 37l12 90h379l-14 -90l-115 -37l-403 -592l-58 -395l160 -37l-14 -90h-484l13 90l168 37l55 385l-225 602zM518 1409l285 291l141 -55l-338 -267z" />
<glyph unicode="&#xde;" horiz-adv-x="930" d="M-29 0l13 90l143 37l139 987l-133 37l12 90h437l-15 -90l-143 -37l-14 -113l6 1q59 4 86 4q208 0 307.5 -75.5t99.5 -232.5q0 -178 -112.5 -286.5t-300.5 -108.5q-21 0 -46.5 2.5t-62.5 8.5l12 105q18 -2 34.5 -3.5t29.5 -1.5q128 0 200 70.5t72 195.5q0 107 -57 158 t-178 51h-107l-108 -762l161 -37l-12 -90h-463z" />
<glyph unicode="&#xdf;" horiz-adv-x="1096" d="M-326 -414l31 181h100l35 -109q111 9 165 83.5t87 315.5l137 985q25 172 128 255t290 83q158 0 251 -67t93 -178q0 -75 -48 -135.5t-150 -116.5l-27 -15q-123 -67 -123 -147q0 -66 128 -159q31 -23 48 -36q72 -55 105.5 -114t33.5 -131q0 -137 -90 -219t-239 -82 q-56 0 -114.5 14.5t-123.5 44.5l29 188h102l41 -133q11 -1 28.5 -3.5t24.5 -2.5q86 0 137.5 46t51.5 120q0 73 -145 184h-1q-112 87 -141 135.5t-29 114.5q0 76 34.5 131t108.5 100q16 10 42 26q151 90 151 179q0 66 -50 108t-130 42q-124 0 -186.5 -55t-81.5 -183 l-139 -975q-41 -282 -137.5 -394.5t-282.5 -112.5q-40 0 -75.5 8t-68.5 24z" />
<glyph unicode="&#xe0;" horiz-adv-x="981" d="M57 289q0 284 134.5 482t326.5 198q47 0 85.5 -13t78.5 -43l164 56l-133 -836h155l-14 -86l-131 -41q-4 -1 -14 -4q-60 -18 -82 -18q-38 0 -59 18t-21 49q0 5 5 37q3 19 5 31l6 55q-74 -95 -151.5 -146t-149.5 -51q-98 0 -151.5 81t-53.5 231zM215 295q0 -86 27 -130 t80 -44q42 0 109.5 42.5t152.5 123.5l82 522q-33 20 -63.5 29.5t-63.5 9.5q-143 0 -233.5 -154.5t-90.5 -398.5zM367 1341l148 64l141 -291l-80 -31z" />
<glyph unicode="&#xe1;" horiz-adv-x="981" d="M57 289q0 284 134.5 482t326.5 198q47 0 85.5 -13t78.5 -43l164 56l-133 -836h155l-14 -86l-131 -41q-4 -1 -14 -4q-60 -18 -82 -18q-38 0 -59 18t-21 49q0 5 5 37q3 19 5 31l6 55q-74 -95 -151.5 -146t-149.5 -51q-98 0 -151.5 81t-53.5 231zM215 295q0 -86 27 -130 t80 -44q42 0 109.5 42.5t152.5 123.5l82 522q-33 20 -63.5 29.5t-63.5 9.5q-143 0 -233.5 -154.5t-90.5 -398.5zM443 1114l285 291l141 -55l-338 -267z" />
<glyph unicode="&#xe2;" horiz-adv-x="981" d="M57 289q0 284 134.5 482t326.5 198q47 0 85.5 -13t78.5 -43l164 56l-133 -836h155l-14 -86l-131 -41q-4 -1 -14 -4q-60 -18 -82 -18q-38 0 -59 18t-21 49q0 5 5 37q3 19 5 31l6 55q-74 -95 -151.5 -146t-149.5 -51q-98 0 -151.5 81t-53.5 231zM215 295q0 -86 27 -130 t80 -44q42 0 109.5 42.5t152.5 123.5l82 522q-33 20 -63.5 29.5t-63.5 9.5q-143 0 -233.5 -154.5t-90.5 -398.5zM269 1114l321 291l256 -291l-71 -31l-201 158l-227 -158z" />
<glyph unicode="&#xe3;" horiz-adv-x="981" d="M57 289q0 284 134.5 482t326.5 198q47 0 85.5 -13t78.5 -43l164 56l-133 -836h155l-14 -86l-131 -41q-4 -1 -14 -4q-60 -18 -82 -18q-38 0 -59 18t-21 49q0 5 5 37q3 19 5 31l6 55q-74 -95 -151.5 -146t-149.5 -51q-98 0 -151.5 81t-53.5 231zM215 295q0 -86 27 -130 t80 -44q42 0 109.5 42.5t152.5 123.5l82 522q-33 20 -63.5 29.5t-63.5 9.5q-143 0 -233.5 -154.5t-90.5 -398.5zM312 1202q43 68 90 102.5t94 34.5q46 0 100 -41t78 -41q22 0 48.5 20t60.5 62l57 -59q-48 -72 -92 -105.5t-90 -33.5t-101 41t-77 41t-48 -19.5t-61 -60.5z" />
<glyph unicode="&#xe4;" horiz-adv-x="981" d="M57 289q0 284 134.5 482t326.5 198q47 0 85.5 -13t78.5 -43l164 56l-133 -836h155l-14 -86l-131 -41q-4 -1 -14 -4q-60 -18 -82 -18q-38 0 -59 18t-21 49q0 5 5 37q3 19 5 31l6 55q-74 -95 -151.5 -146t-149.5 -51q-98 0 -151.5 81t-53.5 231zM215 295q0 -86 27 -130 t80 -44q42 0 109.5 42.5t152.5 123.5l82 522q-33 20 -63.5 29.5t-63.5 9.5q-143 0 -233.5 -154.5t-90.5 -398.5zM332 1198q0 50 29.5 82.5t73.5 32.5q37 0 55 -19t18 -57q0 -54 -26 -84.5t-72 -30.5q-40 0 -59 18.5t-19 57.5zM639 1198q0 50 29.5 82.5t73.5 32.5 q37 0 55.5 -19t18.5 -57q0 -53 -27 -84t-74 -31q-40 0 -58 18t-18 58z" />
<glyph unicode="&#xe5;" horiz-adv-x="981" d="M57 289q0 284 134.5 482t326.5 198q47 0 85.5 -13t78.5 -43l164 56l-133 -836h155l-14 -86l-131 -41q-4 -1 -14 -4q-60 -18 -82 -18q-38 0 -59 18t-21 49q0 5 5 37q3 19 5 31l6 55q-74 -95 -151.5 -146t-149.5 -51q-98 0 -151.5 81t-53.5 231zM215 295q0 -86 27 -130 t80 -44q42 0 109.5 42.5t152.5 123.5l82 522q-33 20 -63.5 29.5t-63.5 9.5q-143 0 -233.5 -154.5t-90.5 -398.5zM317 1288q0 104 72 176t176 72q103 0 175.5 -72.5t72.5 -175.5q0 -104 -71.5 -176t-176.5 -72q-104 0 -176 72t-72 176zM420 1288q0 -61 43.5 -105t103.5 -44 t103 44t43 105t-43 104.5t-103 43.5t-103.5 -43.5t-43.5 -104.5z" />
<glyph unicode="&#xe6;" horiz-adv-x="1229" d="M10 217q0 147 113.5 229t318.5 82q28 0 82 -3l6 -1l23 144q6 38 8 57.5t2 30.5q0 53 -32 76.5t-103 23.5q-21 0 -37.5 -1t-34.5 -3l-90 -127h-114l26 168q75 36 149 54t148 18q84 0 137.5 -22.5t85.5 -72.5q52 50 117.5 75.5t142.5 25.5q107 0 164.5 -55.5t57.5 -157.5 q0 -142 -118 -222.5t-329 -80.5q-29 0 -44.5 0.5t-28.5 1.5q-5 -38 -7 -68.5t-2 -50.5q0 -111 41.5 -168t122.5 -57q48 0 102.5 24t118.5 74l56 -74q-70 -77 -154.5 -118.5t-173.5 -41.5q-85 0 -145 36t-91 106q-44 -62 -116.5 -98.5t-151.5 -36.5q-114 0 -182 63.5 t-68 169.5zM176 229q0 -59 32 -94t87 -35q103 0 152.5 72t66.5 252q-11 1 -23 1.5t-34 0.5q-139 0 -210 -49.5t-71 -147.5zM678 563q11 -1 22.5 -1.5t34.5 -0.5q150 0 222.5 47.5t72.5 145.5q0 49 -29.5 77.5t-80.5 28.5q-90 0 -152.5 -76.5t-89.5 -220.5z" />
<glyph unicode="&#xe7;" horiz-adv-x="758" d="M49 344q0 275 136.5 451t349.5 176q56 0 107.5 -13t102.5 -40l-28 -179h-103l-39 119h-34q-145 0 -235.5 -142.5t-90.5 -369.5q0 -114 37 -171.5t110 -57.5q46 0 103.5 25t124.5 73l53 -74q-79 -78 -163 -118.5t-169 -40.5q-125 0 -193.5 94t-68.5 268zM158 -346 q73 42 108 82.5t35 83.5q0 20 -12 36t-33 23l20 121h91l-13 -74q43 -12 64.5 -39.5t21.5 -70.5q0 -74 -57 -134t-170 -104z" />
<glyph unicode="&#xe8;" horiz-adv-x="793" d="M55 311q0 291 131 475.5t334 184.5q107 0 164 -55t57 -158q0 -142 -118 -222.5t-328 -80.5q-29 0 -44.5 0.5t-29.5 0.5q-4 -37 -6 -67.5t-2 -50.5q0 -111 41.5 -168t122.5 -57q49 0 104.5 24t118.5 74l53 -74q-69 -77 -154 -118.5t-173 -41.5q-132 0 -201.5 85.5 t-69.5 248.5zM238 563q11 -1 22.5 -1.5t34.5 -0.5q150 0 223.5 47.5t73.5 145.5q0 49 -29.5 77.5t-81.5 28.5q-89 0 -152.5 -77t-90.5 -220zM307 1341l148 64l141 -291l-80 -31z" />
<glyph unicode="&#xe9;" horiz-adv-x="793" d="M55 311q0 291 131 475.5t334 184.5q107 0 164 -55t57 -158q0 -142 -118 -222.5t-328 -80.5q-29 0 -44.5 0.5t-29.5 0.5q-4 -37 -6 -67.5t-2 -50.5q0 -111 41.5 -168t122.5 -57q49 0 104.5 24t118.5 74l53 -74q-69 -77 -154 -118.5t-173 -41.5q-132 0 -201.5 85.5 t-69.5 248.5zM238 563q11 -1 22.5 -1.5t34.5 -0.5q150 0 223.5 47.5t73.5 145.5q0 49 -29.5 77.5t-81.5 28.5q-89 0 -152.5 -77t-90.5 -220zM383 1114l285 291l141 -55l-338 -267z" />
<glyph unicode="&#xea;" horiz-adv-x="793" d="M55 311q0 291 131 475.5t334 184.5q107 0 164 -55t57 -158q0 -142 -118 -222.5t-328 -80.5q-29 0 -44.5 0.5t-29.5 0.5q-4 -37 -6 -67.5t-2 -50.5q0 -111 41.5 -168t122.5 -57q49 0 104.5 24t118.5 74l53 -74q-69 -77 -154 -118.5t-173 -41.5q-132 0 -201.5 85.5 t-69.5 248.5zM209 1114l321 291l256 -291l-71 -31l-201 158l-227 -158zM238 563q11 -1 22.5 -1.5t34.5 -0.5q150 0 223.5 47.5t73.5 145.5q0 49 -29.5 77.5t-81.5 28.5q-89 0 -152.5 -77t-90.5 -220z" />
<glyph unicode="&#xeb;" horiz-adv-x="793" d="M55 311q0 291 131 475.5t334 184.5q107 0 164 -55t57 -158q0 -142 -118 -222.5t-328 -80.5q-29 0 -44.5 0.5t-29.5 0.5q-4 -37 -6 -67.5t-2 -50.5q0 -111 41.5 -168t122.5 -57q49 0 104.5 24t118.5 74l53 -74q-69 -77 -154 -118.5t-173 -41.5q-132 0 -201.5 85.5 t-69.5 248.5zM238 563q11 -1 22.5 -1.5t34.5 -0.5q150 0 223.5 47.5t73.5 145.5q0 49 -29.5 77.5t-81.5 28.5q-89 0 -152.5 -77t-90.5 -220zM272 1198q0 50 29.5 82.5t73.5 32.5q37 0 55 -19t18 -57q0 -54 -26 -84.5t-72 -30.5q-40 0 -59 18.5t-19 57.5zM579 1198 q0 50 29.5 82.5t73.5 32.5q37 0 55.5 -19t18.5 -57q0 -53 -27 -84t-74 -31q-40 0 -58 18t-18 58z" />
<glyph unicode="&#xec;" horiz-adv-x="524" d="M72 846l12 80l309 41l-135 -832h156l-15 -86l-131 -41q-32 -10 -57 -15t-43 -5q-37 0 -54.5 17t-17.5 52q0 10 2 27t4 36l113 697zM108 1341l148 64l141 -291l-80 -31z" />
<glyph unicode="&#xed;" horiz-adv-x="524" d="M72 846l12 80l309 41l-135 -832h156l-15 -86l-131 -41q-32 -10 -57 -15t-43 -5q-37 0 -54.5 17t-17.5 52q0 10 2 27t4 36l113 697zM184 1114l285 291l141 -55l-338 -267z" />
<glyph unicode="&#xee;" horiz-adv-x="524" d="M10 1114l321 291l256 -291l-71 -31l-201 158l-227 -158zM72 846l12 80l309 41l-135 -832h156l-15 -86l-131 -41q-32 -10 -57 -15t-43 -5q-37 0 -54.5 17t-17.5 52q0 10 2 27t4 36l113 697z" />
<glyph unicode="&#xef;" horiz-adv-x="524" d="M72 846l12 80l309 41l-135 -832h156l-15 -86l-131 -41q-32 -10 -57 -15t-43 -5q-37 0 -54.5 17t-17.5 52q0 10 2 27t4 36l113 697zM73 1198q0 50 29.5 82.5t73.5 32.5q37 0 55 -19t18 -57q0 -54 -26 -84.5t-72 -30.5q-40 0 -59 18.5t-19 57.5zM380 1198q0 50 29.5 82.5 t73.5 32.5q37 0 55.5 -19t18.5 -57q0 -53 -27 -84t-74 -31q-40 0 -58 18t-18 58z" />
<glyph unicode="&#xf0;" horiz-adv-x="938" d="M47 340q0 241 130 414.5t315 173.5q44 0 80.5 -13.5t66.5 -40.5q-25 79 -51 141t-51 105l-283 -131l-37 80l281 129q-21 36 -48 76t-61 84l90 65q40 -39 77 -82t71 -88l233 107l35 -82l-223 -98q80 -141 121 -285.5t41 -286.5q0 -276 -132 -453.5t-331 -177.5 q-147 0 -235.5 99t-88.5 264zM219 338q0 -117 45.5 -180.5t128.5 -63.5q114 0 194.5 140t80.5 339q0 113 -45.5 176.5t-124.5 63.5q-120 0 -199.5 -135t-79.5 -340z" />
<glyph unicode="&#xf1;" horiz-adv-x="1038" d="M72 842l12 84l309 41l-26 -156q96 78 180.5 115t165.5 37q78 0 119.5 -40.5t41.5 -115.5q0 -16 -2 -38.5t-8 -60.5l-92 -573h156l-13 -86l-133 -41q-33 -10 -60 -15t-42 -5q-35 0 -52.5 17t-17.5 52q0 10 1.5 25.5t4.5 37.5l93 583q2 12 3 24.5t1 32.5q0 33 -15.5 49 t-48.5 16q-40 0 -103.5 -23.5t-193.5 -88.5l-112 -713h-154l129 817zM324 1202q43 68 90 102.5t94 34.5q46 0 100 -41t78 -41q22 0 48.5 20t60.5 62l57 -59q-48 -72 -92 -105.5t-90 -33.5t-101 41t-77 41t-48 -19.5t-61 -60.5z" />
<glyph unicode="&#xf2;" horiz-adv-x="934" d="M47 348q0 116 39.5 236t106.5 209q67 87 151 132.5t180 45.5q137 0 222 -100t85 -261q0 -269 -133 -451t-327 -182q-149 0 -236.5 100.5t-87.5 270.5zM219 352q0 -122 45.5 -188t128.5 -66q113 0 194 146t81 354q0 117 -45.5 183.5t-124.5 66.5q-121 0 -200 -140 t-79 -356zM342 1341l148 64l141 -291l-80 -31z" />
<glyph unicode="&#xf3;" horiz-adv-x="934" d="M47 348q0 116 39.5 236t106.5 209q67 87 151 132.5t180 45.5q137 0 222 -100t85 -261q0 -269 -133 -451t-327 -182q-149 0 -236.5 100.5t-87.5 270.5zM219 352q0 -122 45.5 -188t128.5 -66q113 0 194 146t81 354q0 117 -45.5 183.5t-124.5 66.5q-121 0 -200 -140 t-79 -356zM418 1114l285 291l141 -55l-338 -267z" />
<glyph unicode="&#xf4;" horiz-adv-x="934" d="M47 348q0 116 39.5 236t106.5 209q67 87 151 132.5t180 45.5q137 0 222 -100t85 -261q0 -269 -133 -451t-327 -182q-149 0 -236.5 100.5t-87.5 270.5zM219 352q0 -122 45.5 -188t128.5 -66q113 0 194 146t81 354q0 117 -45.5 183.5t-124.5 66.5q-121 0 -200 -140 t-79 -356zM244 1114l321 291l256 -291l-71 -31l-201 158l-227 -158z" />
<glyph unicode="&#xf5;" horiz-adv-x="934" d="M47 348q0 116 39.5 236t106.5 209q67 87 151 132.5t180 45.5q137 0 222 -100t85 -261q0 -269 -133 -451t-327 -182q-149 0 -236.5 100.5t-87.5 270.5zM219 352q0 -122 45.5 -188t128.5 -66q113 0 194 146t81 354q0 117 -45.5 183.5t-124.5 66.5q-121 0 -200 -140 t-79 -356zM287 1202q43 68 90 102.5t94 34.5q46 0 100 -41t78 -41q22 0 48.5 20t60.5 62l57 -59q-48 -72 -92 -105.5t-90 -33.5t-101 41t-77 41t-48 -19.5t-61 -60.5z" />
<glyph unicode="&#xf6;" horiz-adv-x="934" d="M47 348q0 116 39.5 236t106.5 209q67 87 151 132.5t180 45.5q137 0 222 -100t85 -261q0 -269 -133 -451t-327 -182q-149 0 -236.5 100.5t-87.5 270.5zM219 352q0 -122 45.5 -188t128.5 -66q113 0 194 146t81 354q0 117 -45.5 183.5t-124.5 66.5q-121 0 -200 -140 t-79 -356zM307 1198q0 50 29.5 82.5t73.5 32.5q37 0 55 -19t18 -57q0 -54 -26 -84.5t-72 -30.5q-40 0 -59 18.5t-19 57.5zM614 1198q0 50 29.5 82.5t73.5 32.5q37 0 55.5 -19t18.5 -57q0 -53 -27 -84t-74 -31q-40 0 -58 18t-18 58z" />
<glyph unicode="&#xf7;" horiz-adv-x="1706" d="M254 553v117h1198v-117h-1198zM739 250q0 48 34 81.5t81 33.5t81 -34t34 -81t-33.5 -81t-81.5 -34t-81.5 33.5t-33.5 81.5zM739 971q0 47 34 80.5t81 33.5q48 0 81.5 -33.5t33.5 -80.5q0 -48 -33.5 -81.5t-81.5 -33.5q-49 0 -82 33.5t-33 81.5z" />
<glyph unicode="&#xf8;" horiz-adv-x="934" d="M-20 -86l137 186q-33 53 -49.5 119.5t-16.5 149.5q0 128 48.5 255t129.5 214q64 66 137.5 99.5t157.5 33.5q57 0 99 -12.5t75 -38.5l107 153l80 -53l-119 -170q32 -53 48.5 -114t16.5 -128q0 -270 -133.5 -450.5t-328.5 -180.5q-51 0 -95.5 14t-85.5 42l-129 -178z M209 354q0 -32 2.5 -59t7.5 -51l397 563q-23 26 -51.5 38.5t-64.5 12.5q-125 0 -208 -144.5t-83 -359.5zM266 141q25 -26 54.5 -38.5t66.5 -12.5q121 0 206 146.5t85 355.5q0 29 -3 58t-9 59z" />
<glyph unicode="&#xf9;" horiz-adv-x="1038" d="M68 842l12 84l307 43l-115 -732q-3 -26 -4.5 -37.5t-1.5 -15.5q0 -36 16 -51.5t54 -15.5q37 0 97 21.5t198 88.5l112 721l158 21l-133 -836h156l-13 -86l-133 -41q-8 -2 -24 -7q-52 -15 -70 -15q-41 0 -59.5 20t-18.5 64q0 9 0.5 15t1.5 11l6 35q-96 -78 -180.5 -115 t-165.5 -37q-78 0 -120 41t-42 117q1 18 3 40.5t8 58.5l94 583zM371 1341l148 64l141 -291l-80 -31z" />
<glyph unicode="&#xfa;" horiz-adv-x="1038" d="M68 842l12 84l307 43l-115 -732q-3 -26 -4.5 -37.5t-1.5 -15.5q0 -36 16 -51.5t54 -15.5q37 0 97 21.5t198 88.5l112 721l158 21l-133 -836h156l-13 -86l-133 -41q-8 -2 -24 -7q-52 -15 -70 -15q-41 0 -59.5 20t-18.5 64q0 9 0.5 15t1.5 11l6 35q-96 -78 -180.5 -115 t-165.5 -37q-78 0 -120 41t-42 117q1 18 3 40.5t8 58.5l94 583zM447 1114l285 291l141 -55l-338 -267z" />
<glyph unicode="&#xfb;" horiz-adv-x="1038" d="M68 842l12 84l307 43l-115 -732q-3 -26 -4.5 -37.5t-1.5 -15.5q0 -36 16 -51.5t54 -15.5q37 0 97 21.5t198 88.5l112 721l158 21l-133 -836h156l-13 -86l-133 -41q-8 -2 -24 -7q-52 -15 -70 -15q-41 0 -59.5 20t-18.5 64q0 9 0.5 15t1.5 11l6 35q-96 -78 -180.5 -115 t-165.5 -37q-78 0 -120 41t-42 117q1 18 3 40.5t8 58.5l94 583zM273 1114l321 291l256 -291l-71 -31l-201 158l-227 -158z" />
<glyph unicode="&#xfc;" horiz-adv-x="1038" d="M68 842l12 84l307 43l-115 -732q-3 -26 -4.5 -37.5t-1.5 -15.5q0 -36 16 -51.5t54 -15.5q37 0 97 21.5t198 88.5l112 721l158 21l-133 -836h156l-13 -86l-133 -41q-8 -2 -24 -7q-52 -15 -70 -15q-41 0 -59.5 20t-18.5 64q0 9 0.5 15t1.5 11l6 35q-96 -78 -180.5 -115 t-165.5 -37q-78 0 -120 41t-42 117q1 18 3 40.5t8 58.5l94 583zM336 1198q0 50 29.5 82.5t73.5 32.5q37 0 55 -19t18 -57q0 -54 -26 -84.5t-72 -30.5q-40 0 -59 18.5t-19 57.5zM643 1198q0 50 29.5 82.5t73.5 32.5q37 0 55.5 -19t18.5 -57q0 -53 -27 -84t-74 -31 q-40 0 -58 18t-18 58z" />
<glyph unicode="&#xfd;" horiz-adv-x="891" d="M-61 -422l30 189h101l37 -111q17 1 33.5 19t39.5 67l129 264l-162 811l-143 25l12 84l260 43l134 -764l284 612l-129 25l15 84l309 43l-12 -86l-570 -1139q-56 -111 -106.5 -150.5t-122.5 -39.5q-35 0 -69.5 6t-69.5 18zM397 1114l285 291l141 -55l-338 -267z" />
<glyph unicode="&#xfe;" horiz-adv-x="963" d="M-141 -422l14 90l139 43l242 1520l-152 26l13 80l315 43l-98 -620q91 108 169 159.5t152 51.5q99 0 151 -82t52 -238q0 -279 -134.5 -475t-326.5 -196q-50 0 -92 15.5t-84 49.5l-53 -334l160 -43l-15 -90h-452zM236 139q39 -20 74 -30.5t67 -10.5q139 0 229 154.5 t90 392.5q0 86 -27 130t-79 44q-37 0 -98 -36.5t-175 -129.5z" />
<glyph unicode="&#xff;" horiz-adv-x="891" d="M-61 -422l30 189h101l37 -111q17 1 33.5 19t39.5 67l129 264l-162 811l-143 25l12 84l260 43l134 -764l284 612l-129 25l15 84l309 43l-12 -86l-570 -1139q-56 -111 -106.5 -150.5t-122.5 -39.5q-35 0 -69.5 6t-69.5 18zM286 1198q0 50 29.5 82.5t73.5 32.5q37 0 55 -19 t18 -57q0 -54 -26 -84.5t-72 -30.5q-40 0 -59 18.5t-19 57.5zM593 1198q0 50 29.5 82.5t73.5 32.5q37 0 55.5 -19t18.5 -57q0 -53 -27 -84t-74 -31q-40 0 -58 18t-18 58z" />
<glyph unicode="&#x152;" horiz-adv-x="1526" d="M76 489q0 340 164.5 558.5t416.5 218.5q30 0 65 -6.5t73 -18.5h712l-37 -274h-100l-45 161h-328l-63 -448h246l71 147h99l-58 -397h-96l-33 135h-245l-62 -450h346l86 161h101l-39 -276h-682q-44 -14 -84.5 -20.5t-81.5 -6.5q-195 0 -310.5 139.5t-115.5 376.5zM250 492 q0 -188 70 -290t198 -102q54 0 101 18t86 54l124 883q-31 42 -76 63t-106 21q-172 0 -284.5 -184t-112.5 -463z" />
<glyph unicode="&#x153;" horiz-adv-x="1354" d="M47 348q0 114 39.5 234.5t106.5 210.5q65 87 149.5 132.5t181.5 45.5q79 0 145.5 -44t96.5 -116q66 80 144.5 120t170.5 40q108 0 166 -55t58 -158q0 -142 -119 -222.5t-330 -80.5q-29 0 -44.5 0.5t-29.5 0.5q-4 -37 -6 -67.5t-2 -50.5q0 -110 42.5 -167.5t123.5 -57.5 q48 0 102.5 24t118.5 74l56 -74q-71 -78 -156 -119t-176 -41q-86 0 -143 35t-91 109q-52 -68 -127.5 -104.5t-161.5 -36.5q-141 0 -228 101t-87 267zM219 356q0 -124 44 -191t126 -67q111 0 190.5 146t79.5 354q0 119 -45.5 184.5t-128.5 65.5q-112 0 -189 -140.5 t-77 -351.5zM801 564q11 -2 22.5 -2.5t34.5 -0.5q150 0 222.5 47.5t72.5 145.5q0 49 -29.5 77.5t-81.5 28.5q-89 0 -151.5 -76.5t-89.5 -219.5z" />
<glyph unicode="&#x178;" horiz-adv-x="1051" d="M90 1151l14 90h392l-13 -90l-114 -37l161 -459l297 459l-104 37l12 90h379l-14 -90l-115 -37l-403 -592l-58 -395l160 -37l-14 -90h-484l13 90l168 37l55 385l-225 602zM407 1493q0 50 29.5 82.5t73.5 32.5q37 0 55 -19t18 -57q0 -54 -26 -84.5t-72 -30.5q-40 0 -59 18.5 t-19 57.5zM714 1493q0 50 29.5 82.5t73.5 32.5q37 0 55.5 -19t18.5 -57q0 -53 -27 -84t-74 -31q-40 0 -58 18t-18 58z" />
<glyph unicode="&#x2c6;" horiz-adv-x="1024" d="M289 1114l321 291l256 -291l-71 -31l-201 158l-227 -158z" />
<glyph unicode="&#x2dc;" horiz-adv-x="1024" d="M332 1202q43 68 90 102.5t94 34.5q46 0 100 -41t78 -41q22 0 48.5 20t60.5 62l57 -59q-48 -72 -92 -105.5t-90 -33.5t-101 41t-77 41t-48 -19.5t-61 -60.5z" />
<glyph unicode="&#x2000;" horiz-adv-x="902" />
<glyph unicode="&#x2001;" horiz-adv-x="1804" />
<glyph unicode="&#x2002;" horiz-adv-x="902" />
<glyph unicode="&#x2003;" horiz-adv-x="1804" />
<glyph unicode="&#x2004;" horiz-adv-x="601" />
<glyph unicode="&#x2005;" horiz-adv-x="451" />
<glyph unicode="&#x2006;" horiz-adv-x="300" />
<glyph unicode="&#x2007;" horiz-adv-x="300" />
<glyph unicode="&#x2008;" horiz-adv-x="225" />
<glyph unicode="&#x2009;" horiz-adv-x="360" />
<glyph unicode="&#x200a;" horiz-adv-x="100" />
<glyph unicode="&#x2010;" horiz-adv-x="455" d="M-6 442l20 133h398l-21 -133h-397z" />
<glyph unicode="&#x2011;" horiz-adv-x="455" d="M-6 442l20 133h398l-21 -133h-397z" />
<glyph unicode="&#x2012;" horiz-adv-x="455" d="M-6 442l20 133h398l-21 -133h-397z" />
<glyph unicode="&#x2013;" horiz-adv-x="1024" d="M-35 459l12 100h1029l-15 -100h-1026z" />
<glyph unicode="&#x2014;" horiz-adv-x="2048" d="M-39 459l19 100h2054l-19 -100h-2054z" />
<glyph unicode="&#x2018;" horiz-adv-x="455" d="M164 915q0 84 50.5 179.5t137.5 171.5l68 -64q-51 -58 -78 -113t-34 -112q37 0 59 -22t22 -60q0 -52 -30.5 -83.5t-82.5 -31.5q-56 0 -84 34t-28 101z" />
<glyph unicode="&#x2019;" horiz-adv-x="455" d="M166 846q50 57 77 111t36 112q-38 0 -60 23t-22 61q0 51 30.5 82t81.5 31q57 0 85 -33t28 -100q0 -84 -51 -180.5t-138 -172.5z" />
<glyph unicode="&#x201a;" horiz-adv-x="455" d="M12 -223q50 57 77.5 111t35.5 112q-37 0 -59.5 23t-22.5 61q0 51 30.5 82t82.5 31q57 0 84.5 -33t27.5 -101q0 -84 -51 -180.5t-137 -171.5z" />
<glyph unicode="&#x201c;" horiz-adv-x="793" d="M164 915q0 84 50.5 179.5t137.5 171.5l68 -64q-51 -58 -78 -113t-34 -112q37 0 59 -22t22 -60q0 -52 -30.5 -83.5t-82.5 -31.5q-56 0 -84 34t-28 101zM502 915q0 84 51.5 179.5t138.5 171.5l66 -64q-51 -58 -78.5 -113.5t-33.5 -111.5q37 0 59 -22t22 -60 q0 -52 -30 -83.5t-81 -31.5q-57 0 -85.5 34t-28.5 101z" />
<glyph unicode="&#x201d;" horiz-adv-x="793" d="M166 846q50 57 77 111t36 112q-38 0 -60 23t-22 61q0 52 29.5 82.5t80.5 30.5q57 0 85 -33t28 -100q0 -84 -51 -180.5t-138 -172.5zM504 846q50 57 77 111t35 112q-37 0 -59 23t-22 61q0 52 29.5 82.5t80.5 30.5q58 0 86.5 -33.5t28.5 -99.5q0 -84 -51.5 -180.5 t-139.5 -172.5z" />
<glyph unicode="&#x201e;" horiz-adv-x="793" d="M12 -223q50 57 77.5 111t35.5 112q-37 0 -59.5 23t-22.5 61q0 51 30.5 82t82.5 31q57 0 84.5 -33t27.5 -101q0 -84 -51 -180.5t-137 -171.5zM350 -223q48 54 74.5 107.5t35.5 115.5q-36 0 -57.5 23t-21.5 61q0 52 29.5 82.5t81.5 30.5q57 0 84.5 -33t27.5 -101 q0 -84 -51 -180.5t-137 -171.5z" />
<glyph unicode="&#x2022;" horiz-adv-x="1208" d="M307 762q0 123 87 209t210 86q122 0 208.5 -86.5t86.5 -208.5t-87.5 -209.5t-209.5 -87.5q-123 0 -209 87t-86 210z" />
<glyph unicode="&#x2026;" horiz-adv-x="2048" d="M158 80q0 71 30 105t93 34q52 0 74 -26t22 -87q0 -62 -32.5 -96.5t-92.5 -34.5q-49 0 -71.5 25t-22.5 80zM840 80q0 71 30 105t93 34q52 0 74 -26t22 -87q0 -62 -32.5 -96.5t-92.5 -34.5q-49 0 -71.5 25t-22.5 80zM1524 80q0 71 30 105t93 34q52 0 74 -26t22 -87 q0 -62 -32.5 -96.5t-92.5 -34.5q-49 0 -71.5 25t-22.5 80z" />
<glyph unicode="&#x202f;" horiz-adv-x="360" />
<glyph unicode="&#x2039;" horiz-adv-x="479" d="M51 483l252 357h100l-206 -357l102 -356h-100z" />
<glyph unicode="&#x203a;" horiz-adv-x="479" d="M33 127l209 356l-103 357h101l145 -357l-250 -356h-102z" />
<glyph unicode="&#x205f;" horiz-adv-x="451" />
<glyph unicode="&#x20ac;" d="M-18 467l34 82h109q3 38 8.5 77t13.5 79h-133l35 79h119q67 215 210 347.5t310 132.5q77 0 132 -13t106 -41l-27 -231h-100l-41 153q-9 2 -21 5q-17 4 -32 4q-117 0 -215.5 -96.5t-149.5 -260.5h428l-35 -79l-414 -1q-8 -42 -13.5 -81t-6.5 -74h385l-35 -82h-352 q6 -179 65.5 -264.5t176.5 -85.5q62 0 128 14.5t115 38.5l-16 -111q-37 -33 -121 -61.5t-156 -28.5q-165 0 -264 134.5t-103 363.5h-140z" />
<glyph unicode="&#x2122;" horiz-adv-x="1683" d="M244 1260l12 178h440l11 -178h-25q-8 79 -40.5 115t-96.5 36h-21v-426q0 -23 12 -37t33 -16l31 -2v-27h-248v27l31 2q21 1 33 15.5t12 37.5v426h-20q-64 0 -97 -36t-41 -115h-26zM788 903v27l34 2q21 2 32.5 16t11.5 37v371q0 23 -12.5 37t-34.5 16l-31 2v27h183 l141 -400l148 400h174v-25l-30 -2q-22 -2 -34 -15.5t-12 -37.5v-373q0 -24 12 -37.5t34 -15.5l30 -2v-27h-236v27l31 2q21 2 33 16t12 37v395l-178 -479h-15l-174 479v-395q0 -23 12.5 -37t34.5 -16l31 -2v-27h-197z" />
<glyph unicode="&#x25fc;" horiz-adv-x="970" d="M0 0v970h970v-970h-970z" />
</font>
</defs>
</svg>
