<?xml version="1.0" standalone="no"?>
<!DOCTYPE svg PUBLIC "-//W3C//DTD SVG 1.1//EN" "http://www.w3.org/Graphics/SVG/1.1/DTD/svg11.dtd" >
<svg xmlns="http://www.w3.org/2000/svg">
<metadata></metadata>
<defs>
<font id="oranda_cn_btcondensed" horiz-adv-x="868" >
<font-face units-per-em="2048" ascent="1638" descent="-410" />
<missing-glyph horiz-adv-x="434" />
<glyph horiz-adv-x="2048" />
<glyph horiz-adv-x="2048" />
<glyph unicode="&#xd;" horiz-adv-x="434" />
<glyph unicode=" "  horiz-adv-x="434" />
<glyph unicode="&#x09;" horiz-adv-x="434" />
<glyph unicode="&#xa0;" horiz-adv-x="434" />
<glyph unicode="!" horiz-adv-x="496" d="M145 86q0 50 27 78.5t76 28.5q48 0 75 -28.5t27 -78.5q0 -51 -27 -80t-75 -29t-75.5 29.5t-27.5 79.5zM147 1149q0 58 24.5 88.5t72.5 30.5q55 0 79.5 -28t24.5 -93q0 -20 -0.5 -36t-1.5 -32l-43 -800h-106l-45 785q-3 36 -4 53.5t-1 31.5z" />
<glyph unicode="&#x22;" horiz-adv-x="678" d="M90 1362q0 48 22 74t62 26q41 0 63.5 -26t22.5 -74q0 -9 -3 -34q-1 -5 -1 -7l-66 -457h-32l-64 457q-2 17 -3 26t-1 15zM418 1360q0 49 22.5 75.5t63.5 26.5q40 0 62 -26t22 -74q0 -14 -0.5 -23t-1.5 -18l-68 -457h-31l-65 457q0 2 -1 6q-3 22 -3 33z" />
<glyph unicode="#" horiz-adv-x="1575" d="M104 467l43 115h322l100 286h-348l43 117h348l166 471h133l-168 -471h287l168 471h131l-166 -471h307l-40 -117h-310l-100 -286h332l-43 -115h-330l-166 -469h-133l166 469h-287l-166 -469h-131l166 469h-324zM600 582h289l102 286h-291z" />
<glyph unicode="$" d="M86 72v223h119l61 -190q31 -4 60 -5.5t55 -1.5h22v467l-104 70q-111 75 -158 144.5t-47 158.5q0 127 84.5 211t224.5 94v139h58v-137q67 0 137.5 -16t151.5 -49v-213h-119l-66 178q-27 2 -44.5 3t-31.5 1h-28v-438l125 -84q108 -73 152 -142.5t44 -162.5 q0 -128 -87 -216.5t-234 -107.5v-137h-58v133q-71 1 -148.5 20t-168.5 58zM252 969q0 -64 35 -116t116 -105v397q-71 -15 -111 -61.5t-40 -114.5zM461 104q80 22 117.5 69.5t37.5 125.5q0 63 -38.5 119t-116.5 106v-420z" />
<glyph unicode="%" horiz-adv-x="1446" d="M55 862q0 192 75 298t210 106q125 0 194.5 -96.5t69.5 -270.5q0 -192 -76 -299.5t-211 -107.5q-125 0 -193.5 96t-68.5 274zM197 879q0 -158 31.5 -234t97.5 -76t100.5 78.5t34.5 231.5q0 162 -31.5 235.5t-99.5 73.5q-65 0 -99 -79.5t-34 -229.5zM281 25l809 1255 l73 -51l-805 -1262zM840 346q0 192 74.5 298t209.5 106q125 0 195 -96.5t70 -270.5q0 -193 -76 -300.5t-211 -107.5q-126 0 -194 96.5t-68 274.5zM981 362q0 -157 31.5 -233t97.5 -76q67 0 101 78t34 231q0 163 -31 236.5t-100 73.5q-64 0 -98.5 -79.5t-34.5 -230.5z" />
<glyph unicode="&#x26;" horiz-adv-x="1276" d="M61 324q0 114 62 196.5t188 136.5q-78 74 -118.5 155t-40.5 163q0 132 86.5 211.5t232.5 79.5q147 0 230 -70t83 -192q0 -116 -67 -198t-205 -136l401 -428q44 40 68.5 103t24.5 136q0 41 -3.5 74t-11.5 65l-188 1v114h414v-114h-88q5 -41 7.5 -67t2.5 -44 q0 -110 -38.5 -194.5t-117.5 -149.5l35 -39l162 -37v-90h-252l-66 70q-81 -48 -170 -71.5t-194 -23.5q-201 0 -319 94.5t-118 254.5zM238 352q0 -123 82.5 -194.5t226.5 -71.5q62 0 121.5 15t119.5 46l-417 451q-65 -45 -99 -108t-34 -138zM303 1012q0 -70 36.5 -136.5 t119.5 -146.5q90 56 130 119t40 149q0 87 -43.5 135t-122.5 48q-74 0 -117 -45t-43 -123z" />
<glyph unicode="'" horiz-adv-x="348" d="M90 1360q0 50 21.5 76t62.5 26t63.5 -26t22.5 -74q0 -9 -3 -34q-1 -5 -1 -7l-66 -457h-32l-66 457q-1 8 -1.5 16t-0.5 23z" />
<glyph unicode="(" horiz-adv-x="473" d="M94 469q0 294 66.5 518t204.5 393l77 -45q-94 -180 -141 -394t-47 -466q0 -246 47 -458.5t141 -395.5l-73 -49q-140 185 -207.5 405.5t-67.5 491.5z" />
<glyph unicode=")" horiz-adv-x="473" d="M31 1331l75 49q139 -185 206 -406.5t67 -492.5q0 -292 -66.5 -515t-203.5 -394l-76 45q95 182 141.5 395t46.5 463q0 244 -47.5 458t-142.5 398z" />
<glyph unicode="*" horiz-adv-x="612" d="M33 993l225 97l-223 96l51 92l199 -143l-25 245h107l-23 -241l188 141l54 -90l-221 -103l223 -98l-53 -92l-193 141l25 -237h-107l23 241l-195 -141z" />
<glyph unicode="+" horiz-adv-x="1706" d="M254 553v117h541v551h118v-551h539v-117h-539v-553h-118v553h-541z" />
<glyph unicode="," horiz-adv-x="426" d="M102 88q0 51 31.5 79t89.5 28q62 0 96.5 -43.5t34.5 -122.5q0 -100 -56 -175t-148 -98l-35 84q54 32 82 65.5t28 65.5v6h-14q-51 0 -80 29.5t-29 81.5z" />
<glyph unicode="-" horiz-adv-x="473" d="M39 440v129h397v-129h-397z" />
<glyph unicode="." horiz-adv-x="426" d="M96 86q0 54 29.5 81.5t87.5 27.5q60 0 88.5 -26.5t28.5 -82.5q0 -55 -28.5 -80.5t-88.5 -25.5q-59 0 -88 26t-29 80z" />
<glyph unicode="/" horiz-adv-x="516" d="M43 -428l334 1808h96l-334 -1808h-96z" />
<glyph unicode="0" d="M43 604q0 321 101 491.5t290 170.5q201 0 296 -152.5t95 -474.5q0 -321 -101 -492.5t-290 -171.5q-200 0 -295.5 153t-95.5 476zM217 614q0 -275 52.5 -403.5t164.5 -128.5q115 0 166 134t51 443q0 257 -53 379.5t-164 122.5q-114 0 -165.5 -129t-51.5 -418z" />
<glyph unicode="1" d="M125 1018v86q86 18 165 52t154 85h101v-1118l168 -33v-90h-490v90l166 33v942q-62 -19 -127.5 -30.5t-136.5 -16.5z" />
<glyph unicode="2" d="M49 0q0 108 41.5 196.5t173.5 227.5q26 27 75 76q269 276 269 438q0 108 -62 165.5t-179 57.5q-21 0 -45.5 -1.5t-50.5 -4.5l-66 -174h-113v188q78 49 158 73t162 24q171 0 275 -90.5t104 -237.5q0 -183 -305 -464l-17 -15q-19 -18 -55 -51q-208 -190 -217 -260l438 -1 l49 148h109v-295h-744z" />
<glyph unicode="3" d="M53 78v92q87 -28 153.5 -41.5t119.5 -13.5q140 0 222.5 70t82.5 190q0 115 -66 176t-190 61h-19v95h23q101 0 160 64.5t59 174.5q0 106 -64.5 161.5t-187.5 55.5q-6 0 -27 -1.5t-61 -4.5l-65 -178h-113v190q82 50 165 73.5t177 23.5q159 0 254.5 -79.5t95.5 -209.5 q0 -122 -68 -205.5t-184 -103.5q135 -25 206 -104t71 -206q0 -162 -111 -268t-280 -106q-89 0 -178 23.5t-175 70.5z" />
<glyph unicode="4" d="M14 379v133l508 729h160v-739h152v-123h-152v-256l129 -33v-90h-408v90l134 33v256h-523zM133 502h404v577z" />
<glyph unicode="5" d="M57 63v97q73 -29 132 -42.5t112 -13.5q152 0 236 82t84 230q0 135 -82 208.5t-232 73.5q-39 0 -90 -6t-123 -20v569h668v-141h-559v-324q56 20 107 29.5t100 9.5q181 0 284 -104.5t103 -290.5q0 -196 -122 -320.5t-315 -124.5q-72 0 -149 22.5t-154 65.5z" />
<glyph unicode="6" d="M39 555q0 337 142 524t397 187q56 0 108.5 -11t108.5 -34v-82q-43 9 -82 13.5t-80 4.5q-196 0 -303 -124t-119 -365q66 54 132 80t134 26q163 0 257.5 -98.5t94.5 -267.5q0 -195 -105.5 -314t-277.5 -119q-205 0 -306 144.5t-101 435.5zM211 528q0 -243 54 -347.5 t177 -104.5q99 0 158 80t59 215t-60 205.5t-175 70.5q-48 0 -100 -11.5t-111 -35.5q0 -23 -1 -46.5t-1 -25.5z" />
<glyph unicode="7" d="M76 948v293h757q2 -10 2.5 -20.5t0.5 -30.5q0 -142 -137 -380q-24 -41 -35 -62q-15 -26 -44 -77q-178 -307 -178 -519q0 -22 5 -95q2 -36 3 -57h-178v5q-4 48 -4 73q0 136 45 269t170 337q15 23 43 67q173 277 174 349h-462l-54 -152h-108z" />
<glyph unicode="8" d="M57 293q0 118 67.5 206.5t201.5 145.5q-123 70 -176.5 145.5t-53.5 176.5q0 131 94 215t240 84q154 0 243 -77t89 -208q0 -99 -58.5 -172.5t-171.5 -116.5q153 -93 216 -177t63 -191q0 -152 -108.5 -250.5t-278.5 -98.5q-166 0 -266.5 87t-100.5 231zM215 301 q0 -98 60.5 -158.5t158.5 -60.5q95 0 153 57.5t58 151.5q0 79 -47 142.5t-197 164.5q-98 -73 -142 -143t-44 -154zM248 997q0 -66 39 -116.5t184 -143.5q68 48 102.5 108.5t34.5 131.5q0 90 -47 141t-129 51q-87 0 -135.5 -45t-48.5 -127z" />
<glyph unicode="9" d="M39 829q0 197 104.5 315t276.5 118q205 0 307 -144.5t102 -435.5q0 -180 -29 -301t-91 -207q-68 -92 -175.5 -145.5t-226.5 -53.5q-66 0 -124.5 11.5t-110.5 33.5v78q40 -9 78.5 -13.5t76.5 -4.5q202 0 310 123t120 366q-70 -56 -136 -81t-140 -25q-156 0 -249 99.5 t-93 266.5zM207 858q0 -128 61.5 -197t175.5 -69q51 0 103.5 11t107.5 34q0 29 2 62v10q0 243 -54 347.5t-177 104.5q-100 0 -159.5 -82t-59.5 -221z" />
<glyph unicode=":" horiz-adv-x="426" d="M96 86q0 54 29.5 81.5t87.5 27.5q60 0 88.5 -26.5t28.5 -82.5q0 -55 -28.5 -80.5t-88.5 -25.5q-59 0 -88 26t-29 80zM96 766q0 54 29.5 81t87.5 27q60 0 88.5 -26.5t28.5 -81.5q0 -56 -28.5 -82.5t-88.5 -26.5q-58 0 -87.5 27.5t-29.5 81.5z" />
<glyph unicode=";" horiz-adv-x="426" d="M96 766q0 54 29.5 81t87.5 27q60 0 88.5 -26.5t28.5 -81.5q0 -56 -28.5 -82.5t-88.5 -26.5q-58 0 -87.5 27.5t-29.5 81.5zM102 88q0 51 31.5 79t89.5 28q62 0 96.5 -43.5t34.5 -122.5q0 -100 -56 -175t-148 -98l-35 84q54 32 82 65.5t28 65.5v6h-14q-51 0 -80 29.5 t-29 81.5z" />
<glyph unicode="&#x3c;" horiz-adv-x="1706" d="M264 559v103l1178 483v-127l-1000 -408l1000 -405v-129z" />
<glyph unicode="=" horiz-adv-x="1706" d="M254 360v117h1198v-117h-1198zM254 743v117h1198v-117h-1198z" />
<glyph unicode="&#x3e;" horiz-adv-x="1706" d="M264 76v129l1000 405l-1000 408v127l1178 -483v-103z" />
<glyph unicode="?" horiz-adv-x="856" d="M80 981v190q78 48 163 71.5t179 23.5q176 0 279.5 -85.5t103.5 -230.5q0 -80 -30 -147t-103 -146l-144 -158l-24 -24q-49 -49 -49 -123v-73h-115v86q0 64 16 103.5t58 92.5l108 137q64 80 85.5 131t21.5 107q0 101 -71.5 164t-190.5 63q-21 0 -47 -1.5t-56 -4.5l-65 -176 h-119zM295 86q0 50 28 78.5t76 28.5q49 0 76 -28.5t27 -78.5q0 -51 -27 -80t-76 -29q-48 0 -76 29.5t-28 79.5z" />
<glyph unicode="@" horiz-adv-x="2019" d="M145 537q0 204 86 381t250 313q131 110 291 165.5t344 55.5q347 0 553.5 -187t206.5 -499q0 -157 -58 -297t-163 -236q-57 -52 -123.5 -80t-134.5 -28q-97 0 -149 52.5t-58 158.5q-62 -106 -139 -158.5t-170 -52.5q-125 0 -201 92t-76 244q0 108 49 216t138 193 q65 64 144 100t155 36q87 0 143 -49.5t78 -145.5l53 180h143l-170 -610q0 -2 -1 -5q-17 -59 -17 -104q0 -47 25.5 -74.5t68.5 -27.5q34 0 79 17.5t85 48.5q122 90 187 231t65 315q0 140 -50 252t-153 203q-90 79 -216 122.5t-267 43.5q-187 0 -341.5 -58.5t-275.5 -175.5 q-130 -126 -197 -293.5t-67 -369.5q0 -175 57 -304.5t181 -234.5q114 -97 261 -146.5t320 -49.5q163 0 317.5 52t295.5 154l30 -36q-148 -110 -313 -166t-342 -56q-187 0 -342 46.5t-274 138.5q-151 113 -229.5 274.5t-78.5 358.5zM750 375q0 -93 40.5 -147t108.5 -54 q66 0 126 44.5t116 133.5q57 94 91 202.5t34 197.5q0 93 -47.5 153t-120.5 60q-54 0 -99 -31t-92 -100q-72 -108 -114.5 -234t-42.5 -225z" />
<glyph unicode="A" horiz-adv-x="1071" d="M6 0v90l100 33l367 1118h170l328 -1118l100 -33v-90h-383v90l113 33l-103 375h-340l-114 -375l114 -33v-90h-352zM383 598h285l-138 489z" />
<glyph unicode="B" horiz-adv-x="928" d="M37 0v90l127 33v995l-127 35v88h330q241 0 346.5 -68t105.5 -219q0 -125 -64.5 -208t-179.5 -105q140 -11 217.5 -90t77.5 -211q0 -162 -110.5 -251t-313.5 -89h-409zM322 94h108q132 0 199 63.5t67 186.5q0 128 -65.5 186t-212.5 58h-96v-494zM322 682h90 q112 0 172.5 64t60.5 182q0 114 -57.5 166.5t-181.5 52.5h-84v-465z" />
<glyph unicode="C" horiz-adv-x="967" d="M72 586q0 311 157 495.5t420 184.5q70 0 135 -15.5t136 -48.5v-219h-119l-60 172q-20 2 -40 3t-44 1q-190 0 -302.5 -147.5t-112.5 -399.5q0 -242 112.5 -376t317.5 -134q44 0 101 8.5t147 28.5v-94q-85 -35 -163.5 -51.5t-158.5 -16.5q-240 0 -383 164.5t-143 444.5z " />
<glyph unicode="D" horiz-adv-x="1098" d="M37 0v90l127 33v995l-127 21v102h371q150 0 232.5 -15.5t143.5 -51.5q121 -72 183.5 -205.5t62.5 -319.5q0 -329 -163.5 -489t-501.5 -160h-328zM319 104h97q218 0 329 136.5t111 404.5q0 242 -106.5 368t-311.5 126h-119v-1035z" />
<glyph unicode="E" horiz-adv-x="889" d="M33 0v90l133 33v995l-133 33v90h801v-260h-111l-53 166h-348v-455h270l47 148h90v-394h-90l-47 152h-270v-504h360l53 195h99v-289h-801z" />
<glyph unicode="F" horiz-adv-x="827" d="M37 0v90l131 33v995l-131 33v90h768v-260h-113l-53 166h-313v-455h241l47 148h91v-394h-91l-47 152h-241v-475l137 -33v-90h-426z" />
<glyph unicode="G" horiz-adv-x="1104" d="M66 600q0 308 163 487t445 179q67 0 139.5 -15.5t153.5 -46.5v-221h-117l-60 176q-28 3 -55.5 4.5t-52.5 1.5q-209 0 -326.5 -145.5t-117.5 -407.5q0 -256 112 -392t324 -136q21 0 50 2.5t72 7.5l1 289l-129 29v96h413v-96l-129 -29v-336q-86 -35 -171 -52.5t-169 -17.5 q-256 0 -401 165.5t-145 457.5z" />
<glyph unicode="H" horiz-adv-x="1128" d="M37 0v90l127 33v995l-127 29v94h416v-94l-134 -29v-413h490v413l-133 29v94h418v-94l-127 -29v-995l127 -33v-90h-418v90l133 33v475h-490v-475l134 -33v-90h-416z" />
<glyph unicode="I" horiz-adv-x="485" d="M37 0v90l127 33v995l-127 29v94h416v-94l-134 -29v-995l134 -33v-90h-416z" />
<glyph unicode="J" horiz-adv-x="520" d="M-123 -168h115l59 -166h25q71 0 104 56t33 182v1214l-133 29v94h418v-94l-127 -29v-1163q0 -110 -10 -164t-33 -92q-35 -58 -104 -92.5t-150 -34.5q-44 0 -92 9.5t-105 29.5v221z" />
<glyph unicode="K" horiz-adv-x="1028" d="M37 0v90l127 33v995l-127 29v94h418v-94l-133 -29v-995l133 -33v-90h-418zM338 647l367 481l-87 19v94h377v-94l-137 -29l-358 -438l399 -557l129 -33v-90h-250z" />
<glyph unicode="L" horiz-adv-x="819" d="M37 0v90l131 33v995l-127 29v94h418v-94l-133 -29v-1024h321l53 195h99v-289h-762z" />
<glyph unicode="M" horiz-adv-x="1374" d="M35 0v90l131 33v995l-131 33v90h338l321 -973l334 973h315v-90l-129 -33v-995l129 -33v-90h-413v90l129 33v907l-350 -1030h-84l-344 1030v-907l129 -33v-90h-375z" />
<glyph unicode="N" horiz-adv-x="1124" d="M37 0v90l131 33v995l-131 33v90h305l518 -928v805l-127 33v90h375v-90l-133 -33v-1118h-115l-577 1030v-907l127 -33v-90h-373z" />
<glyph unicode="O" horiz-adv-x="1114" d="M66 621q0 292 136 468.5t357 176.5q236 0 363 -160.5t127 -460.5q0 -310 -131.5 -487.5t-356.5 -177.5q-233 0 -364 168.5t-131 472.5zM242 604q0 -251 80 -383.5t231 -132.5q154 0 236.5 135t82.5 385q0 289 -75 419t-240 130q-156 0 -235.5 -139.5t-79.5 -413.5z" />
<glyph unicode="P" horiz-adv-x="903" d="M37 0v88l127 33v997l-127 35v88h354q253 0 364 -82.5t111 -265.5q0 -181 -116.5 -286t-317.5 -105h-113v-379l158 -35v-88h-440zM319 592h91q141 0 213.5 72t72.5 213t-66.5 207.5t-207.5 66.5h-103v-559z" />
<glyph unicode="Q" horiz-adv-x="1114" d="M66 623q0 292 135 467.5t358 175.5q235 0 361.5 -161.5t126.5 -461.5q0 -280 -109 -450t-307 -199q130 -182 208.5 -237.5t178.5 -55.5q13 0 38 3t62 9v-90q-61 -22 -113.5 -33.5t-95.5 -11.5q-137 0 -231.5 84t-210.5 324q-193 34 -297 199.5t-104 437.5zM242 594 q0 -244 80.5 -375t230.5 -131q157 0 238 138.5t81 406.5q0 270 -76.5 397t-238.5 127q-158 0 -236.5 -140t-78.5 -423z" />
<glyph unicode="R" horiz-adv-x="971" d="M37 0v90l131 33v995l-131 33v90h397q213 0 309.5 -73.5t96.5 -233.5q0 -142 -88 -234t-226 -92h-8q50 -11 92 -75q3 -4 4 -6l224 -351q19 -31 32 -42.5t33 -18.5l72 -25v-90h-135q-43 0 -74 15.5t-49 45.5l-279 467q-20 35 -36 46.5t-40 11.5h-36v-463l127 -33v-90h-416z M326 686h118q112 0 169 59.5t57 176.5q0 113 -59 167t-183 54h-102v-457z" />
<glyph unicode="S" horiz-adv-x="842" d="M74 53v232h119l63 -197q13 -1 36 -3q52 -5 68 -5q117 0 181.5 53t64.5 150q0 63 -34 115t-113 108l-170 123q-120 86 -163.5 155t-43.5 160q0 146 98 234t262 88q68 0 140.5 -17t154.5 -51v-221h-116l-68 184q-21 2 -42.5 3t-53.5 1q-99 0 -158 -50t-59 -132 q0 -62 31 -109.5t122 -111.5l180 -127q109 -76 153 -148t44 -168q0 -153 -105.5 -248.5t-277.5 -95.5q-70 0 -147.5 19.5t-165.5 58.5z" />
<glyph unicode="T" horiz-adv-x="963" d="M33 981v260h905v-260h-111l-53 166h-211v-1024l133 -33v-90h-422v90l134 33v1024h-209l-56 -166h-110z" />
<glyph unicode="U" horiz-adv-x="1114" d="M16 1151v90h414v-90l-129 -33v-719q0 -167 64 -236t215 -69q136 0 201 66.5t65 208.5v749l-127 33v90h379v-90l-127 -33v-739q0 -209 -100 -306.5t-312 -97.5q-206 0 -310 92t-104 273v778z" />
<glyph unicode="V" horiz-adv-x="1067" d="M4 1151v90h385v-90l-115 -33l269 -946l288 946l-112 33v90h350v-90l-98 -33l-369 -1118h-168l-330 1118z" />
<glyph unicode="W" horiz-adv-x="1638" d="M31 1151v90h385v-90l-115 -33l213 -911l248 1034h145l238 -1055l229 932l-114 33v90h356v-90l-105 -33l-309 -1118h-166l-221 983l-240 -983h-167l-273 1118z" />
<glyph unicode="X" horiz-adv-x="1059" d="M33 0v90l98 33l322 498l-303 497l-99 33v90h393v-90l-114 -33l219 -366l225 366l-115 33v90h349v-90l-99 -33l-303 -461l330 -534l100 -33v-90h-395v90l115 33l-242 395l-240 -395l115 -33v-90h-356z" />
<glyph unicode="Y" horiz-adv-x="1012" d="M6 1151v90h389v-90l-114 -33l241 -475l248 475l-115 35v88h357v-88l-101 -35l-327 -573v-422l145 -33v-90h-448v90l145 33v389l-320 616z" />
<glyph unicode="Z" horiz-adv-x="909" d="M51 0v123l619 1024h-437l-49 -166h-104v260h764v-123l-619 -1024h455l63 195h105v-289h-797z" />
<glyph unicode="[" horiz-adv-x="498" d="M170 -428v1806h295v-94h-152v-1616h152v-96h-295z" />
<glyph unicode="\" horiz-adv-x="516" d="M43 1380h96l334 -1808h-96z" />
<glyph unicode="]" horiz-adv-x="498" d="M33 -332h151v1616h-151v94h295v-1806h-295v96z" />
<glyph unicode="^" horiz-adv-x="2048" d="M412 897l522 565h178l520 -565h-92l-518 436l-520 -436h-90z" />
<glyph unicode="_" horiz-adv-x="1024" d="M0 -365h1024v-118h-1024v118z" />
<glyph unicode="`" horiz-adv-x="1024" d="M346 1323l135 86l197 -297l-90 -51z" />
<glyph unicode="a" horiz-adv-x="936" d="M61 418q0 246 105.5 397.5t271.5 151.5q47 0 93 -14t96 -44l141 60v-842l137 -29v-78l-289 -28v100q-62 -54 -130 -84.5t-126 -30.5q-141 0 -220 116t-79 325zM227 426q0 -158 48 -242t139 -84q41 0 89 20.5t113 65.5v637q-37 16 -71.5 23.5t-69.5 7.5 q-118 0 -183 -111.5t-65 -316.5z" />
<glyph unicode="b" horiz-adv-x="907" d="M2 1264v79l289 37v-524q81 63 140 88t122 25q138 0 215.5 -114.5t77.5 -319.5q0 -250 -104 -402.5t-271 -152.5q-43 0 -88.5 13.5t-99.5 43.5l-144 -62v1262zM291 123q39 -16 73 -23.5t66 -7.5q117 0 182.5 107.5t65.5 302.5q0 181 -46 264.5t-145 83.5q-44 0 -92 -21.5 t-104 -66.5v-639z" />
<glyph unicode="c" horiz-adv-x="768" d="M66 430q0 245 114 392t301 147q55 0 112 -15t124 -47v-164h-123l-33 125q-16 2 -32.5 3t-36.5 1q-131 0 -198 -106t-67 -313q0 -181 66.5 -267t206.5 -86q47 0 100.5 9.5t116.5 29.5v-96q-76 -32 -140.5 -47.5t-121.5 -15.5q-191 0 -290 114.5t-99 335.5z" />
<glyph unicode="d" horiz-adv-x="938" d="M66 418q0 246 105.5 397.5t272.5 151.5q47 0 89.5 -13t87.5 -41v324l-138 27v79l291 37v-1253l137 -29v-78l-290 -28v100q-63 -54 -130.5 -84.5t-123.5 -30.5q-142 0 -221.5 116.5t-79.5 324.5zM231 426q0 -158 48.5 -242t138.5 -84q41 0 89 20.5t114 65.5v637 q-38 16 -72.5 23.5t-69.5 7.5q-118 0 -183 -111.5t-65 -316.5z" />
<glyph unicode="e" horiz-adv-x="786" d="M66 430q0 247 111.5 394t297.5 147q116 0 184 -63t68 -171q0 -142 -109.5 -214t-324.5 -72q-10 0 -30.5 1t-31.5 1v-31q0 -165 66.5 -243.5t204.5 -78.5q47 0 101 9.5t114 27.5v-94q-72 -31 -139 -46t-134 -15q-189 0 -283.5 111.5t-94.5 336.5zM231 545h25 q162 0 233.5 42t71.5 136q0 66 -32.5 100.5t-94.5 34.5q-102 0 -152.5 -77.5t-50.5 -235.5z" />
<glyph unicode="f" horiz-adv-x="553" d="M41 854v94h137v64q0 185 82.5 276.5t247.5 91.5q58 0 111 -12.5t108 -40.5v-133h-125l-33 90q-19 3 -34 4.5t-25 1.5q-97 0 -138.5 -57t-41.5 -199v-86h194v-94h-194v-731l168 -37v-86h-447v90l127 33v731h-137z" />
<glyph unicode="g" horiz-adv-x="920" d="M66 418q0 246 105 397.5t271 151.5q48 0 93.5 -14t95.5 -44l143 60v-946q0 -123 -11 -186t-36 -105q-45 -74 -135 -114t-209 -40q-68 0 -141.5 20t-149.5 60v172h131l45 -143q11 -1 45 -3.5t54 -2.5q127 0 190.5 67.5t63.5 204.5v139q-63 -55 -129 -85t-125 -30 q-142 0 -221.5 116.5t-79.5 324.5zM231 426q0 -158 48.5 -242t138.5 -84q41 0 89 20.5t114 65.5v637q-38 16 -72.5 23.5t-69.5 7.5q-118 0 -183 -111.5t-65 -316.5z" />
<glyph unicode="h" horiz-adv-x="997" d="M23 1264v79l288 37v-532q81 57 158 86t152 29q108 0 164.5 -63t56.5 -185v-592l129 -33v-90h-408v90l127 33v530q0 95 -35.5 140t-109.5 45q-51 0 -108.5 -21t-125.5 -63v-631l127 -33v-90h-407v90l129 33v1116z" />
<glyph unicode="i" horiz-adv-x="504" d="M45 848v78l289 37v-840l129 -33v-90h-408v90l127 33v698zM152 1249q0 46 26.5 72.5t73.5 26.5q48 0 75 -26.5t27 -72.5t-27 -72t-75 -26q-47 0 -73.5 26.5t-26.5 71.5z" />
<glyph unicode="j" horiz-adv-x="481" d="M-127 -205h143l47 -131q61 8 90 51.5t29 126.5v84v895l-137 27v78l289 37v-1020q0 -180 -74 -272.5t-219 -92.5q-46 0 -86.5 10t-81.5 31v176zM152 1249q0 46 26.5 72.5t73.5 26.5q48 0 75 -26.5t27 -72.5t-27 -72t-75 -26q-47 0 -73.5 26.5t-26.5 71.5z" />
<glyph unicode="k" horiz-adv-x="926" d="M23 1264v79l288 37v-1257l127 -33v-90h-407v90l129 33v1116zM326 512l319 313l-100 33v90h385v-90l-129 -33l-314 -288l306 -414l133 -33v-90h-244z" />
<glyph unicode="l" horiz-adv-x="477" d="M23 1264v79l288 37v-1257l127 -33v-90h-407v90l129 33v1116z" />
<glyph unicode="m" horiz-adv-x="1546" d="M43 848v78l289 37v-109q91 59 161.5 84t143.5 25q78 0 128 -29.5t77 -89.5q127 76 191.5 97.5t133.5 21.5q113 0 170.5 -62.5t57.5 -185.5v-592l127 -33v-90h-408v90l127 33v530q0 100 -35 142.5t-119 42.5q-49 0 -104.5 -19.5t-120.5 -58.5v-29v-16v-592l129 -33v-90 h-407v90l127 33v530q0 100 -36 142.5t-120 42.5q-51 0 -106.5 -19t-116.5 -57v-639l129 -33v-90h-410v90l129 33v698z" />
<glyph unicode="n" horiz-adv-x="1014" d="M43 848v78l289 37v-109q93 60 162.5 84.5t142.5 24.5q113 0 169 -62t56 -186v-592l129 -33v-90h-407v90l127 33v530q0 100 -36 142.5t-120 42.5q-51 0 -106.5 -19t-116.5 -57v-639l129 -33v-90h-410v90l129 33v698z" />
<glyph unicode="o" d="M68 446q0 245 98.5 385t267.5 140q173 0 270 -124t97 -345q0 -244 -98.5 -384.5t-268.5 -140.5q-172 0 -269 124t-97 345zM233 473q0 -205 48 -298t153 -93q103 0 152 99t49 311q0 193 -48.5 282.5t-152.5 89.5q-102 0 -151.5 -96t-49.5 -295z" />
<glyph unicode="p" horiz-adv-x="952" d="M43 848v78l289 37v-109q81 65 139 90t121 25q139 0 217 -114.5t78 -319.5q0 -250 -105 -402.5t-272 -152.5q-43 0 -86.5 13t-91.5 40v-332l168 -37v-86h-449v90l129 33v1120zM332 123q39 -16 73 -23.5t66 -7.5q117 0 182.5 107.5t65.5 302.5q0 180 -46.5 264t-146.5 84 q-43 0 -90 -21t-104 -67v-639z" />
<glyph unicode="q" horiz-adv-x="913" d="M66 418q0 246 105 397.5t271 151.5q48 0 93.5 -14t95.5 -44l143 60v-1268l127 -33v-90h-407v90l127 33v391q-63 -54 -130.5 -84.5t-123.5 -30.5q-142 0 -221.5 116.5t-79.5 324.5zM231 426q0 -158 48.5 -242t138.5 -84q41 0 89 20.5t114 65.5v637q-38 16 -72.5 23.5 t-69.5 7.5q-118 0 -183 -111.5t-65 -316.5z" />
<glyph unicode="r" horiz-adv-x="702" d="M45 848v78l289 37v-115q79 63 141 92t117 29q28 0 51.5 -5.5t48.5 -17.5v-203h-127l-34 92q-52 -1 -100 -21.5t-97 -61.5v-629l168 -37v-86h-447v90l127 33v698z" />
<glyph unicode="s" horiz-adv-x="713" d="M72 51v176h123l49 -147q20 -3 40 -4.5t38 -1.5q81 0 124 36t43 105q0 47 -27 85.5t-91 80.5l-129 86q-98 65 -130 117t-32 127q0 116 78.5 184t212.5 68q62 0 123 -14.5t127 -45.5v-164h-125l-39 125q-21 3 -38 4.5t-30 1.5q-76 0 -117 -33.5t-41 -97.5q0 -40 23.5 -71.5 t97.5 -79.5l125 -82q93 -62 130.5 -118t37.5 -128q0 -129 -86.5 -204.5t-232.5 -75.5q-77 0 -141 18t-113 53z" />
<glyph unicode="t" horiz-adv-x="627" d="M18 854v72l136 78l77 172h76v-228h264v-94h-264v-559q0 -104 33.5 -145t114.5 -41q24 0 53.5 4.5t64.5 13.5v-72q-66 -36 -118 -51.5t-101 -15.5q-94 0 -146 60t-52 169v637h-138z" />
<glyph unicode="u" horiz-adv-x="1020" d="M18 856v78l289 29v-668q0 -96 36 -140t114 -44q57 0 114 18.5t117 56.5v641l-137 29v78l289 29v-836l137 -27v-77l-289 -37v108q-92 -59 -162.5 -83.5t-144.5 -24.5q-113 0 -169 62t-56 185v594z" />
<glyph unicode="v" horiz-adv-x="928" d="M6 858v90h387v-90l-114 -29l202 -710l209 710l-115 29v90h351v-90l-105 -29l-272 -829h-172l-268 829z" />
<glyph unicode="w" horiz-adv-x="1452" d="M25 858v90h383v-90l-115 -29l164 -641l239 760h111l227 -755l172 636l-112 29v90h342v-90l-99 -33l-252 -825h-141l-215 709l-221 -709h-137l-246 825z" />
<glyph unicode="x" horiz-adv-x="936" d="M29 0v90l100 33l268 350l-243 352l-99 33v90h365v-90l-90 -29l153 -235l158 235l-84 29v90h326v-90l-105 -33l-237 -313l262 -389l100 -33v-90h-362v90l96 29l-182 266l-183 -266l95 -29v-90h-338z" />
<glyph unicode="y" horiz-adv-x="928" d="M6 858v90h387v-90l-114 -29l217 -657l194 657l-115 29v90h351v-90l-105 -29l-317 -970q-53 -163 -116.5 -222t-170.5 -59q-35 0 -69.5 10t-73.5 31v176h141l41 -114q39 4 63.5 30.5t49.5 98.5l59 167l-319 852z" />
<glyph unicode="z" horiz-adv-x="795" d="M51 0v94l496 764h-309l-54 -119h-100v209h639v-90l-500 -768h350l64 137h96v-227h-682z" />
<glyph unicode="{" horiz-adv-x="1024" d="M176 606v60q165 15 223 74t58 216v213q0 200 81 273.5t298 73.5h10v-51q-142 -2 -194 -55.5t-52 -209.5v-143q0 -226 -61 -308.5t-226 -113.5q165 -31 226 -113.5t61 -308.5v-143q0 -156 51.5 -208.5t194.5 -54.5v-51h-10q-217 0 -298 73.5t-81 272.5v213q0 158 -59 218 t-222 73z" />
<glyph unicode="|" horiz-adv-x="1024" d="M449 -483v2048h126v-2048h-126z" />
<glyph unicode="}" horiz-adv-x="1024" d="M178 -193q143 2 194.5 54.5t51.5 208.5v143q0 226 61 308.5t226 113.5q-165 31 -226 113.5t-61 308.5v143q0 156 -52 209.5t-194 55.5v51h10q216 0 297.5 -74t81.5 -273v-213q0 -157 58 -216t223 -74v-60q-163 -13 -222 -73t-59 -218v-213q0 -198 -81.5 -272t-297.5 -74 h-10v51z" />
<glyph unicode="~" horiz-adv-x="1706" d="M178 461v133q105 73 202 109t185 36q56 0 116.5 -12.5t174.5 -52.5q12 -4 35 -13q164 -59 254 -59q85 0 176 36.5t209 119.5v-131q-101 -72 -197.5 -108t-189.5 -36q-43 0 -90.5 9t-100.5 26q-30 10 -87 31q-202 72 -302 72q-83 0 -173.5 -37.5t-211.5 -122.5z" />
<glyph unicode="&#xa0;" />
<glyph unicode="&#xa1;" horiz-adv-x="496" d="M145 1159q0 52 27 80.5t76 28.5q48 0 75 -29t27 -80q0 -50 -27 -78t-75 -28q-49 0 -76 27.5t-27 78.5zM150 109q0 21 0.5 33.5t1.5 23.5l41 801h106l45 -786q1 -30 2.5 -57t1.5 -28q0 -57 -25 -88t-71 -31q-57 0 -79.5 27.5t-22.5 104.5z" />
<glyph unicode="&#xa2;" d="M115 455q0 220 92.5 361.5t253.5 168.5v129h57v-123h23q52 0 107.5 -14.5t119.5 -44.5v-164h-121l-33 123q-20 3 -37 4.5t-32 1.5q-6 0 -13 -0.5t-14 -1.5v-770h29q51 0 105.5 9.5t115.5 29.5v-98q-63 -28 -124 -43.5t-125 -20.5l-1 -129h-57v131q-172 16 -259 129.5 t-87 321.5zM281 475q0 -147 44.5 -232t135.5 -108v748q-90 -33 -135 -135t-45 -273z" />
<glyph unicode="&#xa3;" d="M57 0v94q62 29 87.5 82.5t25.5 163.5v262h-113v105h113v184q0 200 88.5 287.5t286.5 87.5q77 0 147 -17t137 -51v-213h-118l-70 176q-21 2 -39.5 3t-36.5 1q-130 0 -183.5 -59t-53.5 -209v-190h284v-105h-284v-186q0 -109 -24.5 -166.5t-84.5 -108.5h488l51 154h110v-295 h-811z" />
<glyph unicode="&#xa4;" horiz-adv-x="1241" d="M86 424l207 205q-44 58 -66 122t-22 134q0 69 22 133.5t66 122.5l-207 205l72 73l207 -207q60 46 122.5 68.5t133.5 22.5t135.5 -22.5t124.5 -68.5l204 207l72 -73l-205 -205q43 -57 64.5 -121t21.5 -135t-21.5 -135.5t-64.5 -120.5l205 -205l-72 -74l-204 207 q-57 -44 -121.5 -66t-138.5 -22t-136.5 21.5t-119.5 66.5l-207 -207zM309 887q0 -131 91.5 -223.5t222.5 -92.5q129 0 221 93t92 223q0 129 -91.5 221t-221.5 92t-222 -92t-92 -221z" />
<glyph unicode="&#xa5;" horiz-adv-x="1012" d="M6 1151v90h389v-90l-114 -33l241 -475l248 475l-115 35v88h357v-88l-103 -35l-170 -303h181v-90h-234l-84 -147h318v-91h-336v-364l145 -33v-90h-448v90l145 33v364h-332v91h297l-76 147h-221v90h172l-160 313z" />
<glyph unicode="&#xa6;" horiz-adv-x="1024" d="M449 -350v758h126v-758h-126zM449 674v758h126v-758h-126z" />
<glyph unicode="&#xa7;" horiz-adv-x="883" d="M72 449q0 105 65.5 185t188.5 124q-91 48 -130.5 109.5t-39.5 152.5q0 120 82 190t225 70q75 0 143 -15t125 -44v-162h-117l-49 123q-19 2 -36.5 3t-32.5 1q-101 0 -151 -37t-50 -111q0 -53 27.5 -89.5t115.5 -86.5l160 -90q120 -67 166.5 -133t46.5 -164 q0 -103 -69 -182.5t-189 -114.5q88 -46 131 -110.5t43 -149.5q0 -120 -83.5 -192t-225.5 -72q-76 0 -145.5 16t-125.5 47v160h119l45 -122q25 -4 46.5 -5.5t39.5 -1.5q89 0 138 39.5t49 112.5q0 50 -24 83.5t-114 86.5l-192 108q-95 54 -138.5 119t-43.5 152zM223 481 q0 -55 27.5 -99t81.5 -75l131 -76q92 29 142 86t50 132q0 64 -34 111t-117 95l-86 50q-94 -32 -144.5 -90t-50.5 -134z" />
<glyph unicode="&#xa8;" horiz-adv-x="1024" d="M268 1192q0 46 25 70t72 24q45 0 70.5 -24.5t25.5 -69.5q0 -46 -25 -71t-71 -25q-47 0 -72 25t-25 71zM563 1192q0 46 25 70t71 24t70.5 -24.5t24.5 -69.5q0 -47 -24.5 -71.5t-70.5 -24.5t-71 25t-25 71z" />
<glyph unicode="&#xa9;" horiz-adv-x="1683" d="M139 678q0 140 53 268.5t152 229.5q98 99 228 152.5t272 53.5q137 0 266.5 -53.5t226.5 -150.5q98 -97 152.5 -228.5t54.5 -271.5t-53 -268t-154 -230q-98 -100 -225 -152.5t-270 -52.5t-269 52.5t-227 152.5t-154 227t-53 271zM225 678q0 -125 47 -238.5t136 -201.5 q88 -89 198.5 -135t235.5 -46q126 0 236.5 46t197.5 135q88 90 135 203t47 237t-47.5 240.5t-132.5 201.5q-86 87 -200.5 135t-233.5 48q-123 0 -237.5 -48.5t-200.5 -136.5q-88 -89 -134.5 -202.5t-46.5 -237.5zM426 664q0 186 116 312t285 126q74 0 148 -34t82 -34 q27 0 42 14.5t21 47.5h35l2 -314h-41q-34 137 -104 206t-176 69q-123 0 -185.5 -94.5t-62.5 -278.5q0 -189 67 -285t199 -96q86 0 156 43t127 131l34 -24q-58 -105 -143 -157t-199 -52q-167 0 -285 123t-118 297z" />
<glyph unicode="&#xaa;" horiz-adv-x="702" d="M47 870q0 172 79 277.5t204 105.5q35 0 69.5 -9.5t71.5 -29.5l104 41v-589l105 -19v-55l-217 -21v72q-48 -39 -99 -60.5t-94 -21.5q-105 0 -164 81.5t-59 227.5zM170 877q0 -112 36.5 -171t104.5 -59q30 0 66.5 15t85.5 47v444q-29 11 -56 17t-51 6q-88 0 -137 -78.5 t-49 -220.5z" />
<glyph unicode="&#xab;" horiz-adv-x="735" d="M63 498l189 360h133l-160 -360l160 -361h-133zM371 498l190 360h133l-162 -360l162 -361h-133z" />
<glyph unicode="&#xac;" horiz-adv-x="1706" d="M254 741v117h1198v-502h-115v385h-1083z" />
<glyph unicode="&#xad;" horiz-adv-x="473" d="M39 440v129h397v-129h-397z" />
<glyph unicode="&#xae;" horiz-adv-x="1683" d="M139 678q0 140 53 268.5t152 229.5q98 99 228 152.5t272 53.5q138 0 268.5 -54t228.5 -152q97 -97 150 -228t53 -272q0 -137 -55.5 -267.5t-157.5 -232.5q-99 -99 -224.5 -150t-270.5 -51q-137 0 -263 52.5t-227 152.5t-154 227t-53 271zM225 678q0 -127 46.5 -239 t136.5 -201q88 -89 198.5 -135t235.5 -46q126 0 236.5 46t197.5 135q88 90 135 203t47 237t-47.5 241.5t-132.5 200.5q-86 87 -200.5 135t-233.5 48q-122 0 -236 -48t-202 -137t-134.5 -202.5t-46.5 -237.5zM469 291v40q72 3 99.5 24.5t27.5 76.5v516q0 55 -26 76t-101 25 v43h393q147 0 232.5 -54.5t85.5 -146.5q0 -76 -69.5 -124t-217.5 -75q93 -29 142 -77.5t71 -133.5q6 -22 11 -63q13 -88 59 -88q32 0 49.5 34t17.5 99h43v-12q0 -88 -40.5 -133.5t-119.5 -45.5q-46 0 -78.5 17t-48.5 49q-18 40 -21 113.5t-9 95.5q-20 68 -70.5 100.5 t-136.5 32.5h-33v-248q0 -54 26.5 -75.5t98.5 -25.5v-40h-385zM729 719q16 -1 32 -1.5t34 -0.5q112 0 173.5 45.5t61.5 128.5q0 73 -53 117.5t-143 44.5q-52 0 -78.5 -18.5t-26.5 -53.5v-262z" />
<glyph unicode="&#xaf;" horiz-adv-x="1024" d="M268 1169v125h486v-125h-486z" />
<glyph unicode="&#xb0;" horiz-adv-x="674" d="M55 1171q0 119 82.5 201t200.5 82q117 0 200 -83t83 -200q0 -116 -83.5 -199t-201.5 -83t-199.5 82t-81.5 200zM135 1171q0 -84 59.5 -143t143.5 -59t142.5 59t58.5 143t-58.5 142.5t-142.5 58.5t-143.5 -58.5t-59.5 -142.5z" />
<glyph unicode="&#xb1;" horiz-adv-x="1706" d="M254 41v117h1198v-117h-1198zM254 719v117h541v344h118v-344h539v-117h-539v-344h-118v344h-541z" />
<glyph unicode="&#xb2;" horiz-adv-x="573" d="M33 496q0 65 27 118t114 136q16 14 46 42q181 168 181 267q0 65 -41 99t-118 34q-23 0 -37 -1t-27 -3l-43 -105h-74v115q52 29 104.5 43t106.5 14q113 0 181.5 -54t68.5 -142q0 -108 -198 -276l-15 -13q-15 -13 -42 -35q-131 -109 -138 -151h291l31 88h71v-176h-489z" />
<glyph unicode="&#xb3;" horiz-adv-x="573" d="M35 543v55q56 -16 100.5 -24.5t79.5 -8.5q93 0 147 42t54 114q0 69 -43.5 105t-124.5 36h-12v58h14q67 0 106 38.5t39 104.5q0 63 -42.5 97t-123.5 34q-2 0 -21.5 -1.5t-37.5 -2.5l-43 -107h-74v115q54 29 109 43t117 14q105 0 168 -47.5t63 -126.5q0 -73 -45 -123 t-121 -61q89 -15 135.5 -63t46.5 -123q0 -98 -73 -162t-185 -64q-59 0 -117.5 14.5t-115.5 43.5z" />
<glyph unicode="&#xb4;" horiz-adv-x="1024" d="M346 1112l195 297l137 -86l-244 -262z" />
<glyph unicode="&#xb5;" horiz-adv-x="1120" d="M-80 -330q0 40 64.5 273.5t105.5 427.5l109 514h147l-104 -492q-6 -30 -9.5 -58.5t-3.5 -53.5q0 -83 42 -129t118 -46q98 0 163.5 68.5t94.5 200.5l111 510h149l-114 -531q-13 -59 -17 -87.5t-4 -49.5q0 -48 26 -78t66 -30q35 0 65.5 18t51.5 51t41 93.5t39 60.5 q12 0 19 -10t7 -27q0 -25 -11 -66.5t-29 -83.5q-38 -82 -95 -122.5t-135 -40.5q-68 0 -108.5 51t-40.5 139v23q-46 -110 -116 -164t-165 -54q-96 0 -152.5 54.5t-70.5 161.5q-27 -136 -52 -339q-34 -272 -112 -272q-37 0 -58.5 23.5t-21.5 64.5z" />
<glyph unicode="&#xb6;" horiz-adv-x="1024" d="M76 1130q0 157 107.5 253t285.5 96h479v-78h-125v-1401h-94v1401h-182v-1401h-96v782q-173 8 -274 102.5t-101 245.5z" />
<glyph unicode="&#xb7;" horiz-adv-x="426" d="M96 621q0 54 29.5 81t87.5 27q60 0 88.5 -26.5t28.5 -81.5q0 -56 -28.5 -82.5t-88.5 -26.5q-58 0 -87.5 27.5t-29.5 81.5z" />
<glyph unicode="&#xb8;" horiz-adv-x="1024" d="M375 -365q79 23 120.5 61t41.5 87q0 30 -17 52.5t-53 37.5v127h78v-63q68 -19 100.5 -56.5t32.5 -97.5q0 -95 -78 -159.5t-207 -73.5z" />
<glyph unicode="&#xb9;" horiz-adv-x="573" d="M84 1106v51q57 13 109 33.5t102 50.5h65v-672l111 -20v-53h-324v53l111 20v565q-41 -11 -83.5 -18t-90.5 -10z" />
<glyph unicode="&#xba;" horiz-adv-x="651" d="M51 891q0 170 74 268t201 98q129 0 201.5 -86.5t72.5 -240.5q0 -173 -73.5 -271t-200.5 -98q-129 0 -202 87.5t-73 242.5zM176 909q0 -143 36 -208.5t114 -65.5t114.5 69.5t36.5 217.5q0 135 -36.5 197.5t-114.5 62.5q-76 0 -113 -67t-37 -206z" />
<glyph unicode="&#xbb;" horiz-adv-x="735" d="M41 137l160 361l-160 360h133l188 -360l-188 -361h-133zM350 137l160 361l-160 360h131l191 -360l-191 -361h-131z" />
<glyph unicode="&#xbc;" horiz-adv-x="1436" d="M78 1116v49q55 11 105 29.5t98 46.5h63v-625l105 -18v-51h-308v51l105 18v527q-39 -10 -81 -17t-87 -10zM291 172l801 946l51 -43l-797 -948zM897 213v74l322 407h100v-413h94v-68h-94v-143l80 -19v-51h-256v51l84 19v143h-330zM973 281h254v323z" />
<glyph unicode="&#xbd;" horiz-adv-x="1436" d="M78 1116v49q55 11 105 29.5t98 46.5h63v-625l105 -18v-51h-308v51l105 18v527q-39 -10 -81 -17t-87 -10zM291 172l801 946l51 -43l-797 -948zM920 0q0 60 25 109t109 128q15 14 45 41q173 156 173 246q0 62 -39 94.5t-113 32.5q-14 0 -49 -3q-7 0 -12 -1l-41 -98h-72v106 q49 27 99.5 40.5t103.5 13.5q107 0 172 -51t65 -134q0 -104 -201 -267l-1 -1q-11 -8 -30 -24q-135 -110 -142 -150h276l31 84h70v-166h-469z" />
<glyph unicode="&#xbe;" horiz-adv-x="1436" d="M33 590v51q60 -16 100.5 -23.5t71.5 -7.5q88 0 140 39.5t52 106.5q0 65 -41 99t-120 34h-11v53h15q63 0 100 36.5t37 98.5q0 60 -40.5 90.5t-119.5 30.5q-11 0 -25 -1t-30 -3l-41 -98h-70v106q50 28 102.5 40.5t112.5 12.5q100 0 160.5 -44.5t60.5 -116.5q0 -69 -43 -115 t-116 -57q84 -14 129 -59t45 -115q0 -91 -69.5 -150t-176.5 -59q-57 0 -113 12.5t-110 38.5zM291 172l801 946l51 -43l-797 -948zM897 213v74l322 407h100v-413h94v-68h-94v-143l80 -19v-51h-256v51l84 19v143h-330zM973 281h254v323z" />
<glyph unicode="&#xbf;" horiz-adv-x="856" d="M80 295q0 81 29.5 147.5t103.5 145.5l143 155q9 10 24 25q50 49 50 123v76h115v-88q0 -66 -16 -104t-58 -91l-109 -137q-63 -80 -84.5 -131t-21.5 -107q0 -102 71.5 -165.5t190.5 -63.5q16 0 41.5 1.5t61.5 5.5l65 175h119v-190q-78 -48 -163 -71.5t-179 -23.5 q-176 0 -279.5 86.5t-103.5 231.5zM383 1159q0 51 26.5 79t75.5 28t76 -28.5t27 -78.5t-27.5 -79t-75.5 -29t-75 28.5t-27 79.5z" />
<glyph unicode="&#xc0;" horiz-adv-x="1071" d="M6 0v90l100 33l367 1118h170l328 -1118l100 -33v-90h-383v90l113 33l-103 375h-340l-114 -375l114 -33v-90h-352zM371 1638l135 86l197 -297l-90 -51zM383 598h285l-138 489z" />
<glyph unicode="&#xc1;" horiz-adv-x="1071" d="M6 0v90l100 33l367 1118h170l328 -1118l100 -33v-90h-383v90l113 33l-103 375h-340l-114 -375l114 -33v-90h-352zM371 1427l195 297l137 -86l-244 -262zM383 598h285l-138 489z" />
<glyph unicode="&#xc2;" horiz-adv-x="1071" d="M6 0v90l100 33l367 1118h170l328 -1118l100 -33v-90h-383v90l113 33l-103 375h-340l-114 -375l114 -33v-90h-352zM263 1431l272 293l278 -293l-77 -55l-201 166l-195 -166zM383 598h285l-138 489z" />
<glyph unicode="&#xc3;" horiz-adv-x="1071" d="M6 0v90l100 33l367 1118h170l328 -1118l100 -33v-90h-383v90l113 33l-103 375h-340l-114 -375l114 -33v-90h-352zM244 1489q53 90 94.5 129.5t81.5 39.5q44 0 127 -47t109 -47t47.5 19.5t54.5 77.5l68 -54q-47 -89 -89.5 -130.5t-86.5 -41.5q-40 0 -123 48.5t-111 48.5 q-23 0 -43 -18.5t-57 -80.5zM383 598h285l-138 489z" />
<glyph unicode="&#xc4;" horiz-adv-x="1071" d="M6 0v90l100 33l367 1118h170l328 -1118l100 -33v-90h-383v90l113 33l-103 375h-340l-114 -375l114 -33v-90h-352zM293 1507q0 46 25 70t72 24q45 0 70.5 -24.5t25.5 -69.5q0 -46 -25 -71t-71 -25q-47 0 -72 25t-25 71zM383 598h285l-138 489zM588 1507q0 46 25 70t71 24 t70.5 -24.5t24.5 -69.5q0 -47 -24.5 -71.5t-70.5 -24.5t-71 25t-25 71z" />
<glyph unicode="&#xc5;" horiz-adv-x="1071" d="M6 0v90l100 33l367 1118h170l328 -1118l100 -33v-90h-383v90l113 33l-103 375h-340l-114 -375l114 -33v-90h-352zM299 1556q0 104 72 176t176 72q103 0 175.5 -72.5t72.5 -175.5q0 -104 -72 -175.5t-176 -71.5q-105 0 -176.5 71.5t-71.5 175.5zM383 598h285l-138 489z M399 1556q0 -61 44 -105t104 -44t103.5 44t43.5 105t-43.5 104.5t-103.5 43.5q-61 0 -104.5 -43.5t-43.5 -104.5z" />
<glyph unicode="&#xc6;" horiz-adv-x="1366" d="M-43 0v90l94 33l529 1118h731v-260h-111l-53 166h-338v-498h258l47 148h90v-400h-90l-47 154h-258v-457h348l55 195h99v-289h-783v90l129 33v428h-274l-188 -428l116 -33v-90h-354zM428 649h229v525z" />
<glyph unicode="&#xc7;" horiz-adv-x="967" d="M72 586q0 311 157 495.5t420 184.5q70 0 135 -15.5t136 -48.5v-219h-119l-60 172q-20 2 -40 3t-44 1q-190 0 -302.5 -147.5t-112.5 -399.5q0 -242 112.5 -376t317.5 -134q44 0 101 8.5t147 28.5v-94q-85 -35 -163.5 -51.5t-158.5 -16.5q-240 0 -383 164.5t-143 444.5z M436 -365q79 23 120.5 61t41.5 87q0 30 -17 52.5t-53 37.5v127h78v-63q68 -19 100.5 -56.5t32.5 -97.5q0 -95 -78 -159.5t-207 -73.5z" />
<glyph unicode="&#xc8;" horiz-adv-x="889" d="M33 0v90l133 33v995l-133 33v90h801v-260h-111l-53 166h-348v-455h270l47 148h90v-394h-90l-47 152h-270v-504h360l53 195h99v-289h-801zM278 1638l135 86l197 -297l-90 -51z" />
<glyph unicode="&#xc9;" horiz-adv-x="889" d="M33 0v90l133 33v995l-133 33v90h801v-260h-111l-53 166h-348v-455h270l47 148h90v-394h-90l-47 152h-270v-504h360l53 195h99v-289h-801zM278 1427l195 297l137 -86l-244 -262z" />
<glyph unicode="&#xca;" horiz-adv-x="889" d="M33 0v90l133 33v995l-133 33v90h801v-260h-111l-53 166h-348v-455h270l47 148h90v-394h-90l-47 152h-270v-504h360l53 195h99v-289h-801zM170 1431l272 293l278 -293l-77 -55l-201 166l-195 -166z" />
<glyph unicode="&#xcb;" horiz-adv-x="889" d="M33 0v90l133 33v995l-133 33v90h801v-260h-111l-53 166h-348v-455h270l47 148h90v-394h-90l-47 152h-270v-504h360l53 195h99v-289h-801zM200 1507q0 46 25 70t72 24q45 0 70.5 -24.5t25.5 -69.5q0 -46 -25 -71t-71 -25q-47 0 -72 25t-25 71zM495 1507q0 46 25 70t71 24 t70.5 -24.5t24.5 -69.5q0 -47 -24.5 -71.5t-70.5 -24.5t-71 25t-25 71z" />
<glyph unicode="&#xcc;" horiz-adv-x="485" d="M37 0v90l127 33v995l-127 29v94h416v-94l-134 -29v-995l134 -33v-90h-416zM78 1638l135 86l197 -297l-90 -51z" />
<glyph unicode="&#xcd;" horiz-adv-x="485" d="M37 0v90l127 33v995l-127 29v94h416v-94l-134 -29v-995l134 -33v-90h-416zM78 1427l195 297l137 -86l-244 -262z" />
<glyph unicode="&#xce;" horiz-adv-x="485" d="M-30 1431l272 293l278 -293l-77 -55l-201 166l-195 -166zM37 0v90l127 33v995l-127 29v94h416v-94l-134 -29v-995l134 -33v-90h-416z" />
<glyph unicode="&#xcf;" horiz-adv-x="485" d="M0 1507q0 46 25 70t72 24q45 0 70.5 -24.5t25.5 -69.5q0 -46 -25 -71t-71 -25q-47 0 -72 25t-25 71zM37 0v90l127 33v995l-127 29v94h416v-94l-134 -29v-995l134 -33v-90h-416zM295 1507q0 46 25 70t71 24t70.5 -24.5t24.5 -69.5q0 -47 -24.5 -71.5t-70.5 -24.5t-71 25 t-25 71z" />
<glyph unicode="&#xd0;" horiz-adv-x="1169" d="M70 598v104h166v416l-130 21v102h373q150 0 232 -15.5t143 -51.5q121 -72 184.5 -206t63.5 -319q0 -329 -163.5 -489t-502.5 -160h-330v90l130 33v475h-166zM391 104h96q218 0 328.5 136t110.5 405q0 242 -106 368t-310 126h-119v-437h268v-104h-268v-494z" />
<glyph unicode="&#xd1;" horiz-adv-x="1124" d="M37 0v90l131 33v995l-131 33v90h305l518 -928v805l-127 33v90h375v-90l-133 -33v-1118h-115l-577 1030v-907l127 -33v-90h-373zM270 1489q53 90 94.5 129.5t81.5 39.5q44 0 127 -47t109 -47t47.5 19.5t54.5 77.5l68 -54q-47 -89 -89.5 -130.5t-86.5 -41.5 q-40 0 -123 48.5t-111 48.5q-23 0 -43 -18.5t-57 -80.5z" />
<glyph unicode="&#xd2;" horiz-adv-x="1114" d="M66 621q0 292 136 468.5t357 176.5q236 0 363 -160.5t127 -460.5q0 -310 -131.5 -487.5t-356.5 -177.5q-233 0 -364 168.5t-131 472.5zM242 604q0 -251 80 -383.5t231 -132.5q154 0 236.5 135t82.5 385q0 289 -75 419t-240 130q-156 0 -235.5 -139.5t-79.5 -413.5z M391 1638l135 86l197 -297l-90 -51z" />
<glyph unicode="&#xd3;" horiz-adv-x="1114" d="M66 621q0 292 136 468.5t357 176.5q236 0 363 -160.5t127 -460.5q0 -310 -131.5 -487.5t-356.5 -177.5q-233 0 -364 168.5t-131 472.5zM242 604q0 -251 80 -383.5t231 -132.5q154 0 236.5 135t82.5 385q0 289 -75 419t-240 130q-156 0 -235.5 -139.5t-79.5 -413.5z M391 1427l195 297l137 -86l-244 -262z" />
<glyph unicode="&#xd4;" horiz-adv-x="1114" d="M66 621q0 292 136 468.5t357 176.5q236 0 363 -160.5t127 -460.5q0 -310 -131.5 -487.5t-356.5 -177.5q-233 0 -364 168.5t-131 472.5zM242 604q0 -251 80 -383.5t231 -132.5q154 0 236.5 135t82.5 385q0 289 -75 419t-240 130q-156 0 -235.5 -139.5t-79.5 -413.5z M283 1431l272 293l278 -293l-77 -55l-201 166l-195 -166z" />
<glyph unicode="&#xd5;" horiz-adv-x="1114" d="M66 621q0 292 136 468.5t357 176.5q236 0 363 -160.5t127 -460.5q0 -310 -131.5 -487.5t-356.5 -177.5q-233 0 -364 168.5t-131 472.5zM242 604q0 -251 80 -383.5t231 -132.5q154 0 236.5 135t82.5 385q0 289 -75 419t-240 130q-156 0 -235.5 -139.5t-79.5 -413.5z M264 1489q53 90 94.5 129.5t81.5 39.5q44 0 127 -47t109 -47t47.5 19.5t54.5 77.5l68 -54q-47 -89 -89.5 -130.5t-86.5 -41.5q-40 0 -123 48.5t-111 48.5q-23 0 -43 -18.5t-57 -80.5z" />
<glyph unicode="&#xd6;" horiz-adv-x="1114" d="M66 621q0 292 136 468.5t357 176.5q236 0 363 -160.5t127 -460.5q0 -310 -131.5 -487.5t-356.5 -177.5q-233 0 -364 168.5t-131 472.5zM242 604q0 -251 80 -383.5t231 -132.5q154 0 236.5 135t82.5 385q0 289 -75 419t-240 130q-156 0 -235.5 -139.5t-79.5 -413.5z M313 1507q0 46 25 70t72 24q45 0 70.5 -24.5t25.5 -69.5q0 -46 -25 -71t-71 -25q-47 0 -72 25t-25 71zM608 1507q0 46 25 70t71 24t70.5 -24.5t24.5 -69.5q0 -47 -24.5 -71.5t-70.5 -24.5t-71 25t-25 71z" />
<glyph unicode="&#xd7;" horiz-adv-x="1706" d="M301 135l475 475l-475 477l80 82l477 -477l475 477l82 -82l-475 -477l475 -475l-82 -82l-475 475l-477 -475z" />
<glyph unicode="&#xd8;" horiz-adv-x="1114" d="M12 -53l164 231q-55 85 -82.5 197t-27.5 248q0 292 135.5 467.5t357.5 175.5q94 0 172 -26.5t137 -78.5l138 193l88 -64l-150 -215q51 -75 78 -185.5t27 -248.5q0 -307 -131.5 -484t-356.5 -177q-94 0 -174 27.5t-139 80.5l-148 -213zM242 606q0 -79 8.5 -149.5 t25.5 -137.5l510 723q-37 58 -94 86.5t-135 28.5q-156 0 -235.5 -139t-79.5 -412zM332 207q35 -58 92.5 -88.5t130.5 -30.5q153 0 235 134.5t82 385.5q0 102 -8.5 181t-25.5 141z" />
<glyph unicode="&#xd9;" horiz-adv-x="1114" d="M16 1151v90h414v-90l-129 -33v-719q0 -167 64 -236t215 -69q136 0 201 66.5t65 208.5v749l-127 33v90h379v-90l-127 -33v-739q0 -209 -100 -306.5t-312 -97.5q-206 0 -310 92t-104 273v778zM391 1638l135 86l197 -297l-90 -51z" />
<glyph unicode="&#xda;" horiz-adv-x="1114" d="M16 1151v90h414v-90l-129 -33v-719q0 -167 64 -236t215 -69q136 0 201 66.5t65 208.5v749l-127 33v90h379v-90l-127 -33v-739q0 -209 -100 -306.5t-312 -97.5q-206 0 -310 92t-104 273v778zM391 1427l195 297l137 -86l-244 -262z" />
<glyph unicode="&#xdb;" horiz-adv-x="1114" d="M16 1151v90h414v-90l-129 -33v-719q0 -167 64 -236t215 -69q136 0 201 66.5t65 208.5v749l-127 33v90h379v-90l-127 -33v-739q0 -209 -100 -306.5t-312 -97.5q-206 0 -310 92t-104 273v778zM283 1431l272 293l278 -293l-77 -55l-201 166l-195 -166z" />
<glyph unicode="&#xdc;" horiz-adv-x="1114" d="M16 1151v90h414v-90l-129 -33v-719q0 -167 64 -236t215 -69q136 0 201 66.5t65 208.5v749l-127 33v90h379v-90l-127 -33v-739q0 -209 -100 -306.5t-312 -97.5q-206 0 -310 92t-104 273v778zM313 1507q0 46 25 70t72 24q45 0 70.5 -24.5t25.5 -69.5q0 -46 -25 -71t-71 -25 q-47 0 -72 25t-25 71zM608 1507q0 46 25 70t71 24t70.5 -24.5t24.5 -69.5q0 -47 -24.5 -71.5t-70.5 -24.5t-71 25t-25 71z" />
<glyph unicode="&#xdd;" horiz-adv-x="1012" d="M6 1151v90h389v-90l-114 -33l241 -475l248 475l-115 35v88h357v-88l-101 -35l-327 -573v-422l145 -33v-90h-448v90l145 33v389l-320 616zM340 1427l195 297l137 -86l-244 -262z" />
<glyph unicode="&#xde;" horiz-adv-x="903" d="M37 0v88l127 33v997l-127 35v88h416v-94l-134 -29v-76h72q252 0 363.5 -83t111.5 -267q0 -181 -116 -285t-318 -104h-113v-180l158 -35v-88h-440zM319 393h91q142 0 214 71.5t72 211.5q0 142 -66.5 209t-207.5 67h-103v-559z" />
<glyph unicode="&#xdf;" horiz-adv-x="1006" d="M14 0v90l127 33v840q0 221 92.5 319t296.5 98q158 0 252.5 -66.5t94.5 -176.5q0 -68 -30.5 -119t-121.5 -121l-66 -51q-41 -33 -58 -62t-17 -63q0 -38 18 -65t82 -68l125 -82q93 -62 130.5 -118t37.5 -128q0 -129 -86.5 -204.5t-233.5 -75.5q-76 0 -140 18t-114 53v176 h123l50 -147q20 -3 40 -4.5t37 -1.5q82 0 125 36t43 105q0 47 -26.5 84.5t-92.5 81.5l-120 80q-79 53 -110.5 103t-31.5 120q0 66 27 117t90 104l76 64q46 38 65 74t19 79q0 78 -54 118t-159 40q-109 0 -157 -57t-48 -193v-1030h-285z" />
<glyph unicode="&#xe0;" horiz-adv-x="936" d="M61 418q0 246 105.5 397.5t271.5 151.5q47 0 93 -14t96 -44l141 60v-842l137 -29v-78l-289 -28v100q-62 -54 -130 -84.5t-126 -30.5q-141 0 -220 116t-79 325zM227 426q0 -158 48 -242t139 -84q41 0 89 20.5t113 65.5v637q-37 16 -71.5 23.5t-69.5 7.5 q-118 0 -183 -111.5t-65 -316.5zM303 1323l135 86l197 -297l-90 -51z" />
<glyph unicode="&#xe1;" horiz-adv-x="936" d="M61 418q0 246 105.5 397.5t271.5 151.5q47 0 93 -14t96 -44l141 60v-842l137 -29v-78l-289 -28v100q-62 -54 -130 -84.5t-126 -30.5q-141 0 -220 116t-79 325zM227 426q0 -158 48 -242t139 -84q41 0 89 20.5t113 65.5v637q-37 16 -71.5 23.5t-69.5 7.5 q-118 0 -183 -111.5t-65 -316.5zM303 1112l195 297l137 -86l-244 -262z" />
<glyph unicode="&#xe2;" horiz-adv-x="936" d="M61 418q0 246 105.5 397.5t271.5 151.5q47 0 93 -14t96 -44l141 60v-842l137 -29v-78l-289 -28v100q-62 -54 -130 -84.5t-126 -30.5q-141 0 -220 116t-79 325zM195 1116l272 293l278 -293l-77 -55l-201 166l-195 -166zM227 426q0 -158 48 -242t139 -84q41 0 89 20.5 t113 65.5v637q-37 16 -71.5 23.5t-69.5 7.5q-118 0 -183 -111.5t-65 -316.5z" />
<glyph unicode="&#xe3;" horiz-adv-x="936" d="M61 418q0 246 105.5 397.5t271.5 151.5q47 0 93 -14t96 -44l141 60v-842l137 -29v-78l-289 -28v100q-62 -54 -130 -84.5t-126 -30.5q-141 0 -220 116t-79 325zM176 1174q53 90 94.5 129.5t81.5 39.5q44 0 127 -47t109 -47t47.5 19.5t54.5 77.5l68 -54 q-47 -89 -89.5 -130.5t-86.5 -41.5q-40 0 -123 48.5t-111 48.5q-23 0 -43 -18.5t-57 -80.5zM227 426q0 -158 48 -242t139 -84q41 0 89 20.5t113 65.5v637q-37 16 -71.5 23.5t-69.5 7.5q-118 0 -183 -111.5t-65 -316.5z" />
<glyph unicode="&#xe4;" horiz-adv-x="936" d="M61 418q0 246 105.5 397.5t271.5 151.5q47 0 93 -14t96 -44l141 60v-842l137 -29v-78l-289 -28v100q-62 -54 -130 -84.5t-126 -30.5q-141 0 -220 116t-79 325zM225 1192q0 46 25 70t72 24q45 0 70.5 -24.5t25.5 -69.5q0 -46 -25 -71t-71 -25q-47 0 -72 25t-25 71z M227 426q0 -158 48 -242t139 -84q41 0 89 20.5t113 65.5v637q-37 16 -71.5 23.5t-69.5 7.5q-118 0 -183 -111.5t-65 -316.5zM520 1192q0 46 25 70t71 24t70.5 -24.5t24.5 -69.5q0 -47 -24.5 -71.5t-70.5 -24.5t-71 25t-25 71z" />
<glyph unicode="&#xe5;" horiz-adv-x="936" d="M61 418q0 246 105.5 397.5t271.5 151.5q47 0 93 -14t96 -44l141 60v-842l137 -29v-78l-289 -28v100q-62 -54 -130 -84.5t-126 -30.5q-141 0 -220 116t-79 325zM213 1282q0 104 72 176t176 72q103 0 175.5 -72.5t72.5 -175.5q0 -104 -72 -176t-176 -72q-105 0 -176.5 72 t-71.5 176zM227 426q0 -158 48 -242t139 -84q41 0 89 20.5t113 65.5v637q-37 16 -71.5 23.5t-69.5 7.5q-118 0 -183 -111.5t-65 -316.5zM313 1280q0 -61 43.5 -104t104.5 -43q60 0 103.5 43t43.5 104t-43.5 105.5t-103.5 44.5t-104 -44.5t-44 -105.5z" />
<glyph unicode="&#xe6;" horiz-adv-x="1260" d="M51 264q0 145 105.5 216t318.5 71q31 0 47.5 -0.5t32.5 -1.5v119q0 121 -38.5 166t-131.5 45q-6 0 -29.5 -3.5t-36.5 -5.5l-49 -122h-133v126q73 50 147 74.5t152 24.5q88 0 147 -30t89 -89q47 58 115 88.5t151 30.5q122 0 191 -62t69 -172q0 -143 -109.5 -215.5 t-326.5 -72.5h-64q0 -8 -1 -23t-1 -20q0 -154 65 -226.5t202 -72.5q54 0 108.5 9t114.5 27v-94q-61 -32 -132.5 -48.5t-146.5 -16.5q-92 0 -158.5 28t-107.5 84q-68 -57 -143.5 -87.5t-149.5 -30.5q-132 0 -214.5 79t-82.5 205zM217 274q0 -79 48 -122t134 -43q40 0 78 9 t78 29v304h-43q-161 0 -228 -41t-67 -136zM698 545h37q158 0 227.5 43.5t69.5 140.5q0 64 -35 99.5t-100 35.5q-92 0 -145.5 -78.5t-53.5 -216.5v-24z" />
<glyph unicode="&#xe7;" horiz-adv-x="768" d="M66 430q0 245 114 392t301 147q55 0 112 -15t124 -47v-164h-123l-33 125q-16 2 -32.5 3t-36.5 1q-131 0 -198 -106t-67 -313q0 -181 66.5 -267t206.5 -86q47 0 100.5 9.5t116.5 29.5v-96q-76 -32 -140.5 -47.5t-121.5 -15.5q-191 0 -290 114.5t-99 335.5zM336 -365 q79 23 120.5 61t41.5 87q0 30 -17 52.5t-53 37.5v127h78v-63q68 -19 100.5 -56.5t32.5 -97.5q0 -95 -78 -159.5t-207 -73.5z" />
<glyph unicode="&#xe8;" horiz-adv-x="786" d="M66 430q0 247 111.5 394t297.5 147q116 0 184 -63t68 -171q0 -142 -109.5 -214t-324.5 -72q-10 0 -30.5 1t-31.5 1v-31q0 -165 66.5 -243.5t204.5 -78.5q47 0 101 9.5t114 27.5v-94q-72 -31 -139 -46t-134 -15q-189 0 -283.5 111.5t-94.5 336.5zM231 545h25 q162 0 233.5 42t71.5 136q0 66 -32.5 100.5t-94.5 34.5q-102 0 -152.5 -77.5t-50.5 -235.5zM307 1323l135 86l197 -297l-90 -51z" />
<glyph unicode="&#xe9;" horiz-adv-x="786" d="M66 430q0 247 111.5 394t297.5 147q116 0 184 -63t68 -171q0 -142 -109.5 -214t-324.5 -72q-10 0 -30.5 1t-31.5 1v-31q0 -165 66.5 -243.5t204.5 -78.5q47 0 101 9.5t114 27.5v-94q-72 -31 -139 -46t-134 -15q-189 0 -283.5 111.5t-94.5 336.5zM231 545h25 q162 0 233.5 42t71.5 136q0 66 -32.5 100.5t-94.5 34.5q-102 0 -152.5 -77.5t-50.5 -235.5zM307 1112l195 297l137 -86l-244 -262z" />
<glyph unicode="&#xea;" horiz-adv-x="786" d="M66 430q0 247 111.5 394t297.5 147q116 0 184 -63t68 -171q0 -142 -109.5 -214t-324.5 -72q-10 0 -30.5 1t-31.5 1v-31q0 -165 66.5 -243.5t204.5 -78.5q47 0 101 9.5t114 27.5v-94q-72 -31 -139 -46t-134 -15q-189 0 -283.5 111.5t-94.5 336.5zM199 1116l272 293 l278 -293l-77 -55l-201 166l-195 -166zM231 545h25q162 0 233.5 42t71.5 136q0 66 -32.5 100.5t-94.5 34.5q-102 0 -152.5 -77.5t-50.5 -235.5z" />
<glyph unicode="&#xeb;" horiz-adv-x="786" d="M66 430q0 247 111.5 394t297.5 147q116 0 184 -63t68 -171q0 -142 -109.5 -214t-324.5 -72q-10 0 -30.5 1t-31.5 1v-31q0 -165 66.5 -243.5t204.5 -78.5q47 0 101 9.5t114 27.5v-94q-72 -31 -139 -46t-134 -15q-189 0 -283.5 111.5t-94.5 336.5zM229 1192q0 46 25 70 t72 24q45 0 70.5 -24.5t25.5 -69.5q0 -46 -25 -71t-71 -25q-47 0 -72 25t-25 71zM231 545h25q162 0 233.5 42t71.5 136q0 66 -32.5 100.5t-94.5 34.5q-102 0 -152.5 -77.5t-50.5 -235.5zM524 1192q0 46 25 70t71 24t70.5 -24.5t24.5 -69.5q0 -47 -24.5 -71.5t-70.5 -24.5 t-71 25t-25 71z" />
<glyph unicode="&#xec;" horiz-adv-x="504" d="M45 848v78l289 37v-840l129 -33v-90h-408v90l127 33v698zM45 1323l135 86l197 -297l-90 -51z" />
<glyph unicode="&#xed;" horiz-adv-x="504" d="M45 848v78l289 37v-840l129 -33v-90h-408v90l127 33v698zM45 1112l195 297l137 -86l-244 -262z" />
<glyph unicode="&#xee;" horiz-adv-x="504" d="M-63 1116l272 293l278 -293l-77 -55l-201 166l-195 -166zM45 848v78l289 37v-840l129 -33v-90h-408v90l127 33v698z" />
<glyph unicode="&#xef;" horiz-adv-x="504" d="M-33 1192q0 46 25 70t72 24q45 0 70.5 -24.5t25.5 -69.5q0 -46 -25 -71t-71 -25q-47 0 -72 25t-25 71zM45 848v78l289 37v-840l129 -33v-90h-408v90l127 33v698zM262 1192q0 46 25 70t71 24t70.5 -24.5t24.5 -69.5q0 -47 -24.5 -71.5t-70.5 -24.5t-71 25t-25 71z" />
<glyph unicode="&#xf0;" d="M68 424q0 232 98 364t268 132q35 0 62 -5t51 -16q-40 82 -68 132.5t-57 92.5l-227 -98l-31 88l205 90q-32 46 -61.5 85.5t-59.5 76.5l71 57q43 -36 85 -76t85 -87l234 96l45 -88l-217 -90q123 -176 186.5 -354.5t63.5 -348.5q0 -231 -99 -364.5t-268 -133.5 q-172 0 -269 118.5t-97 328.5zM233 449q0 -195 48 -283t153 -88q104 0 152.5 93.5t48.5 293.5q0 184 -48 269t-153 85q-102 0 -151.5 -91t-49.5 -279z" />
<glyph unicode="&#xf1;" horiz-adv-x="1014" d="M43 848v78l289 37v-109q93 60 162.5 84.5t142.5 24.5q113 0 169 -62t56 -186v-592l129 -33v-90h-407v90l127 33v530q0 100 -36 142.5t-120 42.5q-51 0 -106.5 -19t-116.5 -57v-639l129 -33v-90h-410v90l129 33v698zM215 1174q53 90 94.5 129.5t81.5 39.5q44 0 127 -47 t109 -47t47.5 19.5t54.5 77.5l68 -54q-47 -89 -89.5 -130.5t-86.5 -41.5q-40 0 -123 48.5t-111 48.5q-23 0 -43 -18.5t-57 -80.5z" />
<glyph unicode="&#xf2;" d="M68 446q0 245 98.5 385t267.5 140q173 0 270 -124t97 -345q0 -244 -98.5 -384.5t-268.5 -140.5q-172 0 -269 124t-97 345zM233 473q0 -205 48 -298t153 -93q103 0 152 99t49 311q0 193 -48.5 282.5t-152.5 89.5q-102 0 -151.5 -96t-49.5 -295zM268 1323l135 86l197 -297 l-90 -51z" />
<glyph unicode="&#xf3;" d="M68 446q0 245 98.5 385t267.5 140q173 0 270 -124t97 -345q0 -244 -98.5 -384.5t-268.5 -140.5q-172 0 -269 124t-97 345zM233 473q0 -205 48 -298t153 -93q103 0 152 99t49 311q0 193 -48.5 282.5t-152.5 89.5q-102 0 -151.5 -96t-49.5 -295zM268 1112l195 297l137 -86 l-244 -262z" />
<glyph unicode="&#xf4;" d="M68 446q0 245 98.5 385t267.5 140q173 0 270 -124t97 -345q0 -244 -98.5 -384.5t-268.5 -140.5q-172 0 -269 124t-97 345zM160 1116l272 293l278 -293l-77 -55l-201 166l-195 -166zM233 473q0 -205 48 -298t153 -93q103 0 152 99t49 311q0 193 -48.5 282.5t-152.5 89.5 q-102 0 -151.5 -96t-49.5 -295z" />
<glyph unicode="&#xf5;" d="M68 446q0 245 98.5 385t267.5 140q173 0 270 -124t97 -345q0 -244 -98.5 -384.5t-268.5 -140.5q-172 0 -269 124t-97 345zM141 1174q53 90 94.5 129.5t81.5 39.5q44 0 127 -47t109 -47t47.5 19.5t54.5 77.5l68 -54q-47 -89 -89.5 -130.5t-86.5 -41.5q-40 0 -123 48.5 t-111 48.5q-23 0 -43 -18.5t-57 -80.5zM233 473q0 -205 48 -298t153 -93q103 0 152 99t49 311q0 193 -48.5 282.5t-152.5 89.5q-102 0 -151.5 -96t-49.5 -295z" />
<glyph unicode="&#xf6;" d="M68 446q0 245 98.5 385t267.5 140q173 0 270 -124t97 -345q0 -244 -98.5 -384.5t-268.5 -140.5q-172 0 -269 124t-97 345zM190 1192q0 46 25 70t72 24q45 0 70.5 -24.5t25.5 -69.5q0 -46 -25 -71t-71 -25q-47 0 -72 25t-25 71zM233 473q0 -205 48 -298t153 -93 q103 0 152 99t49 311q0 193 -48.5 282.5t-152.5 89.5q-102 0 -151.5 -96t-49.5 -295zM485 1192q0 46 25 70t71 24t70.5 -24.5t24.5 -69.5q0 -47 -24.5 -71.5t-70.5 -24.5t-71 25t-25 71z" />
<glyph unicode="&#xf7;" horiz-adv-x="1706" d="M254 553v117h1198v-117h-1198zM739 250q0 48 34 81.5t81 33.5t81 -34t34 -81t-33.5 -81t-81.5 -34t-81.5 33.5t-33.5 81.5zM739 971q0 47 34 80.5t81 33.5q48 0 81.5 -33.5t33.5 -80.5q0 -48 -33.5 -81.5t-81.5 -33.5q-49 0 -82 33.5t-33 81.5z" />
<glyph unicode="&#xf8;" d="M-4 -61l141 200q-33 53 -51 132.5t-18 174.5q0 245 98.5 385t267.5 140q67 0 125.5 -21t106.5 -63l118 166l74 -56l-129 -188q35 -56 53.5 -134t18.5 -173q0 -244 -98.5 -384.5t-268.5 -140.5q-74 0 -132 21.5t-101 64.5l-125 -182zM233 457q0 -67 2.5 -101t8.5 -65 l342 483q-22 46 -59 68t-93 22q-103 0 -152 -98.5t-49 -308.5zM281 176q23 -46 61 -70t88 -24q107 0 156 98t49 312q0 39 -3 80.5t-9 84.5z" />
<glyph unicode="&#xf9;" horiz-adv-x="1020" d="M18 856v78l289 29v-668q0 -96 36 -140t114 -44q57 0 114 18.5t117 56.5v641l-137 29v78l289 29v-836l137 -27v-77l-289 -37v108q-92 -59 -162.5 -83.5t-144.5 -24.5q-113 0 -169 62t-56 185v594zM276 1323l135 86l197 -297l-90 -51z" />
<glyph unicode="&#xfa;" horiz-adv-x="1020" d="M18 856v78l289 29v-668q0 -96 36 -140t114 -44q57 0 114 18.5t117 56.5v641l-137 29v78l289 29v-836l137 -27v-77l-289 -37v108q-92 -59 -162.5 -83.5t-144.5 -24.5q-113 0 -169 62t-56 185v594zM276 1112l195 297l137 -86l-244 -262z" />
<glyph unicode="&#xfb;" horiz-adv-x="1020" d="M18 856v78l289 29v-668q0 -96 36 -140t114 -44q57 0 114 18.5t117 56.5v641l-137 29v78l289 29v-836l137 -27v-77l-289 -37v108q-92 -59 -162.5 -83.5t-144.5 -24.5q-113 0 -169 62t-56 185v594zM168 1116l272 293l278 -293l-77 -55l-201 166l-195 -166z" />
<glyph unicode="&#xfc;" horiz-adv-x="1020" d="M18 856v78l289 29v-668q0 -96 36 -140t114 -44q57 0 114 18.5t117 56.5v641l-137 29v78l289 29v-836l137 -27v-77l-289 -37v108q-92 -59 -162.5 -83.5t-144.5 -24.5q-113 0 -169 62t-56 185v594zM198 1192q0 46 25 70t72 24q45 0 70.5 -24.5t25.5 -69.5q0 -46 -25 -71 t-71 -25q-47 0 -72 25t-25 71zM493 1192q0 46 25 70t71 24t70.5 -24.5t24.5 -69.5q0 -47 -24.5 -71.5t-70.5 -24.5t-71 25t-25 71z" />
<glyph unicode="&#xfd;" horiz-adv-x="928" d="M6 858v90h387v-90l-114 -29l217 -657l194 657l-115 29v90h351v-90l-105 -29l-317 -970q-53 -163 -116.5 -222t-170.5 -59q-35 0 -69.5 10t-73.5 31v176h141l41 -114q39 4 63.5 30.5t49.5 98.5l59 167l-319 852zM299 1112l195 297l137 -86l-244 -262z" />
<glyph unicode="&#xfe;" horiz-adv-x="903" d="M-6 1264v79l289 37v-526q80 65 138.5 90t121.5 25q138 0 216.5 -114.5t78.5 -319.5q0 -250 -105 -402.5t-272 -152.5q-43 0 -86.5 13t-91.5 40v-332l166 -37v-86h-447v90l129 33v1538zM283 123q39 -16 72.5 -23.5t64.5 -7.5q118 0 184 108t66 302q0 180 -46.5 264 t-146.5 84q-43 0 -90 -21t-104 -67v-639z" />
<glyph unicode="&#xff;" horiz-adv-x="928" d="M6 858v90h387v-90l-114 -29l217 -657l194 657l-115 29v90h351v-90l-105 -29l-317 -970q-53 -163 -116.5 -222t-170.5 -59q-35 0 -69.5 10t-73.5 31v176h141l41 -114q39 4 63.5 30.5t49.5 98.5l59 167l-319 852zM221 1192q0 46 25 70t72 24q45 0 70.5 -24.5t25.5 -69.5 q0 -46 -25 -71t-71 -25q-47 0 -72 25t-25 71zM516 1192q0 46 25 70t71 24t70.5 -24.5t24.5 -69.5q0 -47 -24.5 -71.5t-70.5 -24.5t-71 25t-25 71z" />
<glyph unicode="&#x152;" horiz-adv-x="1452" d="M66 623q0 293 137.5 468t365.5 175q48 0 90 -6t82 -19h660v-260h-111l-55 166h-338v-455h260l47 148h90v-394h-90l-47 152h-260v-504h350l56 195h98v-289h-702q-34 -9 -66 -13.5t-64 -4.5q-240 0 -371.5 168t-131.5 473zM244 598q0 -245 82 -376.5t233 -131.5 q52 0 96.5 16t85.5 50v946q-40 29 -82 42t-98 13q-158 0 -237.5 -140t-79.5 -419z" />
<glyph unicode="&#x153;" horiz-adv-x="1343" d="M68 446q0 246 99 385.5t271 139.5q97 0 169 -41t122 -125q41 78 120 123t173 45q122 0 191 -62t69 -172q0 -143 -109.5 -215.5t-326.5 -72.5h-64q0 -8 -1 -23t-1 -20q0 -154 65 -226.5t202 -72.5q54 0 110 9t115 27v-94q-61 -32 -133.5 -48.5t-147.5 -16.5q-91 0 -162 38 t-114 111q-54 -77 -128 -117.5t-161 -40.5q-166 0 -262 125.5t-96 343.5zM233 473q0 -205 48 -298t153 -93q103 0 152 99t49 311q0 193 -48.5 282.5t-152.5 89.5q-102 0 -151.5 -96t-49.5 -295zM782 545h15q174 0 246.5 42t72.5 142q0 65 -34.5 100t-98.5 35q-93 0 -147 -79 t-54 -216v-24z" />
<glyph unicode="&#x178;" horiz-adv-x="1012" d="M6 1151v90h389v-90l-114 -33l241 -475l248 475l-115 35v88h357v-88l-101 -35l-327 -573v-422l145 -33v-90h-448v90l145 33v389l-320 616zM262 1507q0 46 25 70t72 24q45 0 70.5 -24.5t25.5 -69.5q0 -46 -25 -71t-71 -25q-47 0 -72 25t-25 71zM557 1507q0 46 25 70t71 24 t70.5 -24.5t24.5 -69.5q0 -47 -24.5 -71.5t-70.5 -24.5t-71 25t-25 71z" />
<glyph unicode="&#x2c6;" horiz-adv-x="1024" d="M238 1116l272 293l278 -293l-77 -55l-201 166l-195 -166z" />
<glyph unicode="&#x2dc;" horiz-adv-x="1024" d="M219 1174q53 90 94.5 129.5t81.5 39.5q44 0 127 -47t109 -47t47.5 19.5t54.5 77.5l68 -54q-47 -89 -89.5 -130.5t-86.5 -41.5q-40 0 -123 48.5t-111 48.5q-23 0 -43 -18.5t-57 -80.5z" />
<glyph unicode="&#x2000;" horiz-adv-x="902" />
<glyph unicode="&#x2001;" horiz-adv-x="1804" />
<glyph unicode="&#x2002;" horiz-adv-x="902" />
<glyph unicode="&#x2003;" horiz-adv-x="1804" />
<glyph unicode="&#x2004;" horiz-adv-x="601" />
<glyph unicode="&#x2005;" horiz-adv-x="451" />
<glyph unicode="&#x2006;" horiz-adv-x="300" />
<glyph unicode="&#x2007;" horiz-adv-x="300" />
<glyph unicode="&#x2008;" horiz-adv-x="225" />
<glyph unicode="&#x2009;" horiz-adv-x="360" />
<glyph unicode="&#x200a;" horiz-adv-x="100" />
<glyph unicode="&#x2010;" horiz-adv-x="473" d="M39 440v129h397v-129h-397z" />
<glyph unicode="&#x2011;" horiz-adv-x="473" d="M39 440v129h397v-129h-397z" />
<glyph unicode="&#x2012;" horiz-adv-x="473" d="M39 440v129h397v-129h-397z" />
<glyph unicode="&#x2013;" horiz-adv-x="1024" d="M0 457v96h1024v-96h-1024z" />
<glyph unicode="&#x2014;" horiz-adv-x="2048" d="M-14 457v96h2076v-96h-2076z" />
<glyph unicode="&#x2018;" horiz-adv-x="426" d="M102 995q0 100 56 174t149 97l35 -84q-55 -31 -84 -64t-29 -65v-6h15q50 0 79 -29.5t29 -77.5q0 -56 -30.5 -84.5t-90.5 -28.5q-62 0 -95.5 44t-33.5 124z" />
<glyph unicode="&#x2019;" horiz-adv-x="426" d="M102 1159q0 51 31.5 79t89.5 28q62 0 96.5 -43.5t34.5 -122.5q0 -100 -56 -175t-148 -98l-35 84q53 30 81.5 64t28.5 67v7h-14q-51 0 -80 29t-29 81z" />
<glyph unicode="&#x201a;" horiz-adv-x="426" d="M102 88q0 51 31.5 79t89.5 28q62 0 96.5 -43.5t34.5 -122.5q0 -100 -56 -175t-148 -98l-35 84q54 32 82 65.5t28 65.5v6h-14q-51 0 -80 29.5t-29 81.5z" />
<glyph unicode="&#x201c;" horiz-adv-x="743" d="M102 995q0 100 56 174t149 97l35 -84q-55 -31 -84 -64t-29 -65v-6h15q50 0 79 -29.5t29 -77.5q0 -56 -30.5 -84.5t-90.5 -28.5q-62 0 -95.5 44t-33.5 124zM420 995q0 100 56 174t149 97l34 -84q-55 -31 -83.5 -64t-28.5 -65v-6h14q51 0 81 -29.5t30 -77.5 q0 -55 -31.5 -84t-91.5 -29q-62 0 -95.5 44t-33.5 124z" />
<glyph unicode="&#x201d;" horiz-adv-x="743" d="M102 1159q0 51 31.5 79t89.5 28q62 0 96.5 -43.5t34.5 -122.5q0 -100 -56 -175t-148 -98l-35 84q53 30 81.5 64t28.5 67v7h-14q-51 0 -80 29t-29 81zM420 1159q0 51 31.5 79t89.5 28q62 0 96.5 -43.5t34.5 -122.5q0 -100 -56.5 -175t-148.5 -98l-35 84q54 30 83.5 64.5 t29.5 66.5v7h-15q-51 0 -80.5 29.5t-29.5 80.5z" />
<glyph unicode="&#x201e;" horiz-adv-x="743" d="M102 88q0 51 31.5 79t89.5 28q62 0 96.5 -43.5t34.5 -122.5q0 -100 -56 -175t-148 -98l-35 84q54 32 82 65.5t28 65.5v6h-14q-51 0 -80 29.5t-29 81.5zM420 88q0 51 31.5 79t89.5 28q62 0 96.5 -43.5t34.5 -122.5q0 -100 -56.5 -175t-148.5 -98l-35 84q55 33 84 66t29 65 v6h-15q-51 0 -80.5 30t-29.5 81z" />
<glyph unicode="&#x2022;" horiz-adv-x="1208" d="M307 762q0 123 87 209t210 86q122 0 208.5 -86.5t86.5 -208.5t-87.5 -209.5t-209.5 -87.5q-123 0 -209 87t-86 210z" />
<glyph unicode="&#x2026;" horiz-adv-x="2048" d="M225 86q0 54 29.5 81.5t87.5 27.5q60 0 88.5 -26.5t28.5 -82.5q0 -55 -28.5 -80.5t-88.5 -25.5q-59 0 -88 26t-29 80zM907 86q0 54 29.5 81.5t87.5 27.5q60 0 88.5 -26.5t28.5 -82.5q0 -55 -28.5 -80.5t-88.5 -25.5q-59 0 -88 26t-29 80zM1591 86q0 54 29.5 81.5 t87.5 27.5q60 0 88.5 -26.5t28.5 -82.5q0 -55 -28.5 -80.5t-88.5 -25.5q-59 0 -88 26t-29 80z" />
<glyph unicode="&#x202f;" horiz-adv-x="360" />
<glyph unicode="&#x2039;" horiz-adv-x="426" d="M63 498l189 360h133l-160 -360l160 -361h-133z" />
<glyph unicode="&#x203a;" horiz-adv-x="426" d="M41 137l160 361l-160 360h133l188 -360l-188 -361h-133z" />
<glyph unicode="&#x205f;" horiz-adv-x="451" />
<glyph unicode="&#x2122;" horiz-adv-x="1683" d="M244 1260l12 178h440l11 -178h-25q-8 79 -40.5 115t-96.5 36h-21v-426q0 -23 12 -37t33 -16l31 -2v-27h-248v27l31 2q21 1 33 15.5t12 37.5v426h-20q-64 0 -97 -36t-41 -115h-26zM788 903v27l34 2q21 2 32.5 16t11.5 37v371q0 23 -12.5 37t-34.5 16l-31 2v27h183 l141 -400l148 400h174v-25l-30 -2q-22 -2 -34 -15.5t-12 -37.5v-373q0 -24 12 -37.5t34 -15.5l30 -2v-27h-236v27l31 2q21 2 33 16t12 37v395l-178 -479h-15l-174 479v-395q0 -23 12.5 -37t34.5 -16l31 -2v-27h-197z" />
<glyph unicode="&#x25fc;" horiz-adv-x="950" d="M0 0v950h950v-950h-950z" />
</font>
</defs>
</svg>
